<svg version="1.2" xmlns="http://www.w3.org/2000/svg" viewBox="0 0 226 228" width="226" height="228">
	<title>Place Your Logo Here (Double Click to Edit)1</title>
	<style>
		.s0 { fill: #ffffff } 
	</style>
	<path id="Shape 1" fill-rule="evenodd" class="s0" d="m219.3 18.8v26.4c0 0.9-0.2 1.9-0.7 2.7l-12.5 25.1v18.3c0 1.7-0.7 3.2-1.8 4.4l-7.5 7.5c-1.3 1.2-1.5 3.2-0.5 4.7l8.7 13c1.7 2.5 1.4 5.7-0.7 7.8l-13.2 13.2c-2.5 2.4-6.4 2.4-8.8 0l-18-18h-20.1l-1.6 3.2c-1 2.1-3.1 3.4-5.5 3.4h-5.4l-5.2 15.6c-0.9 2.5-3.2 4.2-5.9 4.2h-13.2c-2.1 0-4-1-5.1-2.8l-11.4-17h-9.9c-1.7 0-3.2-0.7-4.4-1.8l-4.8-4.8h-23.9c-1.3 0-2.6-0.4-3.7-1.2l-26.4-19.8c-1.3-1-2.2-2.5-2.4-4.1l-6.6-46.2c-0.2-0.9-0.1-1.9 0.2-2.8l13.2-39.6c0.9-2.5 3.2-4.2 5.9-4.2h105.7c3.4 0 6.2 2.8 6.2 6.2v7h13.7c2.8 0 5.3 1.9 5.9 4.7l5.5 21.7h5.8l31.3-31.2c1.1-1.2 2.7-1.8 4.3-1.8h6.6c3.4 0 6.2 2.8 6.2 6.2zm-12.3 8.2l-29.2 29.1c-1.1 1.2-2.7 1.8-4.3 1.8h-13.2c-2.9 0-5.3-1.9-6-4.7l-5.5-21.7h-15c-3.4 0-6.1-2.7-6.1-6.1v-7.1h-95.2l-11.3 34 6 42.2 22.8 17.1h24.3c1.7 0 3.3 0.6 4.4 1.8l4.8 4.8h10.7c2 0 4 1 5.1 2.7l11.4 17.1h5.5l5.2-15.6c0.8-2.5 3.2-4.2 5.8-4.2h6.1l1.6-3.2c1.1-2.1 3.2-3.4 5.5-3.4h26.5c1.6 0 3.2 0.6 4.3 1.8l15.5 15.4 5.3-5.3-5.9-8.8c-4.3-6.3-3.4-14.9 2-20.3l5.6-5.6v-17.3c0-0.9 0.3-1.9 0.7-2.7l12.6-25.1zm-163.2 131.5v9.1h-28.7v19.9h22.4v9h-22.4v29.6h-11.1v-67.6zm17.9 65q-6.1-3.4-9.6-9.7-3.5-6.3-3.5-14.5 0-8.2 3.6-14.5 3.6-6.4 9.8-9.8 6.2-3.4 13.9-3.4 7.7 0 14 3.4 6.2 3.4 9.8 9.8 3.6 6.3 3.6 14.5 0 8.1-3.7 14.4-3.7 6.4-10.1 9.8-6.4 3.5-14 3.5-7.6 0-13.8-3.5zm21.8-8.2q3.7-2 6.1-6.1 2.3-4.1 2.3-9.9 0-5.9-2.2-9.9-2.3-4.1-6-6.1-3.7-2-8-2-4.2 0-7.9 2-3.6 2-5.8 6.1-2.1 4-2.1 9.9 0 8.6 4.4 13.3 4.4 4.7 11.2 4.7 4.2 0 8-2zm38.4 8.2q-6.1-3.4-9.6-9.7-3.5-6.3-3.5-14.5 0-8.2 3.6-14.5 3.6-6.4 9.8-9.8 6.2-3.4 13.9-3.4 7.7 0 14 3.4 6.2 3.4 9.8 9.8 3.6 6.3 3.6 14.5 0 8.1-3.7 14.4-3.7 6.4-10.1 9.8-6.4 3.5-14.1 3.5-7.6 0-13.7-3.5zm21.8-8.2q3.7-2 6.1-6.1 2.3-4.1 2.3-9.9 0-5.9-2.2-9.9-2.3-4.1-6-6.1-3.7-2-8-2-4.3 0-7.9 2-3.7 2-5.8 6.1-2.1 4-2.1 9.9 0 8.6 4.4 13.3 4.4 4.7 11.1 4.7 4.3 0 8.1-2zm28.5-30.5q3.4-6.3 9.2-9.7 5.8-3.5 12.9-3.5 5.2 0 10.3 2.3 5.1 2.3 8.2 6.1v-25.9h11.2v72h-11.2v-8.1q-2.8 3.9-7.6 6.4-4.8 2.6-11 2.6-7 0-12.8-3.6-5.8-3.5-9.2-9.9-3.4-6.4-3.4-14.4 0-8.1 3.4-14.3zm38.3 4.8q-2.3-4.1-6-6.2-3.7-2.1-8-2.1-4.3 0-8 2.1-3.7 2-6 6.1-2.3 4-2.3 9.6 0 5.5 2.3 9.7 2.3 4.2 6.1 6.4 3.7 2.1 7.9 2.1 4.3 0 8-2.1 3.7-2.1 6-6.3 2.3-4.1 2.3-9.6 0-5.6-2.3-9.7z"/>
</svg>