<svg version="1.2" xmlns="http://www.w3.org/2000/svg" viewBox="0 0 78 165" width="78" height="165">
	<title>Vector Smart Object-ai</title>
	<style>
		.s0 { fill: #919191 } 
	</style>
	<g id="Objects">
		<g id="&lt;Group&gt;">
			<path id="&lt;Path&gt;" class="s0" d="m70.1 41.5c-0.1 1.4-0.7 2.1-0.9 2.5-0.3 0.4-0.4 0.6-0.4 0.7-0.1 0.3 0.1 0.2-0.1 0.5 0.7-0.6 1.2-1.4 1.4-2.1 0.3-0.7 0.4-1.4 0.4-1.8-0.1-0.9-0.2-1-0.3-1 0 0.1 0 0.4-0.1 0.7 0 0.3 0 0.5 0 0.5z"/>
			<path id="&lt;Path&gt;" class="s0" d="m65.9 50.5l-0.5-0.6 3.2 5.5z"/>
			<path id="&lt;Path&gt;" class="s0" d="m55.8 29.2c0.4 0.6 0.6 1.4 0.8 2.1l0.1 0.3v0.1q0 0 0 0.1c0 0.2 0 0.3 0.1 0.4q0.1 0.2 0.2 0.4 0.2 0.2 0.3 0.5c0.9 1.4 1.9 3.1 3 4.8 2.3 3.4 4.8 7.2 6.6 10.3l0.4 1.1 2.2 2.5c-2.3-3.7-5-7.9-7.6-11.9-1.3-2-2.5-3.9-3.6-5.7q-0.4-0.6-0.8-1.3-0.2-0.3-0.4-0.6c-0.1-0.1-0.2-0.2-0.2-0.3v-0.2l-0.1-0.4q-0.1-0.3-0.2-0.7-0.3-0.8-0.8-1.5z"/>
			<path id="&lt;Path&gt;" class="s0" d="m56.9 47.9c-0.4-1.3 2.3 4.1-2.2-4.5 0.2 0.4 0.2 0.6 0.3 0.8 0.4 0.8 1 1.9 1.9 3.7z"/>
			<path id="&lt;Path&gt;" class="s0" d="m55 44.2c-1.9-3.9 1.1 2.7 0 0z"/>
			<path id="&lt;Path&gt;" class="s0" d="m63.7 61.8l-2.6-5c0.4 1.2 2.5 5.7 1.6 4.1 2.6 5.1 2.2 4 1 0.9z"/>
			<path id="&lt;Path&gt;" class="s0" d="m66.5 66.4l-1.3-2.6c0.1 0.5 0.4 1.2 1.3 2.6z"/>
			<path id="&lt;Path&gt;" class="s0" d="m62.3 58.3l2.9 5.5c-0.3-0.8-0.1-0.9-1.3-2.5 0.4 0.4-0.3-0.7-1.6-3z"/>
			<path id="&lt;Path&gt;" class="s0" d="m60.9 55.1c-1.1-2.9-2.8-6.5-0.2-1.6-2.3-4.8-3.6-6.8-3.5-6.3 0.1 0.4 1.5 3.1 3.7 7.9z"/>
			<path id="&lt;Path&gt;" class="s0" d="m52.9 28.4c0 0 0.4 0.1 0.8 0.2 0.5 0.2 1.1 0.6 1.4 1.2 0.8 1 0.9 2.2 0.9 2.1 0 0 0 0.2 0.1 0.5 0.2 0.3 0.5 0.6 0.7 0.9 0.6 0.8 1.1 1.5 1.1 1.5-0.3-0.3-0.7-1-1.1-1.7-0.2-0.4-0.5-0.6-0.5-1-0.1-0.3-0.2-0.9-0.4-1.3-0.4-1-1.1-1.9-1.9-2.2-0.7-0.3-1.2-0.2-1.1-0.2z"/>
			<path id="&lt;Path&gt;" class="s0" d="m71.4 68c-0.3-0.2 0.6 1.8 0.6 2.3 0 0 0.6 0.8 1.2 1.7 0.5 0.8 1.1 1.7 1.1 1.7-1-1.9-2.9-5.4-2.9-5.7z"/>
			<path id="&lt;Path&gt;" class="s0" d="m72 70.3c0 0-0.8-1.3-1.6-2.6-0.8-1.3-1.6-2.7-1.6-2.7 2.6 4.9 3.3 5.6 3.2 5.3z"/>
			<path id="&lt;Path&gt;" class="s0" d="m67.6 67l-4.8-9 5.7 10.7z"/>
			<path id="&lt;Path&gt;" class="s0" d="m60.4 47.1l1.9 3-3.4-5.3z"/>
			<path id="&lt;Path&gt;" class="s0" d="m53 33.3c1.5 2.1-1.1-3.4 0.3-1.1-2-3.7-3.8-6.9-5.4-9.7 1.6 3.1 3.2 6.4 5.1 10.8z"/>
			<path id="&lt;Path&gt;" class="s0" d="m45.2 17.6c0.9 1.6 1.7 3.2 2.7 4.9-0.9-1.6-1.7-3.3-2.7-4.9z"/>
			<path id="&lt;Path&gt;" class="s0" d="m64 55.7c-0.2-0.5-0.4-1.4-1.9-4.5l0.7 2.3c0.4 0.7 0.8 1.4 1.2 2.2z"/>
			<path id="&lt;Path&gt;" class="s0" d="m62.9 53.6l-0.1-0.1c-1.2-2.3-2.1-4-2.4-4.7 0.3 0.6 1 2.1 2.5 4.8z"/>
			<path id="&lt;Path&gt;" class="s0" d="m64.2 56.2c-0.1-0.2-0.1-0.3-0.2-0.5 0 0.2 0.1 0.4 0.2 0.5z"/>
			<path id="&lt;Path&gt;" class="s0" d="m76.8 79c-2.3-2.8-6.4-9.1-2.9-2.7 1.7 2-0.5-1.6 2.9 2.7z"/>
			<path id="&lt;Path&gt;" class="s0" d="m65.2 59.2l3 5.8c0-0.1-0.4-1.3 0.5 0.3 0 0-0.9-1.6-1.8-3.1-0.8-1.5-1.7-3-1.7-3z"/>
			<path id="&lt;Path&gt;" class="s0" d="m63.5 56.4l1.7 2.8-1.1-2.2z"/>
			<path id="&lt;Path&gt;" class="s0" d="m49.7 28c-1.4-2.5-2.7-5.2-4.3-8.4 1.6 3.4 3.2 6.9 4.8 10.2 0.4 0.4 1.3 1.8-0.5-1.8z"/>
			<path id="&lt;Path&gt;" class="s0" d="m56 40.5c-0.1-0.2-0.2-0.4-0.3-0.6 0.1 0.4 0.2 0.7 0.3 0.6z"/>
			<path id="&lt;Path&gt;" class="s0" d="m48 41q0-0.3-0.1-0.6 0 0-0.1-0.1z"/>
			<path id="&lt;Path&gt;" class="s0" d="m50.5 30.4c1.2 2.6 2 4 2.9 5.4q-1.5-2.8-3.2-6c-0.1-0.2-0.2-0.2 0.3 0.6z"/>
			<path id="&lt;Path&gt;" class="s0" d="m38.8 19.6c-0.4-1.3-0.9-2.9-1.2-4.6l4.7-1.9q0.1 0.1 0.2 0.4-0.1-0.2-0.2-0.4l-4.8 1.9c0.3 1.6 1 4.2 1.3 4.6z"/>
			<path id="&lt;Path&gt;" class="s0" d="m55.3 39q0.1 0.2 0.2 0.4c-0.3-0.9-0.3-0.8-0.2-0.4z"/>
			<path id="&lt;Path&gt;" class="s0" d="m55.3 39c-0.7-1.2-1.3-2.2-1.9-3.2 0.8 1.5 1.6 2.9 2.3 4.1-0.2-0.3-0.3-0.6-0.4-0.9z"/>
			<path id="&lt;Path&gt;" class="s0" d="m54.4 49.7c-0.5-0.3-3.6-7.1-5.6-13.3-2.6-5.7-2.3-1.4-0.9 4 0.2 0.1 0.4 0.1 3 6.1-0.6-2.2-4.9-13.7-2.5-8.7 3.4 7.9 2.5 6.6 3.8 10.6-0.8-3.5 4.7 10 4.8 7.9 0 0-0.2-0.4-0.5-1.1-0.3-0.6-0.7-1.5-1.1-2.3-0.7-1.8-1.5-3.5-1.5-3.5 0-0.2 1.2 2.3 0.5 0.3z"/>
			<path id="&lt;Path&gt;" class="s0" d="m43.3 29l-1.1-2.5c0.6 1.4 1.1 2.7 1.5 4 0.5 1.3 1 2.8 1.6 4.7 1.8 4.1 2.3 4.9 2.5 5.1 0 0-1.2-3-2.4-6.1q-0.5-1.2-0.9-2.3-0.4-1-0.8-1.9c-0.5-1.1-0.8-1.9-0.8-1.9z"/>
			<path id="&lt;Path&gt;" class="s0" d="m42.1 13.2q0 0 0 0l-4.3 1.7c0.5 1.1 1.3 3.2 1.9 4.4 0.7 1.3 1.1 1.8 0.6-0.2-0.8-2.1-1.2-3.5-1.5-4.4l2.4-1c1.4 2.2 1.5 1.9 3.1 4.9-1.4-2.9-2.1-4.1-2.3-4.5-0.2-0.3 0.1 0.2 0.5 0.7 0.4 0.6 0.8 1.3 0.9 1.3 0.1 0-0.2-0.6-1.3-2.7 1.4 2.2 2.4 4.2 3.3 6.2-0.9-2.1-1.9-4.2-2.9-6.1q0.1 0.1 0.2 0.2v0.1c0.2 0.5 0.3 0.7 0 0.1 0 0-0.1-0.2-0.2-0.2-0.1-0.1-0.2-0.3-0.4-0.5q0 0 0 0l-4.3 1.7c0.8 3.2 0.3 1.4-0.1 0l4.5-1.8q0.2 0.3 0.3 0.6c0.1 0 0.1 0.1 0.2 0.1q0 0 0-0.1l-0.4-0.6-4.7 1.9c1.1 4.2 2.9 7.9 4.6 11.5-0.5-1.2-1.1-2.6-1.9-4.4-0.7-1.8-1.7-4.1-2.5-7.2l4.3-1.7q0 0 0 0z"/>
			<path id="&lt;Path&gt;" class="s0" d="m69.6 71c-0.2-0.4-0.1-0.4-0.1-0.4-0.5-0.7-0.7-0.9 0.1 0.4z"/>
			<path id="&lt;Path&gt;" class="s0" d="m67.3 66.3c0.5 0.8 1 1.4 2.4 4 1.2 2.3-0.2 0.1-0.2 0.3 1 1.5 3.5 5.3 0.8 0.3l-0.5-0.7c-2.5-4.5-5-10.6-4.5-9.9 0.3 1.5 0.7 2.8 2 6z"/>
			<path id="&lt;Path&gt;" class="s0" d="m54.2 39.7c0 0-1.3-2.3-2.5-4.7-1.3-2.3-2.5-4.6-2.5-4.6l2.1 4.9v-0.3c2.7 5.4 2.4 4.1 2.9 4.7z"/>
			<path id="&lt;Path&gt;" class="s0" d="m48.3 42.2l-1-1.2 2.9 5.5z"/>
			<path id="&lt;Path&gt;" class="s0" d="m53.4 55l-0.5-0.4c0 0 0.3 0.9 0.7 1.7 0.5 0.8 0.9 1.6 0.9 1.6 0 0-0.3-0.7-0.6-1.5-0.2-0.7-0.5-1.4-0.5-1.4z"/>
			<path id="&lt;Path&gt;" class="s0" d="m64 123.2l1.5 2.6c-0.7-1.2-1.2-2.1-1.5-2.6z"/>
			<path id="&lt;Path&gt;" class="s0" d="m53.5 103.3l-0.5-0.4c0.6 0.8 0.9 1.2 0.5 0.4z"/>
			<path id="&lt;Path&gt;" class="s0" d="m41.6 54.7c-2-4.1-3.9-8.8-4-8.1l0.3 1.4c1.6 2.7 2.7 4.8 3.7 6.7z"/>
			<path id="&lt;Path&gt;" class="s0" d="m60.1 112.1q0.3 0.6 0.5 1.2 1.1 1.3 2 2.4c-0.8-1.1-1.6-2.3-2.5-3.6z"/>
			<path id="&lt;Path&gt;" class="s0" d="m56.9 110.3l-2.8-5.3c0.6 1.2 1.5 2.9 2.8 5.3z"/>
			<path id="&lt;Path&gt;" class="s0" d="m16.6 64.5l-2.1-3c2.7 5.1 1.7 2.7 2.1 3z"/>
			<path id="&lt;Path&gt;" class="s0" d="m36.7 16.6c-0.4-1.3-0.8-2.5-1.1-3.5l-4.6 2c0.9 1.9 1.5 3.6 2 5.2-0.6-2.1-1.2-3.9-1.8-5.3l4.2-1.8c0.4 1.6 0.9 2.9 1.3 3.4z"/>
			<path id="&lt;Path&gt;" class="s0" d="m55.8 117.5c0.9 1.7 1.4 2.4 1.4 2.3-0.9-1.7-1.5-2.7-1.4-2.3z"/>
			<path id="&lt;Path&gt;" class="s0" d="m36.5 31q-0.3-1-0.6-2c-1-2.7-1.8-5.5-2.9-8.7 0.5 1.6 0.9 3.4 1.5 5.2 0.6 1.9 1.2 3.8 2 5.5z"/>
			<path id="&lt;Path&gt;" class="s0" d="m27.2 107.2c-0.1-0.3-0.3-0.7-0.5-0.9-0.1-0.1 0.2 0.3 0.5 0.9z"/>
			<path id="&lt;Path&gt;" class="s0" d="m29 136.4c-0.5-1.1-1.4-3.1-2.1-4.9 0.3 0.9 0.9 2.4 2.1 4.9z"/>
			<path id="&lt;Path&gt;" class="s0" d="m74.8 93c1.3 2.5 0.3 0.3 0 0z"/>
			<path id="&lt;Path&gt;" class="s0" d="m71.1 92.2c0.3 0.6 0.6 1 0.7 1q-0.3-0.3-0.7-1z"/>
			<path id="&lt;Path&gt;" class="s0" d="m49.2 57.4q0.1 0.1 0.1 0.2c-0.2-0.8-0.2-0.7-0.1-0.2z"/>
			<path id="&lt;Path&gt;" class="s0" d="m76.6 96.8q-0.7-1.4-1.6-3.2c0.3 0.5 0.7 1.5 1.6 3.2z"/>
			<path id="&lt;Path&gt;" class="s0" d="m76.5 96.2q0.5 0.9 1.1 1.7l-4.8 2.6-0.1-0.4c-0.1-0.1-0.1-0.1 0.1 0.4l4.8-2.6c-0.1-0.3-0.5-0.8-1.1-1.7z"/>
			<path id="&lt;Path&gt;" class="s0" d="m72.9 89.3c0.8 1.5 1.5 2.9 2.1 4.3q-0.3-0.8-0.2-0.6c-0.4-0.8-0.9-1.9-1.9-3.7z"/>
			<path id="&lt;Path&gt;" class="s0" d="m33.6 102.2q-0.1-0.2-0.3-0.5c-1.7-2.4-1-1.3 0.3 0.5z"/>
			<path id="&lt;Path&gt;" class="s0" d="m25.3 21.6c0-0.1-0.1-0.2-0.1-0.3 0 0.1 0.1 0.3 0.1 0.4z"/>
			<path id="&lt;Path&gt;" class="s0" d="m29.4 31.3c-2.1-4-2.9-6.4-4.1-9.6l0.1 3.7z"/>
			<path id="&lt;Compound Path&gt;" fill-rule="evenodd" class="s0" d="m54.3 122.8l3.9 6.3c-5.7-6.9-9.1-12.4-5.6-6.3 0.4 0 1.7 1.5 3.3 3.6 0.9 1.1 1.8 2.4 2.8 3.8q0.8 1 1.6 2.1c0.5 0.7 0.9 1.4 1.4 2.1 2 2.8 3.9 6 5.8 8.2 0.7 0.9 1.4 1.7 2 2.2-0.4-1.4-1.1-3.2-2.5-5q-0.2-0.2-0.4-0.5-0.1-0.2-0.3-0.5-0.4-0.7-0.9-1.4-0.6-1.1-1.4-2.4c0.7 1.2 1.6 2.8 2.2 4q0.1 0.1 0.2 0.3c0 0.1 0 0.1 0 0.1 0.1 0.1 0.1 0.1 0.2 0.2q0.3 0.5 0.3 0.6 0.1 0.2-0.2-0.1-0.1-0.1-0.3-0.4-0.2-0.1-0.3-0.2c-2-3.5-4.6-8.1-5.7-10.4-7.5-11.9 0.7 2.1-2.7-2.8-2-4.4-3.8-5.8-7.2-11l0.4-0.3c-8-13.8-3.1-3.1-10.2-15.6l3.7 4.8-4-6.3 1.3 1c-4.5-6.8-5.7-9.1-9.5-16.1 0.6 1.8-1.3-0.5-4.7-6.7-1.9-4 1.1 1.3-2.2-4.9q-1-1.5-2.2-3.3l-0.3-1.5c-0.9-1.3-3-5.4-5.7-10.8-1-2.1-2.1-4.5-3.2-7q-0.1-0.1-0.1-0.2 0 0 0 0c-1.7-3.6-3.5-7.5-5.4-11.2l-3.7 1.5c0.8 1.9 1.6 3.7 2.5 5.4-0.1-0.1-0.4-0.4-1-1.5 1.1 2 2.2 4.1 3.3 6.2 1.1 2.1 2.1 4.3 3.2 6.5 2 4.1 3.9 8.2 5.8 12q0.2 0.3 0.4 0.7c4.4 7.9 8.3 14.9 14.2 23.4-2.4-4.5 3.8 5.1 1.4 0.4 1.4 2.4 3.1 5.5 4.1 7.5 0.5 0.7 1.5 2.1 3 4.3 6.1 8.7 1.7 3.7 3.6 6.8 3.3 4.2 9 11.3 14.2 19.5-2-2.5-3.3-4.7-5.1-7.1zm15.2 22q0 0.3 0.1 0.4l-4.5 2.5c-2.2-2.8-2.9-4.3-4.2-6.4-0.7-1-1.4-2.3-2.6-3.9-1.1-1.6-2.7-3.5-4.9-6.2 1.9 2.7 0.9 1.8 0.6 1.7-0.2 0-0.2 0.1 0.5 1.1 0.3 0.5 0.8 1.1 1.5 2 0.7 1 1.5 2.2 2.7 3.7-1.2-1.5-2.2-2.9-3.3-4.3q-1.6-2.2-3.2-4.5c-1.9-2.8-3.9-5.5-6.2-8.3q0.4 0.6 0.7 1l-0.3-0.5c8.4 14.3 6.4 12.1 14.3 24.9l-0.6-1.4c2.3 3.7 4.8 7.6 6.9 12.1l-3.7 1.9c-2.1-3.5-4.6-6.9-7.2-10.4-2.6-3.6-5.1-7.3-7.6-10.9-4.9-7.3-9.7-14.6-14.2-21.2l3.6 5.7c-0.8-1.2-2.5-3.8-4.5-6.7-2.2-3.3-4.6-7.2-6.2-9.9 0.7 1 2 2.8 2.6 3.9 0.1-0.3-0.9-2.6-3.5-6.8l-1.3-1.4-0.8-1.8c-4-6.4 0.7 2.1-3.3-4.2-0.7-2.2-5.1-9-9.4-16.1q0.8 2.1 1.6 4.2c2.5 6.7 5.4 13.3 8.5 22.5l-0.4-0.7c2.3 6.8 3.7 10.4 5.2 13.3 0.3 1.4-1.6-3.4-0.8-0.7 2.8 5.7 5 11.6 7 17 2 5.3 3.9 10.1 5.9 13.3-1.3-0.4 5.4 14.7 1.6 8.9l2.4 4.6c-1.3-1.3-7.4-14.5-9.2-17 0 0-1.6-3.8-3.1-7.7-1.5-3.8-2.9-7.7-2.9-7.7 0 0.6-1.3-1.8-0.4 0.7-1.6-3.8-2.9-7.1-1.2-2q-3-8.4-5.9-16.8-1.4-4.2-2.8-8.5-1.4-4.1-3.1-8.2c-2.1-5.5-4.5-11-6.6-16.7-2-5.2-3.1-10.9-5.7-15.3 0.1 0.1 0.2 0.4 0.3 0.6 0.1 0.4 0.2 0.8 0.2 0.8-0.5-0.7-1-1.4-1.3-1.8l0.4-0.3q0-0.1-0.1-0.2l2.6-1.9q0.1 0 0.2 0.1l0.4-0.3q1 1.8 1.8 3.4c1.4 2.4 2.6 4.8 3.9 7.1q0.7 1.3 1.4 2.5l1.5 2.5q1.5 2.5 3.1 5c4 6.7 8.2 13.3 12.2 19.8 1.4 2.2 0.8 0.8 0.4-0.1 3.3 6.3 3.9 5.6 6 8.8 0 0 1.2 2.3 2.4 4.6 1.2 2.3 2.5 4.6 2.5 4.6 2.5 3.4 0.9 0.5 1.2 0.7q0.7 1.1 1.4 2.1c-1.6-3.1-2.6-5.1-1.5-4.4-4-6.9-3.8-5.4-2.8-3.4-4.6-8-8.4-14.5-12.5-20.9-0.9-1.9-4.5-8.1-8.3-15.7-1.9-3.8-4-7.8-5.7-11.9-1.7-4-3.3-7.8-4.8-10.8l0.7-0.4q-0.1 0-0.1-0.1l1.2-0.5q0 0 0 0.1l0.7-0.3c1.3 3.2 2.4 5.8 3 7.4-1.2-3.4-0.7-2.4 0.5-0.1-1-2.3-2.5-5.5-3.5-7.5l-2.7 1.3c0.8 1.9 0.9 2.7-0.5 0.4v-0.2l3.7-1.8c1.4 3.5 2.9 6.9 4.8 11.1q0.5 0.8 1 1.6c0 0-0.5-1.1-0.9-2.3-0.5-1.1-0.9-2.2-0.9-2.2 0 0 1.4 2.6 2.9 5.3 1.4 2.6 3 5.2 3 5.2 0.7 1.1 1.1 1.8 1.3 2.2 0.3 0.4 0.3 0.6 0.3 0.6 1.1 1.8-0.5-0.3 2.1 4.3 4.2 7.2 4.7 7.4 7.3 11.2l-0.6-1.2 3 4.8c2.1 3.6-8.1-12.2-1.4-0.5 0.3 0.1 5.1 6.5 6.7 9.8-3.7-5.9-3.5-4.9-2.3-2.7 0 0 1.2 2.1 2.5 4.1 1.3 2.1 2.6 4.1 2.6 4.1l-1.1-3.1c2.7 4.2 5.5 8.3 8.4 12.4q-1-1.8-2.1-3.5c0.4 0-2.3-4.5-4.9-8.8-1-1.7-1.9-3.4-2.7-4.8-0.2-0.3-0.6-0.8-1.2-1.7l-2.9-5.8q-0.7-1-1.3-1.9c0.4 0.9 1.2 2.3 2.4 4.4 0 0-1.5-2.5-3.1-4.9-1.6-2.5-3.1-5-3.1-5-2.4-2.4-6.2-9.3-10.3-17.5q-0.2-0.6-0.5-1.1c-0.9-1.4-1.3-2.1-1.6-2.5-2.4-4.5-4.8-9.1-7.2-13.6-2.3-4.4-4.5-8.5-6.1-12l1.1-0.5q0-0.1-0.1-0.2l3.7-1.5q0.1 0.1 0.1 0.2l1.1-0.5q0.1 0.3 0.2 0.5c-0.4-0.8-0.1 0.2 0.3 1.5 0.4 1.3 1 2.9 1.1 3.4 0 0 0.4 0.7 1 1.8 0.7 1.2 1.5 2.7 2.4 4.2 0.8 1.5 1.7 3.1 2.3 4.2 0.6 1.2 1 2 1 2-0.7-1.4-1.3-2.4-1.7-3.1-0.5-0.8-0.8-1.3-1.1-1.6-0.5-0.7-0.8-0.8-1.2-1.2q0 0.1 0.1 0.2c2 3.8 3 5.5 4.4 8-1-1.5-1.9-3.1-1.1-0.9 0 0 1.8 3.1 3.6 6.3 1.9 3.2 3.7 6.3 3.7 6.3-0.4-0.8-1.1-2.3-1.7-3.5 1.5 2.9 4.7 8.6 7 13.2q0.7 1 1.4 2c2.2 3.4 4.5 7.2 8.7 14-0.2-0.1-1.3-1.6 0 0.6 2.4 3 4.7 6.1 10.8 15.2l-0.4-0.2c0 0 2.5 3.5 4.9 7 0.7 0.9 1.3 1.8 1.9 2.6q-0.1-0.2-0.3-0.7c-3.9-5.5-8.7-17-12.1-23.4-2.4-4.2-1.7-2.2-1-0.3-0.9-2.1-2.2-4.6-3.6-7.2-1.4-2.6-2.8-5.3-4.2-7.8-2.9-5.1-5.4-9.4-6-11-3.1-6.2-0.7-2.6-1.2-4.4-4.8-9.1-0.5 2.2-6.2-10.4 0.8 1.4 2.2 4 1.7 3-1.1-2.4-2.3-5.9-3.6-9.3q-0.5-1.3-1-2.5l-0.1-0.1c-0.1-0.3-0.1-0.4-0.1-0.4-1-2.4-2-4.5-3-6.1l1.4 3.2c-1.3-2.2-2.6-4.6-3.7-7.2q-0.1-0.2-0.2-0.4c-1.2-2.2-2.4-4.2-3.6-6.1l1.4-0.6q-0.1-0.3-0.1-0.5l1.4-0.6q0.1 0.2 0.2 0.4l1.5-0.6c0.6 2.3 1.4 4.6 2.5 7.1v-0.7c1 2.1 1.8 3.6 2.4 4.9q0 0 0 0c0.3 0.2 0-0.5-0.3-1.3-0.3-0.7-0.6-1.5-0.5-1.6 0.1 0 0.5 0.8 1.8 3.1 0.2 0.8 0.3 1.6 0.9 3q0.2 0.6 0.6 1.4 0.3 0.6 0.5 1c0.8 1.3 1.5 2.5 3.8 6.9 0.6 0.9 1.4 2.1 2.9 4.9h-0.4c3 5.5 4.3 9 6.6 11.5l-1.2-2.2c0.8 1.4 1.5 2.6 2.1 3.6-0.5-1.2-0.9-2.2-1.1-2.6q1 2.1 1.9 4c2 3.8 3.1 5.8 6.3 11.7 0.6 1 2.9 4.8 3.4 6 0.3 0 2.2 3.3 4.6 7.3-2.7-6-5.5-12.1-8-17.9-5-11.6-9.2-21.7-10.5-25.9-0.4-1.9-2.3-5.8-3.7-9.2q-0.9-1.6-2-3.8l2.2 4.8c-0.9-1.4-2.6-4.9-4.1-7.8-1.4-3-2.5-5.4-2.4-4.8-0.8-2.4-1.2-4.8-0.1-3.2-0.6-0.9-1.7-2.8-2.7-4.8-1.3-2.3-2.5-4.7-2.9-5.4 0.8 1.4 1.2 0 1.6 0.7-1.8-4.5-3.9-7.5-3.2-4.8-1-3.5-1.4-5.4-1.7-6.9l-0.7-3.2 2.8 1.5c0.8 0.3 1.3 0.9 1.7 1.6q0.2 0.5 0.4 1 0 0.2 0 0.4 0.1 0.2 0.1 0.3 0 0.2 0.1 0.4 0.1 0.4 0.4 1c0.3 0.8 0.6 1.9 1.1 3.3 1.2 2.6 0.9-0.7 0-2.7 1.6 3 2.6 5.4 3.4 7.4 0.8 2 1.4 3.7 1.9 5.1-2.8-6.3-3.3-5.3-3.6-4.2 0.6 1.3 1.2 2.7 1.9 4.2 2 4.1 4 8.1 4.7 9.1 1 3.9 5 9.3 5.7 12.2 0.7 1.1 1.6 2.6 2.5 4.1-0.6-1.8-0.5-2.6 1 0.6 0.2 0.2 0.3 0.5 0.5 0.7l0.3 1.6c1.9 3.1 3.8 6.3 5 8.4-0.5-1-1.1-2.1-1.6-3.3 0.7 1.4 1.3 2.7 2 3.9 0.2 0.4 0.5 0.9 0.6 1.1q-0.2-0.3-0.4-0.6c1 1.9 2.1 4 3.9 6.6 1.5 3 3.3 6.1 5.3 9.2-1.9-4.4-3.3-8.1-3.8-10.3-1.4-2.1-5.3-13-7.4-18.4l-0.2-1.5c-2.5-7.1-4.1-11.4-5.7-15.7-1.4-5.1-2.5-10-4.6-14.1l0.9-0.4q-0.1-0.1-0.1-0.2l2.2-0.9q0 0.1 0.1 0.2l0.8-0.4c1.6 4.4 3.5 8.6 5.5 12.6 1.9 4.2 4 8.1 5.8 12.1v0.1l6.1 12c-1.8-3 1.4 2.3 3.1 6 1 1.8 2.2 4.4 3.5 7 1.3 2.5 2.7 5.2 3.7 7.5l4 7.6c-4.7-8.3-0.2 0.9-0.3 1.6l2.8 4.6c0.9 2.1-1.9-2.9-0.1 0.7 0.8 1.3 2.1 3.7 3.6 6.3 1.3 2.6 2.7 5.3 4 6.9l-0.6 0.4c-1.5-2.1-2.7-4.4-4-6.5 1.3 2.8 0.4 1.2-0.6-0.7-1.1-1.8-2.3-3.7-1.5-1.6 0 0 0.6 1 1.2 2.1 0.6 1.1 1.1 2.2 1.1 2.2 0.6 1.5-0.4-0.2-1.6-2.2q0.1 0.1 0.2 0.3-0.1-0.2-0.2-0.3c-0.4-0.8-0.9-1.5-1.3-2.2q-0.4-0.9-0.9-1.8c1.9 4.4 3.7 8.4 5.4 11.9l-0.6 0.3q-0.7-1.3-1.2-2c0.1 0.4 0.4 1.2 0.8 2.3l-0.2 0.1c-0.1-0.2-0.2-0.3-0.2-0.4-2.6-6.3-1.8-3.9-1.9-3.6-2.3-7-4.4-10.8-5.9-16.1 0.5 2.1-0.9-1.1-2.5-4.8-1.9-3.6-3.8-7.4-5.7-11-4.3-8.6-7.9-16.2-8.9-18.8 1.2 2.9 3.9 8 5.2 10.4l-2.9-6.6c1.3 2.7 2.3 5.1 3.5 7.8 1.2 2.7 2.6 5.7 4.7 9.5q0-0.2 0-0.2c-1.2-3.9-1.2-2.6-2-5.9q1.3 3.3 2.8 6.4c0.6 0.6 1.3 1.2-0.3-2.5q-0.7-1.4-1.3-2.6-0.5-1.2-1-2.2c-0.7-1.4-1.2-2.6-1.8-3.7-1.1-2.1-2-3.6-3-5.3-1.9-3.3-4.1-6.9-8.4-15.9-0.9-1.6 2.4 3.5-2.4-6-1.5-2.9-2.8-5.7-4-8.1 0.2 1.2 0.9 3.9 1 4.7 2 6 3.6 10.8 5.3 15.6 1.7 4.9 3.5 9.8 6 16.2 0.2 0.7 0.6 2.2 0.3 1.9 2.7 6.1 7.5 14.4 6.9 12 3.1 7.1 3 7.7 5.9 13.7-3.8-10 0.8 1.9 1.9 2.6 2.9 6.2 0.7 2.3 1.9 5.2 0.5 1 1.9 3.4 2.2 3.5 1.2 3.6-3.8-5-3.4-3 1.7 2.9 3.4 5.7 5 8.5-1.1-1.8-2.6-4.3-3.2-4.9 3.1 4.8 6 9.7 8.8 14.1q0 0 0 0c0-0.9-0.2-1.9-0.6-3.2 0.6 0.3 2.5 6 4 8.5q0.1 0.2 0.2 0.4 1.1 1.7 2.1 3.2l-2.9 2.1c-0.9-1.1-1.7-2.2-2.3-3.2l-0.1 0.8c-1.4-2.2-2.6-4.3-3.7-6.2-1-1.5-2.1-3-3.1-4.8l2.1 2.9q-0.5-1-1-1.9c-2-3-4.7-6.9-5.4-7.7 0-0.3 1.5 1.3 2.3 1.9q-1.1-2-2-4l-0.7-0.2q-0.7-1.5-1.6-3.4c-5.3-7.9-10-13.9-10.1-13.1 0 0 2.8 4.2 5.5 8.3 2.8 4.1 5.6 8.3 5.6 8.3-0.1 0.9-8-11.7-8.1-10.7 0 0-2.4-3.9-4.7-7.8-2.3-4-4.7-8-4.7-8 1.2 2 5 8 3.9 5.5-4.1-6.8-2.1-3.6-4.5-8.2 3.3 4.8 8.8 11.9 13.2 17.6-1-2.2-2.1-4.5-3.1-6.7-5.9-8.4-11.8-14.9-13.6-17.1-3.4-6.2-1.2-4.7-0.1-3.3-2-3.5-3.6-5.9-4.9-7.9 3.2 7.4 6.7 15.7 9 21.2l-0.8-1.8c-1.3-2.2 3 8.1 5.1 12.1-0.4-0.6-0.8-1.6-1.6-3.4 2.9 8.2 5.8 9.7 8.8 18-3.3-7.3-4.2-8.6-4.4-8.1 3 5.9 9.3 19.7 8.8 16.4 1.6 3.9 3.4 7.2 2.8 7.1 0 0 1.7 3.3 3.6 6.6 1.2 1.6 2.9 4.2 5.6 8.6-1-1.5-2.6-3.9-2.1-2.8 0.5 1.1 2 3.4 2.5 4.1 0.5 1.1-1.5-2.1-1.1-0.8 1.4 2 2.6 3.9 3.8 5.9l-4.1 2.4c-1.9-3.2-3.6-6.5-5.8-10.7l-5.4-9.7-0.6-0.4-0.8-2.7c-1.1-1.5-1.9-2.5-2-2.9-0.1-0.3 0.2 0.1 0.7 0.7-0.9-1.4-1.7-2.6-2.2-3.3 0.1-0.7 1.8 1.4 3.6 3.7-0.6-1.5-1.1-2.6-1.3-2.9q0.4 0.8 0.8 1.7-0.5-0.7-0.9-1.3 0 0.1 0 0.4-0.2-0.4-0.4-0.9c-3.4-4.9-6.6-9.5-5.4-6.7 0.6 1.2 1.8 3.4 2.9 5.5 1.1 2 2.2 4 2.9 5.2-0.8-1.3-1-1.3 0 0.7l4.8 8.2c-1.5-2.5-0.3 0.2 1.6 4 2.7 5.4 4.1 7.4 5.5 9 0.7 0.8 1.3 1.5 2 2.6q0.3 0.3 0.5 0.8 0.1 0 0.1 0.1l0.2 0.2q0.1 0.1 0.3 0.3c0.7 0.8 1.4 1.9 1.9 3.4-0.3-0.8-0.6-1.3-0.9-1.7-0.3-0.4-0.6-0.9-1.1-1.5 0.9 1.2 1.7 2.7 2.1 4.2l-4 2.5-0.8-0.9c-0.3 0.1-1-0.4-1.9-1.4zm-9.7-29.3c0 0-0.3-0.5-0.6-1.2q0.2 0.5 0.6 1.2zm-6.8-12.7v0.1q-0.2-0.5-0.6-1l1.7 3.1q-0.5-0.8-0.7-1.4c-0.3-0.5-0.4-0.8-0.4-0.8zm-0.6-0.9l-2.5-4.8q-0.8-1.1-1.4-2l0.5 0.8c0.2 0.9-2.3-4-0.7-0.7 1 1.7 2.8 4.7 4.1 6.7zm-7.4-12.9c-1.2-3.1 2.1 2.6 4.7 7.5-1.2-3.6-2-5-3.4-7.4-1.4-2.3-3.4-5.6-6.7-12.9l3.6 6.6c-1.2-3.8-3.4-7.9-6-13.6q-0.4-0.6-0.8-1.4c1.7 4.3 4.7 11.5 1.4 5.6-1.1-2.2-2.5-5.1-4.8-9.2 0.4-0.2-1.8-4.2-4.4-9.3h0.3q-0.4-0.7-0.8-1.4l0.2 0.2q-1.1-2.2-1.9-3.7c-0.6-0.9-1.1-1.5-2-3-1-2.1-1.8-3.7-2.3-4.9-0.6-0.9-1.3-2.1-2.5-4.6-0.2-0.3-1-1.4-2.3-4q0-0.1-0.1-0.2v0.4c-0.7-0.4-2-3.2-4-6.9l-1.5 0.7c0.5 2.1 1.2 4.5 2.2 6.7q0.3 0.5 0.6 1c1.4 2.6 3.1 5.4 5 8.6 2.4 4.9 0.1 0.9-0.1 0.9q0.1 0.3 0.2 0.5l3.1 4.6c0.7 1.3 0.3 1 0.1 0.8 2.5 4.1 0.8 0 4.6 6.5 1.6 1.5 6.5 14.1 11.7 21.9 0.9 2.1-0.9-0.8-0.8-0.1 3.3 5.5 4.8 7.9 6.1 9.9 1.1 1.8 2.1 3.3 4.1 6.3zm12.7 18.1l6.3 9.9c0.7 1.2-0.1 0.3-1.3-1.2 0.4 0.7 0.9 1.3 1.2 1.8 1.9 3.7 0.5 2-1.3-0.4q-1-1.9-1.9-3.8 0 0 0 0c1.3 3.1 3.2 7.7 3.9 8 0.4 1.3 1.7 4.2-0.2 1 1.1 2 2.1 3.9 3 5.6l2 3.7c1.5 2.2 3 4.3 4.5 6.5l2.7-1.6c-4.1-5.7-8.1-12.1-12.9-21.3-1.7-3.1-3.1-5.1-5.1-7.7-0.8-1.9-2.3-5 1.5 1.2-1-1.7-4.2-7.2-7.1-12.2q-0.7-1.2-1.4-2.3c2.6 5.6 5.1 11.2 7.3 16.1q0.2 0.2 0.3 0.5c0-0.5 0-0.6 0.1-0.4-0.6-1.4-1.2-2.6-1.6-3.4zm6 8.2c0.6 1 1.2 2.2 1.9 3.6 0.5 0.1 1 0.3 1.8 1.2-1.9-3.5-3.4-6.6-4.2-8.9-0.6 0 0.5 3.2-1.8-0.5q1.2 2.4 2.3 4.6zm9.8 15.8c-2.2-4.1-1.4-3.4-0.7-2.4 0 0-2.1-3.4-4-6.9q-0.1-0.3-0.3-0.5-0.6-0.8-1.1-1.2c1.9 3.3 4 7.1 6.1 11zm-36.9-79.5c-3.3-7.8-6-14.4-6.8-15.1 0.1-0.2 1.6 1.2 2 1.9 0 0-2.7-5.2-5.5-10.3-2.7-5.2-5.6-10.3-5.6-10.3 0.6 0.6 0.7 0 0.9-0.6-0.8-1.8-1.6-3.3-2.1-4.1-1-2.9-1.9-5.8-2.7-8.5l-1.8 1.5c0.4 0.2 0.6 0.4 0.8 1.1l-0.1 0.5q0.1 0.4 0.2 0.9l0.1 0.7c0 0 1.1 1.9 2.2 3.8 1.1 1.9 2.1 3.9 2.1 3.9 1.7 5.2 2.3 7.3-0.1 2.5 5.4 11.7 4 9.6 8.7 19.7l-0.6-0.4q0.5 1.2 1.1 2.5c2 3.8 3.6 6 5.2 8.1 0.8 1.2 1.7 2.4 2.7 3.8q-0.4-0.8-0.7-1.6zm-20.8-39.2q0-0.1 0-0.2 0 0.1 0 0.2zm1.5 3.7q0 0 0.1 0.2 0-0.1-0.1-0.2zm6 11q-0.2-0.3-0.3-0.6c0.2 0.4 0.3 0.6 0.3 0.6zm35.4 58.5l1 2.2 5.3 7.8c-1.4-1.6-3.5-4.3-6-7.4 1.4 2.9 2.7 5.7 3.9 8.1 1.4 2.1 2.9 4.4 4.3 6.7 0.7 1.2 0.4 1.2-0.1 0.8q1.4 2.7 2.9 5.4 0.1 0.3 0.3 0.5c1.1 1.7 1.9 3.1 2.1 3.4l-1.2-1.6q0.5 1 1.1 2c1.9 2.7 3.9 5.1 6 8.4l2.8-2q-1-1.3-1.9-3.1-1.8-2.7-3.7-5.8c0.1 2.3-1.2 2.8-2.7 0.9-0.2-0.5-1.8-4-3.6-7.9-1.7-3.9-3.5-8.1-4-9.7q-0.2-0.6-0.3-0.9c-3.9-6.2-8.1-12.4-11.9-18.4 0.9 1.9 1.8 4 2.7 6.1q0.1 0.2 0.2 0.3 1.4 2 2.8 4.2zm-21.5-64.7c-0.3-0.8-0.7-1.7-1.2-2.7-0.4-1.1-1-2.4-1.9-4.2q0-0.1-0.1-0.2l-0.1 0.1c1.1 2 1.9 3.9 2.6 5.5q-0.2 0-0.5-0.4 0.4 0.9 0.9 1.9c-0.1-0.6-0.1-0.8 0.3 0zm-3.2-7.1l0.3-0.1q0-0.1-0.1-0.2l-1.9 0.8q0 0.2 0 0.3l0.3-0.1q0-0.2-0.1-0.3l1.4-0.6q0.1 0.1 0.1 0.2zm2.1 2.7c-0.2-0.1-0.7-1.3-1.6-2.8h-0.2c1.3 2.3 2.6 6.1 1.8 2.8zm1.2 9.3c-0.1-1.3-2.6-6.4-4.5-11.4l-0.2 0.1c0.6 2.2 0.3 1.5-0.3 0.1h-0.1c1.3 3.2 3.5 8 5.1 11.2zm-4.5-11.4l0.3-0.1c1 1.5 1.7 2.9 2.2 3.7q0.4 0.7 0.7 1-1.4-2.8-2.4-5l0.3-0.1q0-0.1-0.1-0.2l-1.1 0.5q0 0.1 0.1 0.2zm0.2-0.3l0.6-0.2q0 0 0 0.1l-0.5 0.3q-0.1-0.1-0.1-0.2zm43.4 84.7l-2.2 1.2q0 0 0-0.1l2.2-1.2q0 0 0 0.1zm-8.4-12.7l-0.1-1.7c0.2 0.7 2 5.3 3.1 7.6q0 0 0 0c-1.8-3.7-4.7-13.1-7.1-16.5l2.2 6c-2.1-4.2-4.6-9-7-14.2-0.3-0.4-0.7-0.7-0.7-0.5q0.2 0.6 0.4 1.4c-0.6-2.6 1.7 2.9 3.7 7.5q1.2 2.3 2.4 4.6 0 0.1 0 0.2 0-0.1 0-0.2c1.4 2.7 2.7 5.3 3.9 7.7q-0.4-0.9-0.8-1.9zm-0.1-1.7q0-0.1 0-0.1zm-3-4.1q0 0 0 0-0.1-0.3-0.2-0.7 0.1 0.4 0.2 0.7zm12.5 17.8c-0.1-0.2-0.3-0.5-0.5-0.8-0.2-0.4-0.2-0.4 0-0.1-0.1-0.2-0.1-0.2-0.2-0.4 0.1 0.2 0.1 0.3 0.2 0.4 0.2 0.3 0.5 0.6 0.7 0.8zm0 0l-0.4 0.2q0 0 0 0l0.4-0.2q0 0 0 0zm-4.3 2.4q0-0.1 0-0.1l0.4-0.2q0 0 0 0zm0.4-0.2l0.6-0.3q0 0 0 0l-0.6 0.4q0 0 0-0.1zm2.9-1.5q0 0 0 0l0.6-0.4q0 0.1 0 0.1zm-57.3-86.2c0.1-0.2-0.2-1.1 0.4 0.5q-0.2-0.3-0.4-0.5zm0.4 0.5q0 0 0 0 0 0.1 0.1 0.1-0.1 0-0.1-0.1zm37.8 106.8c1.4 2.4 3.6 6.4 5.7 10.1 1.1 1.9 2.1 3.7 3 5.2 0.8 1.5 1.7 2.6 2.3 3.3 0.1 0.7 0.6 1.8 1.3 3.2q0.2 0.3 0.4 0.6c0.1 0.3 0.4 0.5 0.5 0.7q0.4 0.4 0.7 0.9 0.6 0.9 1 2.1l2.9-1.8c-3.6-3.3-7-8.7-10.1-13-3.1-4.1-5.2-7.2-4.7-7.5 0 0-1.4-1.9-3.1-4.3 0.1 0.3 0.1 0.5 0.1 0.5zm-19.3-20.6l-0.5-1.1c-0.6-0.5 0 0.7 1.1 2.8 0.9 1.2 0.1-0.4-0.4-1.4q-0.1-0.2-0.2-0.3zm18.1 31.5q2.4 4 4.9 8.1l1.2 2 0.6 1c0.2 0.3 0.3 0.5 0.5 0.7l0.3 0.4q1.3 1.5 1.7 3.5l3.1-1.7c-2.7-2.9-4.9-6.3-7.4-9.7-2.5-3.4-4.9-6.6-7.4-9.8q-2.7-3.7-5.3-7.3 3.9 6.4 7.8 12.8zm-6.4 5.5q0.1 0.2 0.2 0.6-0.1-0.3-0.2-0.6zm4.6 7.3c2.7 4.6 5.3 8.8 3.4 4.6 3.2 5.9-0.2 0.6 2 5.2 1.4 2.2 2.7 4.5 3.9 7l3.1-1.6c-1.9-3.1-4-6.1-6.2-9.2-2.1-3-4.3-6.2-6.4-9.5-3.9-5.8-7.9-11.8-11.9-17.9 2.3 4.2 5.9 10.5 7.5 14.1-0.5-1.3 2.1 3.2 4.6 7.3zm-44.9-69c-0.6-2-1.1-4-1.9-6.3-0.4-1.2-0.8-2.4-1.4-3.7q-1-1.6-2.2-3.1c0.2 0.6 0.2 0.7-0.2 0.2l-2.1 1.5q0.1 0.1 0.2 0.2c0.8 1.3 2.2 3.7 3.8 6.9 0.8 1.6 1.7 3.4 2.7 5.2 1.1 1.8 2.2 3.6 3.2 5.4q0.1 0 0.1 0c-0.8-2-1.5-4.1-2.2-6.3zm-7.7-10.6c1.3 1.8 1.9 3.1 2.4 4.1 0.5 1 0.8 1.8 1.3 2.8 1.3 1.8 0.6 0.3-0.5-1.9-0.6-1-1.3-2.3-2-3.3-0.6-1-1.2-1.9-1.5-2.3h-0.1q0.2 0.4 0.4 0.7 0-0.1 0-0.1zm-0.3-0.6l0.2-0.2q0 0 0 0l-0.3 0.1q0 0 0.1 0.1zm2.2-1.8q0 0.1 0.1 0.1l0.2-0.2q-0.1 0-0.1 0zm0 0l-2.1 1.5q0.1 0 0.1 0l2-1.5q0 0 0 0zm34.6 62.7l-0.2-0.4q0.1 0.2 0.2 0.4zm2.1-11.1c2.4 3.5-3.5-7.1-0.5-2.4-5.5-9-5.7-9.3-6.8-10.7 1.5 2.3 3.1 4.9 4.9 7.8-0.7-0.7-2.8-3.6-4.2-5.6 1.7 3.1 3.7 5.6 5.6 8.8-0.7-0.2-2.9-3.4-5.4-7.5-2.6-4-5.5-8.8-7.7-12 1.6 3.5 8.2 12.4 5.4 9.5 1.9 2.1 3.7 5 5.8 8.4 1.5 2.3 3.1 4.8 5 7.3q-1-1.8-2.1-3.6zm-7.3-13.1c-1.4-2.2-2.7-4.2-4-6l0.4 0.8c2.1 3.3 3 4.4 3.6 5.2zm-4.6-7.5c-2-3.1-2.4-3.2-6.4-10.5 3.5 5.9-2-4.9 2 1.6-3.8-7.7-6.7-13.4-9-18.1q-0.3-0.6-0.6-1.3c-0.7-1.1-1.3-2.3-1.8-3.2 0.9 2.1 1.4 3.4 0.8 2.1 0.5 1.6-0.1 0.6-1.2-1.5-1-2.1-2.5-5.2-3.8-7.6l-1.2 0.5q0.4 0.8 0.6 1.5c1.2 2.5 1.9 4.8 3.2 8 1.3 3.1 3.2 7.1 6.7 12.9-0.5-0.8-0.7-1-1.3-2 2.5 4.6 5.6 8.6 8.5 14.3 2.4 2.8 4.3 7.2 5.5 7.7l-6.8-11c1.7 2.7 3.5 5.2 5.4 8.1zm-10.7-15.6q0.1 0.2 0.2 0.4-0.1-0.2-0.2-0.4zm24.7 39.8c1.2 2.1 2.4 4 3.5 5.7l3.1 3.2c-1.6-2.2-3.7-4.6-4.6-5.8l0.7 0.3q-1.4-1.7-2.7-3.4zm3.1 5.2q0.3 0.4 0.6 0.7-0.1-0.1-0.2-0.2zm18.5 13q-0.4-0.6-0.7-1.1 0.4 0.6 0.7 1.1zm-38.6-63.7c0.8 1.2 1.6 2.4 2.3 3.5-1.2-2.4-2.3-3.9-3.3-5.3q0.6 1 1 1.8zm3.5 6.1c0.4 0.3 1.4 1.8 1.8 2.2q-0.4-0.8-0.8-1.6c-0.7-1-1.4-2.1-2.2-3.2q0.6 1.1 1.2 2.6zm47.5 21.2q0 0 0 0l-2.2 1.3q-0.1-0.1-0.1-0.1zm-38.1 0.9c1.8 3 1.5 2.1 0.4-0.1-0.9-1.2-0.7-0.7-0.4 0.1zm-0.3-25.9c1 1.9 3.2 5.5 3.7 7-1.6-1.9-2.2-3.7-3.7-7zm29.7 52.9c-0.9-1.2-2.1-3.4-3.4-5.9q1.7 2.6 3.4 5.9zm-8.1-61.8q0 0 0.1 0.1c-1.4-2.9-2.2-4.4-0.1-0.1zm4.5 9c0.5 0.8 0.6 0.7 0.4 0.3-0.4-0.5-1.4-2.5-2.6-4.7 0.2 0.6 0.8 1.8 2.2 4.4zm-42.8 1.9l-0.9-1.7c-0.7-1-1.4-2 0.9 1.7z"/>
			<path id="&lt;Path&gt;" class="s0" d="m57.3 110.6c-0.2-0.6-0.3-0.8-0.3-1-0.5-0.6-0.5-0.6 0.3 1z"/>
			<path id="&lt;Path&gt;" class="s0" d="m17 65.1l-0.1-0.3q-0.2-0.2-0.3-0.3z"/>
			<path id="&lt;Path&gt;" class="s0" d="m66.8 92.6c0.8 1.9 1.2 2.9 1.5 3.7 0.1 0-0.2-0.9-1.5-3.7z"/>
			<path id="&lt;Path&gt;" class="s0" d="m63 78.3l2.6 5.8c-1.2-2.9-1.6-3.9-2.1-5.3 0 0.1 0.3 1.3-0.5-0.5z"/>
			<path id="&lt;Path&gt;" class="s0" d="m44.7 26.4c-0.4-0.8-0.8-1.8-1.2-2.6l-0.1 0.3c1.6 3.6 2.9 6 1.3 2.3z"/>
			<path id="&lt;Path&gt;" class="s0" d="m62.1 72.3c0.2-0.6-1.5-4.2-3.3-8.3q0.1 0.4 0.3 0.7c-1-0.9 1 3.3 3 7.6z"/>
			<path id="&lt;Path&gt;" class="s0" d="m58.4 63.1c-0.6-1.3-1.2-2.5-1.7-3.8-0.4-0.4 0.6 1.6 1.7 3.8z"/>
			<path id="&lt;Path&gt;" class="s0" d="m70 84.5c0.9 1.9 1.1 1 1.5 2.1 1.6 1.8-7-12.1-1.5-2.1z"/>
			<path id="&lt;Path&gt;" class="s0" d="m62 68.5l0.1 1.6 1.4 2.1z"/>
			<path id="&lt;Path&gt;" class="s0" d="m74.9 98.1q0.4 0.6 0.7 1.1l-0.6 0.3-2.2-5.3c0 0.1-0.4-0.7-0.9-1.7 1.1 2.7 2.4 5.6 3 7.1l0.8-0.5c-0.5-0.7-0.8-1.1-0.8-1z"/>
			<path id="&lt;Path&gt;" class="s0" d="m71.9 92.5c-0.9-2.1-1.8-4.1-2.3-5.2 0.5 1.1 1.5 3.6 2.3 5.2z"/>
			<path id="&lt;Path&gt;" class="s0" d="m65.9 77.3l0.8 2 1.9 4.6z"/>
			<path id="&lt;Path&gt;" class="s0" d="m40.6 30.2c0 0-0.2-0.4-0.5-1.1-0.3-0.6-0.8-1.5-1.2-2.4-0.8-1.7-1.6-3.5-1.6-3.5-0.5-0.6 0.2 1.4 1.5 3.9 0.9 1.7 2.2 4.2 1.8 3.1z"/>
			<path id="&lt;Path&gt;" class="s0" d="m49.6 51.8c-0.8-1.9-0.8-2.1-1.2-3.2h-0.6z"/>
			<path id="&lt;Path&gt;" class="s0" d="m39.6 31.6c-0.5-0.6-5.2-10-1-1.1 0.5 0.6 4 7.5 1 1.1z"/>
			<path id="&lt;Path&gt;" class="s0" d="m70.5 104.1l-0.9-1.8-0.7 0.7z"/>
			<path id="&lt;Path&gt;" class="s0" d="m33.6 51.1c4.3 8.1 1.6 1.6 5.5 9 1.2 1.7-3.2-6-1.9-4.2-3-4.7-4.3-7.3-3.6-4.8z"/>
			<path id="&lt;Path&gt;" class="s0" d="m37.2 55.9q0.7 1.1 1.5 2.4c-0.8-1.4-1.3-2-1.5-2.4z"/>
			<path id="&lt;Path&gt;" class="s0" d="m37.7 156.3l2.5 5.3-1.5-3.5z"/>
			<path id="&lt;Path&gt;" class="s0" d="m43.5 166.1c0 0 0 0.4 0 0.8 0.1 0.4 0.1 0.7 0.1 0.7 0 0 0.5 0.7 0.8 1.2q0.3 0.4 0.4 0.6c0 0.2 0 0.3 0 0.3q0-0.2 0-0.3 0-0.2 0-0.3c-0.1-0.3-0.2-0.6-0.4-1-0.3-0.7-0.7-1.5-0.9-2z"/>
			<path id="&lt;Path&gt;" class="s0" d="m31.6 58.4l-0.4-0.3c0.3 0.9 0.9 2.1 2.1 4.6z"/>
			<path id="&lt;Path&gt;" class="s0" d="m68 129.4l-0.6-1.2 0.6 2.5z"/>
			<path id="&lt;Path&gt;" class="s0" d="m41.6 106.6c1.5 2.3 3.4 4.9 5 7.2-3.5-4.9-4.8-8.3-5-7.2z"/>
		</g>
	</g>
</svg>