<svg version="1.2" xmlns="http://www.w3.org/2000/svg" viewBox="0 0 121 600" width="121" height="600">
	<title>Vector Smart Object-ai</title>
	<style>
		.s0 { fill: #232323 } 
	</style>
	<g id="Objects">
		<g id="&lt;Group&gt;">
			<path id="&lt;Path&gt;" class="s0" d="m71.5-56c0.1 0.1 0.1 0.1 0.2 0.2 0 0 0-0.1 0 0q0 0 0 0.2-0.1 0.2 0 0.6c0 0.5 0.1 0.9 0.2 1.3q0.3 1.1 0.5 1.5c0.2 0.4 0.2-0.1 0.3 0.7-0.1-1.1-0.3-1.7-0.4-2.3q-0.2-0.9-0.2-1.3-0.1-0.5 0-0.6 0 0 0 0-0.2-0.1-0.3-0.1l-0.2-0.1q-0.1-0.1-0.2-0.1l-3.6 0.9c0.1 0 0.2 0.1 0.3 0.2q0.1 0.1 0.2 0.2c0.1 0.1 0.1 0 0.1-0.1-0.1-0.1-0.1-0.2-0.2-0.4q-0.1-0.1-0.2-0.2l3.4-0.6q0.1 0 0.1 0z"/>
			<path id="&lt;Path&gt;" class="s0" d="m99.1 65.2l-0.7-2.1c0 0 1.3 4.5 2.7 8.9 0.7 2.3 1.4 4.5 1.8 6.1 0.5 1.7 0.8 2.8 0.8 2.8 0 0-0.3-1-0.7-2.4-0.4-1.5-0.9-3.5-1.5-5.4-1.2-3.9-2.4-7.9-2.4-7.9z"/>
			<path id="&lt;Path&gt;" class="s0" d="m71 6.3c1 2.7 2.2 6.6 3.6 11.3 0.7 2.3 1.5 4.7 2.4 7.4q1.4 3.9 2.9 8.1c2 5.7 4.1 11.5 6.4 17.2 2.2 5.6 4.6 11 6.8 15.7l1.3 3.2c0 0 1.2 2.1 2.4 4.1 1.2 2 2.5 4 2.5 4-3.1-5.6-6.1-11.7-9-18-2.8-6.3-5.4-12.9-7.7-19.3-2.4-6.5-4.5-12.7-6.5-18.5-1.9-5.6-3.3-11-5.1-15.2z"/>
			<path id="&lt;Path&gt;" class="s0" d="m82.5 63.3c-0.5-1.9 0.6 1.3 0.7 1.6 0.2 0.4-0.8-2.2-5.1-15.7 0.4 1.4 0.5 1.8 0.7 2.6 0.8 2.4 1.8 5.8 3.7 11.5z"/>
			<path id="&lt;Path&gt;" class="s0" d="m78.8 51.8c-3.7-11.9 2.2 7.8 0 0z"/>
			<path id="&lt;Path&gt;" class="s0" d="m97 106.1c0 0-0.3-0.9-0.8-2.3-0.2-0.7-0.5-1.5-0.8-2.3q-0.2-0.3-0.3-0.7l-0.1-0.2q-0.1-0.1-0.1-0.3l-0.1-0.4q-0.3-0.7-0.5-1.4c-1.3-3.9-2.6-7.8-2.6-7.8 0.5 1.7 1.8 6 2.7 9.2q0.1 0.4 0.2 0.7 0.2 0.4 0.3 0.7 0.2 0.5 0.3 0.9 0.3 0.9 0.5 1.4c0.1 0.6 0.1 0.5-0.4-0.7 1.4 3.7 2 6.4 2.3 8.1 0.4 1.8 0.5 2.6 0.6 2.6 0 0 0-0.8-0.2-2.1-0.2-1.3-0.5-3.2-1-5.4z"/>
			<path id="&lt;Path&gt;" class="s0" d="m99.3 119.2c0 0 0.2-0.3 0.3-0.7 0.2-0.4 0.2-0.9 0-1.6q0-0.2-0.1-0.4-0.1-0.3-0.3-0.6c-0.1-0.2 0-0.4-0.1-0.6q0-0.5-0.1-0.9 0-0.3 0-0.6c-0.2-0.7-0.2-1.2-0.2-1.2q0 0.5 0.1 1.2 0 0.4 0.1 0.8 0 0.2 0 0.4c0.1 0.3 0.1 0.6 0.1 0.8q0.2 0.4 0.3 0.7 0.1 0.2 0.1 0.4 0.1 0.3 0.2 0.7c0 0.5 0 1-0.4 1.6z"/>
			<path id="&lt;Path&gt;" class="s0" d="m93.8 95.7c0 0 0.3 1.1 0.8 2.7q0.2 0.6 0.5 1.3l0.1 0.3v0.3c0.1 0.1 0.1 0.2 0.2 0.3q0.1 0.3 0.2 0.7c0.4 0.9 0.8 1.9 1.1 2.9 0.7 2.1 1.2 4.2 1.6 5.7 0.3 1.6 0.5 2.7 0.5 2.7-0.1-1.2-0.2-1.8-0.3-2.8-0.2-1-0.6-2.4-1.5-4.9 0.3 0.6 0.1 0.2-0.4-1.3q-0.4-1.2-1.2-3c-0.2-0.6-0.3-0.8-0.4-1.2q-0.2-0.6-0.4-1.1-0.4-1.2-0.8-2.6z"/>
			<path id="&lt;Path&gt;" class="s0" d="m90.7 86.1c-2.7-8.8-6.5-20-1-4.6-5.1-14.7-7.3-21.1-7.1-19.9 0.1 0.5 0.9 3 2.2 7.1 1.4 4.2 3.4 10 5.9 17.4z"/>
			<path id="&lt;Path&gt;" class="s0" d="m68.4 7.9q-0.3-1.6-0.6-3.3l1.3-0.5c1.4 2.8 2.3 5.6 3.2 8.5 0 0 0.9 2.5 1.7 5 0.9 2.5 1.8 5 1.8 5-1.4-3.5-3.9-13.7-6.5-18.5l-1.6 0.5c0.4 2.2 0.7 3.6 0.7 3.3z"/>
			<path id="&lt;Path&gt;" class="s0" d="m68 43.5c-0.5-0.9 1.3 5.3 1.5 6.6 0 0 1.1 2.8 2.1 5.6 1 2.9 2.1 5.7 2.1 5.7-2-5.9-5.7-17-5.7-17.9z"/>
			<path id="&lt;Path&gt;" class="s0" d="m69.5 50.1l-6-17.1c5.1 15.4 6.2 18.1 6 17.1z"/>
			<path id="&lt;Path&gt;" class="s0" d="m100.1 119q0.6 0.5 1.4 0.9l-2 0.4q0.9-1.1 1-2.3 0-0.6-0.2-1.2 0-0.3-0.2-0.6l-0.2-0.6-0.1-0.6c-0.3-2.4-0.7-4.5-1.2-6.7q-0.8-3.3-2.1-6.4c-0.2-0.5-0.4-1-0.6-1.6-0.2-0.5-0.2-0.6-0.3-0.9l-0.3-0.9-1.1-3.2 1.1 3.2 0.3 0.9c0.1 0.3 0.1 0.4 0.3 0.9 0.2 0.6 0.4 1.1 0.6 1.6q1.2 3.1 2 6.4c0.6 2.2 1 4.3 1.3 6.7v0.6l0.3 0.6q0.1 0.3 0.2 0.6 0.1 0.6 0.1 1.2-0.1 1.1-0.9 2.2l2-0.4c-2-1-3.5-2.5-4.4-4.6 0 0 0.4 1.2 1.2 2.1 0.7 1 1.8 1.7 1.8 1.7z"/>
			<path id="&lt;Path&gt;" class="s0" d="m72.2 79.9l-3.7-9.5 6.5 17.1z"/>
			<path id="&lt;Path&gt;" class="s0" d="m87.7 123.1c-2.9-7 3.1 10 0.2 2.5 2.1 5.9 4.1 11.2 6.1 16.3 2.1 5.2 4.1 9.7 5.5 14-1.4-4.6-3.5-9.3-5.5-14.8-2-5.5-4-11.3-6.3-18z"/>
			<path id="&lt;Path&gt;" class="s0" d="m103.2 156c1.1 1.9 2.3 3.8 3.8 5.8l-5.7 2c-0.3-2.4-0.9-5.1-1.8-7.9 0.8 2.7 1.5 5.3 1.7 7.9l5.8-2q-2-2.8-3.8-5.8z"/>
			<path id="&lt;Path&gt;" class="s0" d="m64.3 54.2c0.3 1.3 0.9 4 4.1 13.6l-1.9-6.9c-0.6-2-1.4-4.4-2.2-6.7z"/>
			<path id="&lt;Path&gt;" class="s0" d="m66.5 60.7v0.2c2.5 7.4 4.2 12.4 5 14.6-0.7-1.9-2.2-6.3-5-14.8z"/>
			<path id="&lt;Path&gt;" class="s0" d="m63.7 52.4c0.2 0.7 0.4 1.1 0.6 1.8-0.2-0.7-0.3-1.1-0.6-1.8z"/>
			<path id="&lt;Path&gt;" class="s0" d="m79 77.8c-2.1-4.9-5.1-12.5-6.6-16.4-1.6-3.9-1.8-4 1.7 6.1 1.5 3.5 1.2 2.4 1.3 2.3 0.1-0.2 0.5 0.6 3.6 8z"/>
			<path id="&lt;Path&gt;" class="s0" d="m61.6 43.8l-2.2-7.2-0.2-0.9-0.1-0.3q-0.1-0.1-0.1-0.2l-0.2-0.4q-0.2-0.2-0.3-0.5-0.3-0.5-0.5-1.1c-0.6-1.5-0.6-3.3-0.1-4.9l1.8-5.1 1.7 5.1 1.3 4c0-0.4-1-3.8 0.8 1.2l-1.8-5.3-2.1-5.8-2 5.8c-0.5 1.7-0.4 3.6 0.2 5.1q0.2 0.6 0.5 1.1 0.1 0.3 0.3 0.5l0.1 0.3 0.1 0.1q0.1 0 0.1 0.2l0.1 0.2 0.3 0.9z"/>
			<path id="&lt;Path&gt;" class="s0" d="m64.6 52.8l-3-9 2.1 6.9z"/>
			<path id="&lt;Path&gt;" class="s0" d="m94.4 140c1.5 3.7 3.1 7.4 4.5 11.3 1.5 4 2.8 8.1 3.1 12.4l4.3-1.5q-0.5-0.7-1-1.5 0.5 0.8 1 1.6l-4.3 1.4c-0.3-4.7-1.8-9.6-3.6-14.4-0.9-2.4-1.9-4.9-2.9-7.3-0.9-2.5-1.7-4.9-2.6-7.3-0.7-1.4-2.5-5.7 1.5 5.3z"/>
			<path id="&lt;Path&gt;" class="s0" d="m80.6 101.5c0.2 0.6 0.5 1.3 0.7 1.8-0.4-1.1-0.7-2-0.7-1.8z"/>
			<path id="&lt;Path&gt;" class="s0" d="m63.9 69.2c0.2 0.5 0.3 1 0.5 1.5 0.1 0.1 0.1 0.2 0.2 0.4z"/>
			<path id="&lt;Path&gt;" class="s0" d="m92.3 133c-2.7-7.8-4.5-12.5-6.2-16.8 2.1 5.8 4.4 11.9 6.8 18.5 0.3 0.7 0.4 0.8-0.6-1.7z"/>
			<path id="&lt;Path&gt;" class="s0" d="m90.7 131c1.7 3.9 3.8 8.3 6 12.9-1.8-3.8-5.3-11.6-6-12.9z"/>
			<path id="&lt;Path&gt;" class="s0" d="m82.1 105.9c-0.1-0.3-0.3-0.7-0.4-1.1 0.8 2.6 0.7 2.2 0.4 1.1z"/>
			<path id="&lt;Path&gt;" class="s0" d="m82.1 105.9c1.5 4 2.8 7.1 4 10.3-1.8-4.8-3.4-9.1-4.8-12.9 0.3 0.9 0.6 1.9 0.8 2.6z"/>
			<path id="&lt;Path&gt;" class="s0" d="m56.5 58.5c-0.3-0.4-1.5-3.7-2.7-8.6h0.1c3.2 7.7 7.8 19.7 11.9 30.7 3.5 8.6 4.5 9.9 3.9 7.2-0.6-2.7-2.7-9.4-5.3-17.1-0.4-0.4-0.5-0.4-7.6-18 1.1 3.1 4.8 13 7.4 20.2 2.7 7.3 4.3 11.8 1.2 4.5-8.3-21.1-7.5-19.9-10.5-27.9l-2.2 0.7c0.2 0.8 0.4 1.8 0.7 3-0.9-5.2 0.8 2.8 3.8 10.9 2.9 8.1 6.2 16.7 5.7 14 0 0-0.5-1.3-1.2-3.2-0.7-2-1.6-4.6-2.5-7.2-1-2.6-1.9-5.2-2.5-7.2-0.6-1.9-1-3.2-1-3.2-0.1-0.5 2.5 7.1 0.8 1.2z"/>
			<path id="&lt;Path&gt;" class="s0" d="m77.9 104.2l3.2 7.1c-3.6-8.1-5.9-14-10-25-5-12-6-14.5-6.5-15.2 0 0 3.4 8.9 7 17.8 1.8 4.5 3.7 8.9 5.1 12.2 1.4 3.3 2.3 5.5 2.3 5.5z"/>
			<path id="&lt;Path&gt;" class="s0" d="m95.9 143c-3.1-5.3-11.2-22.1-6.7-11.6 4.9 10.4 6.8 13.9 8.1 16.5 0.7 1.2 1.3 2.2 2 3.7 0.8 1.4 1.8 3.3 3.5 6.2-2.2-4-3.7-6.9-4.7-9-1-2.1-1.5-3.2-1.8-3.7-0.4-1.1 0.3 0.4 1.2 2.1 0.9 1.8 2 3.8 2.1 3.9 0.1 0-0.1-0.4-0.7-1.6-0.5-1.2-1.5-3.2-2.9-6.2 3.3 6.5 6 12.4 9.3 17.4-3.5-5.5-6-11.3-8.6-16.8 0.1 0.3 0.2 0.5 0.3 0.8l0.1 0.2v-0.1c0.6 1.5 0.8 2 0.1 0.3-0.1-0.1-0.3-0.5-0.4-0.7-0.1-0.2-0.5-0.7-0.9-1.4-4.6-9.6-0.6-1.6 0.9 1.4 0.1 0.1 0.2 0.4 0.3 0.4q0 0-0.1-0.1c0 0-1-2.1-2.5-5.2-1.6-3.1-3.6-7.3-5.6-11.4-4-8.4-7.8-16.8-7.8-16.8 3.1 7.2 7.2 16.1 14.8 31.7z"/>
			<path id="&lt;Path&gt;" class="s0" d="m66.6 49.2c-0.3-1.1-0.3-1-0.3-1.1-0.8-2.3-1.1-3.1 0.3 1.1z"/>
			<path id="&lt;Path&gt;" class="s0" d="m62 34.7c0.9 2.5 1.8 4.6 4.6 12.9 2.3 7.2-0.3 0-0.3 0.5 1.8 4.9 6.3 17.3 1.1 1.6l-0.8-2.4c-2.1-6.2-4.2-13.1-5.9-18.7l-1-3-1 3c-0.4 1.1-0.5 2.3-0.3 3.3 0.2 1.1 0.6 2 1.1 2.8 0 0.1 0.1 0.2 0.2 0.3q0 0.3 0.1 0.4 0.1 0.6 0.2 1.1 0.3 1 0.5 1.8c0.6 2.1 0.8 3.1 0.6 2.4-0.3-1.6-0.6-3.1-1.1-4.9q0-0.3-0.1-0.6l-0.1-0.3-0.1-0.2c-0.2-0.4-0.5-1-0.7-1.6-0.5-1.3-0.6-2.9 0-4.4l0.8-2.1 0.5 2.1c0.3 1.1 0.9 3.3 1.7 6z"/>
			<path id="&lt;Path&gt;" class="s0" d="m83.3 105.3l10.7 29-5-14.9 0.1 0.8c-5.9-16.5-4.9-12.9-5.8-14.9z"/>
			<path id="&lt;Path&gt;" class="s0" d="m62.8 65.8l1.9 3.7-7-16.4z"/>
			<path id="&lt;Path&gt;" class="s0" d="m57.8 71.9l-0.9-1.3c0 0 0.9 2.5 1.8 5 1 2.4 1.9 4.9 1.9 4.9z"/>
			<path id="&lt;Path&gt;" class="s0" d="m63.6 365.1c0 0-1.2-2-2.4-3.9-1.1-2-2.3-3.9-2.3-3.9 2.2 3.7 3.6 6 4.7 7.8z"/>
			<path id="&lt;Path&gt;" class="s0" d="m100.6 408.2q0 0-0.1 0 0 0 0 0-0.1-0.2-0.2-0.3c-0.2-0.3-0.4-0.7-0.4-0.7q0.2 0.5 0.5 0.9c0.1 0.2 0 0.1 0.1 0.1q0 0.1 0 0.2c0.1 0 0.1 0 0.2 0.1q0.3 0.3 0.4 0.4 0.3 0.4 0.4 0.4 0 0.1-0.3-0.3-0.1-0.2-0.3-0.5-0.1 0-0.2-0.1 0-0.1-0.1-0.1 0 0 0-0.1z"/>
			<path id="&lt;Path&gt;" class="s0" d="m112 316.5q-1.7-0.9-2.7-2.6-0.5-0.8-0.8-1.7l-0.3-0.7c-0.1-0.3-0.4-0.7-0.4-0.8q-0.3-0.6-0.6-1.1c-1.7-2.8-3.2-5.4-4.5-7.6-2.5-4.4-4.1-7.3-3.9-6.5l1.7 3.7c2.4 3.9 4.5 7.4 6.5 10.5q0.3 0.6 0.7 1.1c0.1 0.3 0.4 0.6 0.5 1l0.1 0.3q0.1 0.1 0.1 0.3 0.4 1 1 1.7c0.7 1.1 1.6 1.9 2.6 2.4z"/>
			<path id="&lt;Path&gt;" class="s0" d="m84.7 332.8q1 1.6 1.9 3.3c1.9 2.6 3.6 5.1 5.2 7.3-2.2-3.2-4.6-6.8-7.1-10.6z"/>
			<path id="&lt;Path&gt;" class="s0" d="m78.3 325.7c0 0-2.1-3.8-4.2-7.6-2.1-3.9-4.2-7.7-4.2-7.7 1.8 3.5 4.5 8.4 8.4 15.3z"/>
			<path id="&lt;Path&gt;" class="s0" d="m49.1 370l5 9.3c-7.2-14.8-4.2-8.2-5-9.3z"/>
			<path id="&lt;Path&gt;" class="s0" d="m103.6 226.1q-2.5-3.2-4.4-6.4-1-1.6-1.9-3.1c-0.6-1.1-1.2-2.2-1.8-3.2-2.3-4-4.4-7.7-6.3-11.2 1.6 3 3.1 5.9 4.6 8.5q1.1 2 2.1 3.8c0.7 1.2 1.3 2.4 1.9 3.4 2.4 4.2 4.6 7 5.8 8.2z"/>
			<path id="&lt;Path&gt;" class="s0" d="m81.2 384.5c-3.1-4.6-4.4-6.5-4.4-6.3 3.1 4.7 5 7.3 4.4 6.3z"/>
			<path id="&lt;Path&gt;" class="s0" d="m74.8 172.8c0.8 1.9 1.6 3.7 2.4 5.5 3.5 7.5 7.3 15 12 23.9-2.3-4.5-4.7-9.3-7.1-14.3-2.5-5-4.9-10-7.3-15.1z"/>
			<path id="&lt;Path&gt;" class="s0" d="m66.6 534.7c0.5 0.8 1 1.8 1.4 2.5 0.2 0.2-0.4-0.9-1.4-2.5z"/>
			<path id="&lt;Path&gt;" class="s0" d="m31.9 526.9c-1.8-3.3-4.7-8.7-7.3-13.8 1.2 2.5 3.3 6.7 7.3 13.8z"/>
			<path id="&lt;Path&gt;" class="s0" d="m88.3 163c3.7 7.7 0.7 1.2 0 0z"/>
			<path id="&lt;Path&gt;" class="s0" d="m99.2 184.4c0.6 1.8 0.9 3.1 1.1 3.3-0.3-0.7-0.6-1.8-1.1-3.3z"/>
			<path id="&lt;Path&gt;" class="s0" d="m58.6 149c0 0.2 0.1 0.4 0.2 0.7-0.7-2.5-0.6-2.1-0.2-0.7z"/>
			<path id="&lt;Path&gt;" class="s0" d="m93.7 174.6c-1.3-2.9-2.9-6.2-4.6-9.8 0.7 1.6 2.1 4.6 4.6 9.8z"/>
			<path id="&lt;Path&gt;" class="s0" d="m93.2 172.9c0.6 1.4 1.2 2.6 1.7 3.7 0.6 1.1 1 2.1 1.5 3.1 0.3 0.4 0.3 0.5-0.1-0.5-0.2-0.5-0.6-1.2-1.1-2.2q-0.4-0.8-0.9-1.8-0.5-1-1.1-2.3z"/>
			<path id="&lt;Path&gt;" class="s0" d="m83.4 152.3c2 4.4 3.9 8.5 5.7 12.5-0.7-1.5-1-2.2-0.8-1.8-1-2.2-2.5-5.4-4.9-10.7z"/>
			<path id="&lt;Path&gt;" class="s0" d="m56.8 461.5c-0.3-0.4-0.6-1-0.9-1.5-2.5-3.6-3.1-4.6-2.8-4 0.4 0.6 1.8 2.8 3.7 5.5z"/>
			<path id="&lt;Path&gt;" class="s0" d="m82 279.4c-0.2-0.4-0.3-0.6-0.4-0.9 0.1 0.3 0.3 0.8 0.4 1.2z"/>
			<path id="&lt;Path&gt;" class="s0" d="m93.3 307.6c-5.5-11.7-8-18.7-11.3-27.9 0 0 0.6 2.4 1.2 4.9 0.6 2.5 1.2 4.9 1.2 4.9 0 0 2.1 4.6 4.4 9.1 2.2 4.6 4.5 9 4.5 9z"/>
			<path id="&lt;Compound Path&gt;" fill-rule="evenodd" class="s0" d="m57.1 360.6c5.2 13.1 10.9 25.4 16.1 36.3 2.6 5.5 5 10.6 7.2 15.2 0.5 1.1 1 2.2 1.6 3.3q0.8 1.6 1.5 3.1 1.4 3.1 2.6 5.8 0.4 0.9 0.6 1.6l0.1 0.1v0.1q0 0 0 0.1 0 0.1 0 0.2c0 0 0.5 0.6 0.4 0.7 0 0.1-0.1 0-0.2-0.1-0.1 0-0.1 0.1 0.2 0.7 0.1 0.3 0.4 0.7 0.5 1.6 0.1 0.4 0.1 0.9 0 1.5-0.1 0.6-0.4 1.1-0.8 1.6l-1.9 2.6-1.6-2.7c-1.3-2.1-3.8-6.1-8.2-13.6-5.5-9.4-7.9-13.7-8.8-15.1-0.9-1.4-0.3 0.1 0.7 2 0.3 0.6 0.6 1.3 0.9 2q0.1 0 0.1 0.1c3.3 6.2 6.6 12.3 9.5 18.1q1.1 2.2 2.2 4.3 0.5 1.1 1 2.2c0.5 1 1.1 2.4 1.7 3.7 1.1 2.5 2 4.9 2.7 7.2 0.7 2.2 1.3 4.2 1.9 6.2q-1.1 0.4-1.7 0.7 0.4-0.3 0.4-0.3c-0.1 0-0.2 0-0.4 0.1q-0.1 0-0.2 0.1h-0.1-0.1q-0.1 0-0.3 0-0.5 0-0.9-0.1c-0.6-0.1-1.1-0.3-1.6-0.5-0.5-0.2-1.1-0.5-1.8-0.9-0.7-0.5-1.7-1.1-2.9-2.4-1.3-1.3-2.8-3.3-4-5.1-1.2-1.7-2.2-3.1-2.7-4-3.8-5.5-7.4-11.2-10.9-16.8-3.6-5.7-7.1-11.4-10.6-17.1 9.4 15.4 9.4 14.4 11.4 17-6.6-10.8-9.9-15.8-14.3-23.2 2.8 4.5 5.7 9 2.4 3.1 0 0-5.6-9.1-11-18.2-1.5-2.5-2.9-4.9-4.2-7.2 2.3 5.4 4.4 9.9 6.5 14.3 3.2 7 6.7 14 12.2 24.6l-2.5-3.8 10 19.6-8.6-15.7c8.7 17.8 10.1 20.3 11.4 22.3 0.6 1 1.2 1.9 2.5 4.5 0.7 1.3 1.6 3 2.8 5.4q0.9 1.8 2 4.1 0.1 0.3 0.3 0.6c0 0 0.1 0.1 0.1 0.2 0.3 0.3 0.7 0.9 1 1.5 0.5 1.2 0.9 2.6 0.8 4.1l-0.5 6.2-3.5-5.1q-2-2.9-4.5-6.7l0.3-0.4c-5-7.5-8.3-12.6-11.3-17.3-2.9-4.7-5.5-9-8.7-15.3-8.5-14.5 12.4 23.2-4-5.5 2.2 4.4 4.5 8.7 6.8 13.1q3.8 7.2 7.9 14.5l-7.4-12.6c3.8 7.1 8.2 15 10.3 18.8l-1.2-1.4q4.5 8 8.6 15.5 0.5 1 1 1.9 0.5 0.9 1.1 1.8 1 1.9 2 3.7 0.9 1.9 1.8 3.7 0.4 1 0.9 1.9 0.3 0.7 0.6 1.5l0.1 0.1 0.1 0.1q0.3 0.3 0.5 0.6 0.4 0.7 0.6 1.5c0.3 1 0.3 2.1 0 3l-1 3.8-2.5-3c-7.2-8.9-12.8-17.3-17.7-23.9 3.5 4.6 0.6 0.3-3.7-6.4-4.2-6.8-9.7-16.1-12.3-20.9 4.6 7.6 10.6 18 16.8 27.6 3.1 4.8 6.3 9.4 9.3 13.4 2.9 4.1 5.7 7.5 7.8 10l2.2 2.6 0.9-3.2c0.2-1.1 0.2-2.3-0.2-3.2q-0.3-0.7-0.7-1.2c-0.1-0.2-0.2-0.4-0.3-0.5q-0.1-0.1-0.2-0.2-0.1-0.1-0.2-0.3-0.1-0.2-0.2-0.4-0.2-0.5-0.4-0.8-0.4-0.7-0.6-0.9 0.6 1.3 1.2 2.6c0 0.1 0.1 0.1 0.2 0.3q0.2 0.2 0.4 0.5 0.3 0.6 0.5 1.3 0.1 0.3 0.2 0.7 0.1 0.1 0.2 0.3h-0.2q0.1 0.9-0.1 1.7l-0.7 2.4-1.6-1.9c-5-6.2-9.6-12.1-13.9-18.8 2.1 3 4.7 6.5 7 9.6 2.4 3 4.5 5.6 5.4 6.6-5.4-6.9-9.8-13.4-13.7-19.3-3.9-6-7.3-11.4-10.5-16.5-3.1-5.1-6-9.9-8.7-14.6-2.8-4.6-5.4-9.1-8-13.7 0 0 1.1 2 2.8 5.1 1.7 3 4.1 7.1 6.4 11.2 4.6 8.1 9.5 16.1 9.5 16.1-2.3-2.2-8.7-14.5-14.3-23.3-4.4-8.3-8.4-15.6-12.1-22.7q-2.5-4.8-4.9-9.6c0.9 2.7 1.8 5.2 2.6 7.5 2.6 7.1 4.7 12.6 7.5 18.8 1.5 3.6 3.5 8.1 5.6 12.5 2.2 4.4 4.4 8.8 6.3 12.3 3.9 7.2 6.3 11.4 3.9 6.5 3.2 5.7-3.3-6.2-8.6-17.2-2.6-5.5-4.9-10.8-5.9-13.5-1.1-2.6-0.9-2.5 1.7 2.7 3.4 8.8 7.6 17.5 13.1 27.7 2.7 5.1 5.7 10.5 9.1 16.6 1.6 3 3.5 6.1 5.4 9.5 1.9 3.4 3.8 7 5.2 11.4l-3.4 1.8c-5.1-6.2-9.7-13.5-14.8-21.5 12.6 18.4-6.6-11.2 4.6 5.2-6.7-10.1-10-15.4-12.5-19.3-1.7-2.6-3-4.5-4.5-6.9q0.3 0.7 0.6 1.3l-0.7-1.4q0 0 0 0c5 10.9 8.7 18.5 11.7 24.4 2.9 6 5.1 10.3 7.3 14.4 2.1 4.2 4.2 8.1 7.4 13.4 1.5 2.7 3.3 5.6 5.3 9.2q1.6 2.6 3.4 5.6 0.2 0.4 0.4 0.8c0.2 0.3 0.2 0.3 0.4 0.6q0.6 0.8 1.2 1.6 1.1 1.8 1.9 3.9c0 0-0.3-1.2-0.8-2.2-0.5-1.1-1.1-2.2-1.1-2.2q1.4 2.2 2.4 4.8l-3.2 1.7c-10.1-12.7-20.1-26.8-30.1-41.6q-2.2-3.2-4.4-6.5c4.7 10.4 9.6 20.4 14.8 29.8 0 0-2.4-4.6-4.8-9.3-1.3-2.6-2.5-5.2-3.4-7 2 4.1 5.8 11.4 10.3 19.5 5.6 10 12.4 21.2 17 29.4-1.9-3.2-5.3-8.7-7-11.7 0 0.3 0.9 2 2.6 5.2 1.8 3.3 4.4 8 8.1 14.1 0 0 0.8 1.1 1.6 2.2 0.8 1.1 1.7 2.2 1.7 2.2 0 0 0.3 0.5 0.7 1.2 1.5 1.9 2.9 3.9 4.1 6.1q0.4 0.7 0.7 1l-0.2 0.2q0.1 0.2 0.2 0.4l-2.6 1.4q-0.1-0.1-0.2-0.3l-0.2 0.1q-0.3-0.7-0.6-1.2-0.6-0.8-1.2-1.7c0.1 0.3 0.2 0.5 0.3 0.8 0.3 0.5 0.4 0.9-0.1 0.1-0.5-0.7-1.6-2.5-4.8-6.4q-0.5-0.8-1.3-2-0.8-1.2-1.8-2.8c-1.3-2-3-4.5-4.9-7.3-3.9-5.5-8.7-12.5-13.9-19.9-4.3-6.3-8.9-13.1-13.4-19.7 8.5 17.2 15.9 31 23.3 43.6 4.7 8.1 9.3 15.8 14.1 23.6 2.5 3.9 5 7.9 7.7 11.9q1.9 3 3.9 6.1l0.2 0.4 0.4 0.4q0.3 0.4 0.6 0.8 0.6 0.9 1 1.8 1 1.9 1.5 4l1 4.2-3.5-2.5c-3.3-2.4-6.3-5.7-9.2-9.2-1.4-1.8-2.8-3.6-4.4-5.5q-2.3-2.8-4.8-5.8l1.6 1.8c-6.5-8.3-11.3-14.8-15.3-20.1-3.6-4.9-6.5-8.6-9.3-12q0.5 0.8 0.9 1.5c5.3 9.1 10.4 17.2 14.8 23.6-1.2-1 4.5 8.8 9.1 16.8 4.5 8 7.9 14.2 2.2 5.8 0 0 2.1 3.2 4.1 6.4 2 3.2 4.2 6.4 4.2 6.4-0.9-1-2.9-4-5.5-8-2.6-4.1-5.9-9.2-9.2-14.4-6.6-10.4-13.5-21.2-16.1-24.8-6.9-11.3-13.5-22.9-19.6-34.7-1.2-1.8-2.4-3.6-3.3-5.9l0.3-0.1q0 0 0 0l-0.3 0.1q-0.1-0.1-0.1-0.2l3-1.3q0.1 0.1 0.1 0.2l-0.3 0.1q0 0 0 0 0 0-0.1 0l-2.3 1q0 0 0 0.1l2.4-1.1q0 0 0 0l0.3-0.1q0.6 1.2 1.2 2.4c0.2 0.2 0.4 0.3 0.2 0-0.1-0.3-0.6-1-1.1-2.5 0.9 2.3 2.7 4.6 3.9 6.6 1.3 2 2.4 3.5 3 4.4 0.6 0.8 0.7 1 0.2 0.1-0.4-0.7-1.3-2.2-2.8-4.5 3.7 5.9 7.7 11.5 11.8 17.1q3.4 4.6 6.8 9.2 3.3 4.6 6.7 9.2c4.4 6.2 9 12.2 13.8 18.1l3.6 4.5 3.6 4.4-3.1-4.8c-3.1-4.8-6.2-9.6-9.2-14.5q-9.1-14.6-17.6-29.5c-10.8-19.2-20.7-38.9-30.2-58.6q-0.6-1-1.2-2l0.2-0.1q-0.1-0.2-0.1-0.3l2.9-1.6q0.1 0.1 0.1 0.2l0.2-0.1q0.4 0.7 0.7 1.4c4.5 6.9 8.6 13.8 13.3 20.4q5.5 8.1 11 16.1c-3.4-6.6-6.5-13.1-6.5-13.1-5.8-10.9-1.7-2.2-2.3-2.9-5-10-9.5-20.1-13.8-30.1q-1.6-3.8-3.2-7.5-1.3-3-2.4-6.1-1-1.7-1.9-3.4c-1-2-2.2-4-3.2-6.1-1-2.2-1.9-4.5-2.3-7.1l4-1.4c3.2 5.7 5.4 11.8 7.7 17.5q1.4 2.6 2.8 5.1c4.1 7 8.5 13.7 12.8 20.3 4.7 6.9 9.3 13.7 13.8 20.2-2.5-4.5-4.7-8.5-6-10.9-1.3-2.4-1.8-3.3-1-1.5-4.1-8.8-11.5-23.8-16.9-36.2-5.4-12-9.5-21.4-8.1-19.6q-0.8-1.4-1.4-2.5c-1.5-2.5-2.3-3.9-3.2-5.3-0.8-1.4-1.6-2.9-3.1-5.8-0.7-1.4-1.6-3.2-2.7-5.4-1.1-2.3-2.5-5.1-3.8-8.8l3.5-2c0.7 0.8 1.3 1.7 1.7 2.7q0.4 0.8 0.7 1.7c0 0.2 0 0.2 0.1 0.4q0.2 0.4 0.4 0.8 1.3 2.9 3 6.5c-6.9-14.5 7.4 17.7 2.1 6.6q0.7 1.4 1.3 2.8 0.9 1.7 1.8 3.4c4.1 7.5 8.4 14.6 12.8 21.7 1.4 2.6 4.9 8.5 9.8 16.2 2.1 3.4 4.6 7.2 7.2 11.1q-0.3-0.4-0.6-0.9c-1.2-2.2-2.3-4.3-3.4-6.4-4.6-8.4-9-16.8-12.8-24.7-3.9-7.9-7.1-15.3-9.8-21.5-2.2-5.3-4-9.8-5.2-13.1 2.1 6 1.9 5.5 0.3 1.8-1.7-4.1-4.9-11.9-7.6-19.4 0 0 1 3.5 2.2 6.9 1.1 3.4 2.3 6.8 2.3 6.8q-2.7-6.8-5-13.7l-2.3-6.9-0.2-0.6q-0.1-0.1-0.1-0.2l-0.3-0.4q-0.5-0.9-0.9-2.1c-0.5-1.5-0.4-3.3 0-4.8l1.5-4.6 2.4 4.1q1.8 3.1 3.3 6.2c1.6 3.3 2.5 5.4 3.1 6.7q0.4 1 0.6 1.4 0.2 0.4 0.2 0.4c1.2 2.7 1 2.4 1.2 3.2 0.3 0.7 1 2.6 4.4 9.4 5.5 10.9 8.6 16.4 11.1 20.7 2.5 4.3 4.5 7.4 7.9 13.1l-1.7-3.3c0 0 2 3.6 4.1 7.2 2 3.5 4.1 7 4.1 7 3.1 5.2-2.5-3.8-6.2-10.1-1.9-3.1-3.4-5.5-3.2-4.9 0.2 0.5 2.1 4.1 7 12.6 0.2 0.2 3.4 5.3 7.3 11.3 2.4 3.8 5.2 7.9 7.7 11.5q-3.5-6.4-6.9-12.8-7.5-14.3-15.2-28.6-7.5-14.5-14.5-29.4c-2.3-4.9-4.6-10-6.7-15-1.1-2.4-2.4-4.9-3.5-7.5-0.9-2-1.7-4.1-2-6.4q-0.3-0.5-0.5-0.9l0.4-0.1q-0.1-0.6-0.1-1.3l-0.1-6.1 3.4 5.1q0.4 0.5 0.7 1.1l0.4-0.1q0 0.3 0 0.7c2.1 3.5 3.8 7.1 5.8 10.5q3.3 6.1 6.6 12.2c4.5 8.1 9 16.3 13.6 24.4 6.2 11.1 12.3 22.2 19 33q-0.2-0.4-0.4-0.8c-1.5-3.2-3.2-6.5-4.8-9.7-6.4-13.1-12.4-25.4-10.2-22.1l1.4 3.1c4.7 9.5 4.2 8 1.5 2.2-2.7-5.7-7.5-15.8-11.2-23.7 7.4 16.6-14.7-29 4 10.9 0 0-3.8-7.6-7.5-15.3-3.7-7.7-7.2-15.5-7.2-15.5-2.7-4.8-6.9-14-11.7-25.9l-1.7-4.3 4.4 1c0.5 0.1 1.1 0.5 1.2 0.6 0.2 0.1 0.4 0.3 0.5 0.4q0.2 0.2 0.4 0.4v-0.1q0 0.1 0 0.1 0.1 0.2 0.3 0.3c0.4 0.5 0.7 0.9 1 1.3q0.8 1.3 1.6 2.5 1.6 2.6 3 5.3c2 3.6 4 7.4 6.1 11.3 4.1 7.6 8.7 15.8 13.4 24.1 4.7 8.3 9.6 16.7 14.5 24.8 4.7 7.7 9.2 15.3 13.9 22.1 0.4 0.1 0.6 0.3 0.7 0.4q0.3 0.1 0.4 0.2v0.1l0.1 0.1 0.1 0.1 0.1 0.1 0.1 0.1-0.5 0.3q0 0 0 0l-1.9 1.3c-2.4 2.6-0.1 0.3-0.5 0.8l1.5-1v0.1l0.1 0.1 0.2 0.3 0.3 0.5q0.4 0.5 0.7 1c-1-1.4-1.2-1.8-1.4-1.9q1.3 2 2.8 3.8c0.5 0.6 1 1.2 1.6 1.6 0.1 0.1 0.3 0.2 0.5 0.2q0 0 0.1 0 0-0.1 0-0.1l-0.1-0.1-0.1-0.3-0.3-1.2q-0.7-1.8-1.4-3.5l-0.4-0.9-0.6-1.2-1.7-3.5c-2.2-4.6-4.5-9.2-6.8-13.7-4.6-8.9-9.1-17.5-12.9-25.3-7.7-15.6-13.1-27.7-15.1-31.9l-1.3-3.9c-1.8-4-3.6-7.6-5.1-11q-1.3-2.9-2.2-5.6-0.9-1.4-1.8-2.6l0.8-0.4q-0.1-0.5-0.2-0.9l2.7-1.4q0.3 0.4 0.6 0.8l0.8-0.4q0.3 1.2 0.7 2.5 1.2 1.9 2.3 3.7c1.2 2.1 2.3 4.1 3.4 6.1 2.3 4.1 4.5 8 6.9 12.4 4.7 8.7 10.4 19.1 18.8 35.1-0.3-0.5-3-5.2 0.4 1.4 2.4 4.1 4.8 8.1 7.9 13.5q0.1 0.2 0.1 0.3c-1.6-3.5-3.4-7.5-5.2-11.5-2.6-5.7-5.2-11.4-7.1-15.6-2-4.3-3.2-7.2-3.2-7.2 0.5-0.1-4.1-10.6-10.1-24.6-3-7.1-6.4-15-9.5-23.1q-1.2-3-2.3-6-1.2-3-2.4-5.9c-1.1-2.9-2.1-5.9-2.8-8.9q-0.4-0.6-0.7-1.1 0.3 0.5 0.6 1 0-0.3-0.1-0.6-0.4-0.6-0.7-1.2l0.4-0.2q-0.1-0.4-0.1-0.9l3.2-1.2q0.2 0.3 0.5 0.7l0.4-0.1q0.1 0.6 0.2 1.2c2.6 4.2 4.5 8.3 6 11.6 1.8 3.8 3.2 6.8 3.9 8.7 2.5 4.3 7.9 14.5 14.1 25.2 6.2 10.8 13.1 22 17.6 28.8 0 0.1 0.5 1 1.9 3.3 3.6 5.1 8.3 11.8 13.5 18.9q-1.5-3-2.8-5.8c-2.5-5.1-4.8-9.9-6.8-14-6.3-12.4-3.9-6.9-1.4-1.3-2.9-6.3-6.5-13.6-10.3-21.3-1.9-3.8-3.9-7.8-5.8-11.7-1.9-3.9-3.9-7.8-5.7-11.5-3.7-7.5-7.2-14.6-9.9-20.4-2.6-5.9-4.6-10.4-5.5-12.7-1.9-4.7-3.1-7.4-3.7-9.1-0.6-1.6-0.7-2.1-0.6-2.2 0.1-0.1 1 1.5 0.1-1.2-1.9-4.8-2.8-8-3.4-10l-1.1-4 3.8 1.7c0.4 0.2 0.9 0.4 1.2 0.6q0.4 0.4 0.7 0.6c0.5 0.4 0.7 0.6 0.9 0.8 0.5 0.4 0.7 0.6 0.8 0.7 0.2 0.1 0.1-0.3 0.4 0 0.4 0.3 1.2 1.3 2.9 4.2 0.8 1.4 1.7 3.3 2.9 5.8q0.4 1 0.9 2 0.2 0.5 0.4 0.9 0.2 0.6 0.5 1.1 1.2 2.3 2.6 5.1c-0.6-1.1-1.2-2.3-1.9-3.5q-0.5-1-1-1.9c-0.4-0.6-0.5-0.9-0.8-1.5-1-2.1-1.6-3.4-0.9-1.8q0.5 1.3 1.1 2.7 0.7 1.4 1.5 2.9 1.5 3 3.1 6.4c2.2 4.4 4.5 9.2 6.8 14.1 4.7 9.5 9.6 19 13.6 25.5 0 0-1.2-2.2-2.4-4.4-1.2-2.2-2.3-4.5-2.3-4.5 6.9 12.1 15.3 26.3 22.3 38 3.5 5.9 6.6 11.1 9.1 15 1.2 2 2.3 3.7 3.1 4.9q0.2 0.3 0.3 0.5 0.2 0.2 0.4 0.5c0.1 0.4 0.2 0.6 0.3 0.8q0.4 0.7 0.6 1c0 0-0.1-0.6-0.2-1.2q-0.1-0.1-0.1-0.3-0.4-0.9-0.8-1.7c-1.2-2.5-2.2-4.5-3-6.1-1.7-3.3-2.7-5.1-3.9-7.3-1.1-2.2-2.4-4.8-4.6-9.2-2.2-4.5-5.4-11-10-21.1l0.3 0.5c-9.1-19.3-13.1-30.1-18-39.4l2.8 6.8c-5.2-12.2-8-18.8-10.7-25.6-2.7-6.7-5.3-13.5-10.2-26.1-0.6-1.2-1.8-4.2-2.9-7.6q-0.8-1.5-1.6-3.2l0.4-0.2q0-0.1-0.1-0.2l2.6-1.1q0.1 0.1 0.2 0.3l0.4-0.2c0.4 1.1 1 2.8 1.9 5.3q0.5 1.3 0.8 2c0.7 0.5 6.2 15.1 13.2 30.4 3.5 7.7 7.4 15.6 10.9 22.1 3.6 6.5 6.6 11.8 8.2 14.3-5.5-9.1-6.9-11.5-6.7-10.9 0.2 0.6 2.1 4.1 3.5 6.8 6.7 10.4 11.3 17.6 20.1 31.9q-0.4-0.7-0.8-1.5c-1.3-2.4-2.5-4.8-3.1-6-1.4-3.1 3.6 6.7 2.2 3.1-5.5-10.2-9.9-19.2-14.5-29.6-2.3-5.2-4.7-10.7-7.2-16.9-2.5-6.3-5.2-13.1-8.3-20.9 4.1 9.9 0.9 1.2-0.2-2.4-0.9-1.1-4.8-11.9-7.9-21-3.1-9.1-5.5-16.3-3.9-10.1-2.5-7.5-5.6-15.4-7.5-24.1l3.4-1.3c3.5 6.7 5.6 13.9 8.3 20.9 2.8 7 5.7 14 8.8 21 6.1 14.1 12.6 28 18.8 41 3.6 7.7 7.1 15.1 10.6 22l0.9 1.2c-6.9-14.6-9.2-20.3-11.9-26.8-2.6-6.4-5.6-13.5-12.2-31.2 2.8 7.3 3.8 9.4 3.4 7.8-0.4-1.6-2.2-6.9-4.6-14.4 0 0-2.2-6.1-4.5-12.1-2.2-6.1-4.4-12.2-4.4-12.2l-1-5c-1.7-5-3.4-10.4-5.1-15.9-1.4-4.4-2.7-9-4-13.6q-0.1-0.5-0.3-0.9-0.2-0.5-0.3-0.9c-0.1-0.2-0.2-0.4-0.2-0.6q-0.1-0.2-0.1-0.4-0.1-0.3-0.2-0.5 0.1 0.3 0.2 0.6 0.1 0.1 0.1 0.3c0.1 0.1 0.1 0.2 0.1 0.3 0.1 0.2 0.2 0.3 0.3 0.4q0 0 0 0.1-0.2-0.7-0.4-1.5-0.4-1.3-1-3.4l2.6-1q0.7 1.2 1.3 2.8 0.1 0.4 0.2 0.8 0.1 0.3 0.2 0.7 0.3 0.7 0.5 1.5c0.8 2.1 1.6 4.4 2.5 6.8 0.9 2.5 1.7 5 2.7 7.6 1 2.6 2 5.2 2.9 7.8 3.9 10.2 7.8 19.4 9.2 22.1 1.8 5.5 4.9 12.6 8.1 19.2 3.2 6.6 6.3 12.8 7.9 16.7 1.9 3.3 4.3 7.5 7 12.1-1.2-2.5-2-4.2-1.8-4.2 0.2 0 1.2 1.8 3.7 6.3 0.5 0.8 0.8 1.4 1.3 2.1 0 0 0.4 1 0.9 2.1 0.5 1 1 2 1 2q1.4 2.3 2.9 4.5 0.7 1.1 1.4 2.2 0.3 0.5 0.6 1.1c0.2 0.2 0.4 0.5 0.5 0.8l0.1 0.4q0.1 0.1 0.1 0.2 0.6 1.3 1.4 2.3-0.5-2.5-1.3-4.9c-0.4-1.4-0.9-2.7-1.2-3.6q0.4 1 0.8 2.2c-2-6.1-4.7-12.2-8.5-20.7-6.9-17.2-16-35.8-24.2-55.4-4.1-9.8-8.1-19.7-11.9-29.7q-2.9-7.4-5.5-14.9-1.3-3.7-2.6-7.4-1.2-3.7-2.4-7.3c1 2.9 2.2 6.4 3.3 9.5 1 3 2 5.6 2.5 6.7-1.8-4.8-3.5-9.7-5.2-14.5-1.7-4.8-3.4-9.7-4.3-14.7l4-1.3q1.6 4.1 3.1 8.1 0.8 2 1.5 4 0.8 2 1.5 3.9c1.9 5.2 3.7 10.2 5.5 14.9 3.6 9.5 7.1 17.9 10.2 24.8l-0.2-1.6c5.1 11.4 9.9 21.5 14.6 30.9q0.9 1.7 1.7 3.5c0.6 1.1 1.3 2.3 1.8 3.5q1.6 3.4 3.5 6.6 0.5 0.8 1 1.7c-1.3-4.1-2.9-8.3-4.8-12.7-3.9-9.6-8.2-20-12.2-30.1-4.2-10.1-8.1-19.9-11.2-28.3-3.1-8.4-5.5-15.4-6.8-19.8-1.1-2.7-3.6-9.9-6.4-18.5-1.4-4.2-2.9-8.9-4.3-13.5q-0.5-1.8-1-3.5-0.3-0.9-0.6-1.7l-0.1-0.6-0.4-0.6c-1.3-2.5-1.8-5.5-1.5-8.2l1.4-9.8 3.9 9c1.5 3.4 2.8 6.4 4 9l1.3 4.1c4.1 10.1 7.4 18.3 10.4 25.4 2.9 7.1 5.6 13.2 8.4 19 2.1 5 4.5 9.9 6.8 14.7q3.6 7.1 7.4 14 1.9 3.4 3.9 6.8c0.6 1.1 1.3 2.3 2 3.4q0.9 1.6 1.9 3.2 2.1 3.2 4.4 6c-0.8-2.6-1.9-5.2-3-7.8-2-4.7-4.2-9.3-6.3-14-3.9-9.4-7.6-18.7-11.2-27.8v-0.4c0 0-3.8-9.1-7.5-18.2q-0.7-1.7-1.4-3.4-0.6-1.7-1.2-3.3c-0.9-2.2-1.6-4.2-2.3-5.9-1.3-3.5-2.2-5.8-2.2-5.8 4 9.6-2.9-7.1-6.9-18.2-1.7-4.5-3.8-10.1-6.1-16-2.2-5.9-4.6-12.3-6.3-18.6l5.1-1.9c1.8 3.6 3.2 7.1 4.5 10.3 0 0 0.6 1.5 1.5 3.6 0.9 2.2 2.1 5.1 3.3 8 2.5 5.7 5 11.5 5 11.5-11.2-25.5 0.2 2 0.4 3.6l6.6 14.6c2.4 6-4.3-9.4 0.2 1.5 2.2 4.9 6.6 14.6 11.1 24 2.3 4.7 4.6 9.4 6.7 13.4 1 2 1.9 3.9 2.8 5.5q0.2 0.5 0.5 0.9-0.3-0.9-0.6-1.9-0.8-1.8-1.9-4.2c-0.6-1.2-0.6-1.1-0.2-0.3-0.2-0.4-0.3-0.7-0.5-1 0.3 0.4 0.4 0.6 0.6 1.2 0.5 0.8 1 1.9 1.5 2.7-1.2-3.8-2.5-7.3-3.7-10.7-2.3-6.6-4.5-12.7-6.7-19.6 1.9 6.3-2.1-4.8-6.5-16.8-4.9-13.2-9.8-27.5-7.8-20.5-4.9-16.1-3.8-10.9-6.8-21.3 1.9 5.6 3.9 11.2 5.9 16.7 2 5.5 3.9 11 5.9 16.2 4.1 10.5 7.9 20.5 11.3 29.4l-6-17.8c2.5 5.6 6 15.6 9.5 25.4 1.7 4.9 3.4 9.8 4.9 14.1 1.2 3.5 2.2 6.7 2.9 9.2-1-3.6-2.7-8.5-4.3-12.8-1.6-4.4-2.8-8.2-3.1-9.2l1.1 4.8c2.3 6.5 4.6 12.6 6.2 18.6 1.1 1.8 1.9 3.1 2.6 3.9 1.2 1.4 1.8 1.8 2 1.9 0.2 0.2 0 0-0.2-0.3-0.3-0.3-0.6-0.7-0.7-0.8 0.3 0.3 0.5 0.5 0.7 0.7q0.4 0.3 0.7 0.6l-1.3 0.8c-1-0.8-1.9-1.8-2.8-2.9q0.5 2 0.8 4.1l-1.3 0.8c-0.3-2.8-0.8-5.5-1.5-8q-0.3-0.6-0.6-1.2c-1.6-2.9-2.9-5.9-4.5-8.7-2.9-5.6-5.6-11-8.1-16.3 3.7 8.2 1.3 3.3-1.4-2.1-2.6-5.5-5.4-11.5-3-5.5 0 0 1.5 3.2 3 6.4 1.5 3.2 3 6.4 3 6.4 2.6 6-3.5-6.3-6.9-13.5-7.3-17-16.8-40.1-26.4-62 2.1 7.1 4.9 13.9 7.3 20.5 2.7 7.2 5.2 14 7.5 20.1 4.5 12.2 7.9 21.6 9.4 25.9-3.1-8.6-9.1-24.3-12-31.8l7 19.8c-2.9-8-5.5-15.2-8.4-23.3-1.5-4.1-3-8.4-4.8-13.2-1.7-4.7-3.8-9.9-5.8-15.9 0.5 2.1-0.8-1.2-1.5-2.7-0.4-0.7-0.6-1.1-0.4 0 0.1 1 0.7 3.5 2.2 8.1 8.2 22.7 11.8 31.9 16 42.2 2.1 5.2 4.3 10.6 7.3 18.1 3.1 7.5 7 17.1 12.4 30.6 2.1 5-5.1-11 6.6 17.6 2.3 5.3 4.8 10.1 6.8 14.8 1.5 3.6 2.8 7.1 3.7 10.4q0.2 0.3 0.6 0.4c0.2 0.2 0.4 0.2 0.9 0.2l-1.1 1.2q0.1 0.1 0.1 0.1-0.1 0-0.1 0l-0.9 1c0.7 0.3 1.3 0.4 2 0.4h0.5l-0.1-0.6c-0.8-4.2-2-7.9-3-10.7-1.1-2.9-1.9-4.9-2.2-5.9 2.1 4.6 4.5 10.3 5.7 16.6l0.2 1-1.1 0.1c-1 0-2.2-0.3-3-0.9-0.9-0.6-1.6-1.6-1.9-2.3 0-0.2-0.1-0.3-0.2-0.4l-0.4-0.5q-0.5-0.5-0.9-0.9-0.8-1-1.6-2c-2-2.6-3.7-5.2-5.1-7.5-0.7-1.2-1.3-2.2-1.9-3.1q-0.9-1.4-1.5-2.5c-0.9-1.4-1.5-2.3-1.7-2.5-3.8-7.6-0.1-0.8 3.6 5.3 0.5 0.7 0.9 1.5 1.3 2.2q0.6 1.1 1.2 2c0.8 1.2 1.4 2.2 1.7 2.6 0.4 0.5 0.4 0.4-0.1-0.3-0.4-0.8-1.3-2.2-2.6-4.7-5.9-9.8-8.4-14.1-11-18.8 1.9 3.3 0.8 1-0.9-2.6-1.7-3.6-4-8.4-4.7-10-6-12.3-10.3-23-14.5-33.4-4.1-10.1-7.9-19.9-12.6-30.7-0.2 1.9 0.2 3.9 1.1 5.7 0.2 0.5 0.6 1 0.7 1.6q0.3 0.8 0.5 1.6 0.5 1.6 1 3.3c1.4 4.5 2.9 9.2 4.6 14.3 0.5 2 1.7 6.2 1.2 5.2 3.2 9.2 7.5 20.2 10.8 28.1 3.3 7.8 5.5 12.4 4.4 8.9 8.4 21.3 8.7 22.5 16.1 40.5-11.1-29.1 2.2 5.7 4 8.5q0.7 1.7 1.2 3.1 0.6 1.4 1.1 2.5c0.6 1.4 1 2.5 1.3 3.4 0.6 1.6 0.7 2.1 0.8 2.3 0 0.4-0.4-0.4 1 4 0.6 1.5 1.5 4.2 2.3 6.6q0.2 0.4 0.3 0.8c0.1 0.2 0.1 0.3 0.2 0.5l0.1 0.1 0.1 0.2q0.2 0.2 0.3 0.4 0.2 0.3 0.4 0.7c0.4 0.9 0.6 1.6 0.7 1.8 0.3 1.9 0 2.8-0.1 3.1-0.2 0.2-0.1-0.2-0.2-1.1 0-0.8-0.2-2.1-0.8-3.4q-0.3-0.4-0.5-0.9-0.2-0.2-0.4-0.5l-0.2-0.3c-0.2-0.4-0.4-1.2-0.7-1.9-1-2.6-2-5.2-2.6-6.2-0.5-1.1-0.5-0.6 0.5 2.8q0.6 2 1.5 5.5c0 0.4 0.3 0.6 0.4 0.9q0.2 0.4 0.4 0.8 0.4 0.9 0.6 1.8 0 0.3 0 0.6 0.7 0.7 1.4 1.3l0.4 0.2-1.9 0.4q-0.1 0.3-0.2 0.7-0.3-0.3-0.6-0.6l-1.9 0.4q0-0.2-0.1-0.5c0.3-0.6 0.3-1.3 0.2-1.9q-0.5-0.8-1-1.5-0.9-1.4-1.7-2.8-0.1-0.4-0.3-0.8c-0.1-0.1-0.1-0.3-0.2-0.4l-0.3-0.4-0.8-1.4q-1.7-2.9-3.2-5.9-0.7-1.4-1.3-2.9c-0.5-1-0.9-1.9-1.4-2.8-3.5-7.4-6.2-13.2-6.6-14.2-1.8-3.2-3-4.6-3.5-4.5 1.8 4.5 4.1 10.1 6.6 15.8 5.3 12.2 10.6 24.4 10.6 24.4-2.7-6.2-11.2-24.9-8.2-17.4 9.3 20.9 4.8 10.9 10.7 25-5.6-11.9-13.9-28.5-21.2-44.4-7.2-15.9-13.7-30.9-17.1-38.8 0 0 2.5 6.5 5.1 12.8 2.6 6.4 5.2 12.8 5.2 12.8l2.2 6.5c6.9 16.6 14.6 31.9 20.8 44.2 6.2 12.3 10.9 21.7 13 25.9 4 9.6 4.5 13.1 4.2 13.3-0.3 0.3-1.5-2.5-2.5-4.8q2.3 6.2 3.4 11.3 0.5 0.3 0.9 0.4-0.4-0.1-0.9-0.3 0 0.1 0 0.3 0.4 0.1 0.7 0.2l-0.5 0.4q0 0 0 0.1l0.5-0.5q0.1 0 0.1 0l-0.6 0.6q0.2 0.8 0.3 1.5l0.1 0.5-0.5-0.2q-0.7-0.2-1.4-0.5l-0.7 0.6q0-0.1 0-0.1l0.6-0.5q-0.1 0-0.1 0l-0.5 0.4q-0.1-0.4-0.2-0.8-0.1-0.1-0.2-0.1 0.1 0.5 0.2 1.1-0.1-0.6-0.2-1.1-1-0.6-1.7-1.3c-1.2-1-2.1-2.3-2.7-3.6-0.1-0.3-0.3-0.6-0.4-0.9-0.1-0.3-0.3-0.5-0.5-0.8q-0.5-0.8-1.1-1.6-1-1.6-2-3c-2.6-3.9-5-7.4-7.3-11.2-4.7-7.6-9.7-16.2-17.1-32.3 0 0 1.5 3.5 3.2 7 1.5 3.5 3.2 7 3.2 7-1.8-3.4-5.2-10.6-8.5-17.9 2.6 7.5 4.6 13.3 6.3 18.3-5.5-14.7-6.6-16.6-6.8-15.4-0.2 1.2 0.6 5.4-0.8 2.7 0 0 1.6 3.9 4 9.8 2.4 5.9 5.6 13.6 9 21.3 6.8 15.5 14.4 30.5 14.4 30.5-1.1-2-4-6.5-4-6.1 0.8 1.2 3.3 6.7 7.2 14.7 1.9 4 4.1 8.6 6.6 13.6 2.5 5 5.3 10.4 7.6 16.5l-2.8 1.3c-6.4-10.4-12.8-22-18.4-33-5.7-11.1-10.7-21.7-14.6-30.1l2.4 5.1c3.6 6.8-10.1-22.7-15.8-34.7 1 2 2.3 4.8 4.7 10-3.5-8-6.3-14-8.8-19.4 1.6 4.2 4.2 10.9 6.9 17.6 2.2 5.5 4.4 10.9 6.1 14.9 1.7 4.1 2.9 6.8 2.9 6.8-0.7-1.6-1.4-3.1-1.3-2.6 0.1 0.5 1 3.1 3.7 9.4-2.6-6.1-5.1-12.1-7.5-17.9-2.4-5.8-4.6-11.5-6.7-16.8-2.1-5.2-4-10.1-5.6-14.5q-1-2-1.9-4c-1.4-2.9-2.7-5.8-4.1-9 4 11.3 7.9 21.3 11.6 30.4 3.8 9.5 7.4 18 10.9 25.9 7.1 15.8 14 29 21.4 43.2 0.6 1.2 1.2 2.4 1.9 3.6q0.9 1.9 1.9 3.8 0.9 1.9 1.8 3.9l0.8 1.9 0.7 1.5c0.1 0.1 0.9 0.8 1.4 2 0.3 0.6 0.3 1.5 0 2.2-0.2 0.8-0.7 1.3-1.1 1.6l-1.5 1.4-1.3-1.6c-5-6.5-9.4-13.4-13.6-20.3l-1.3-1.4-3.5-7c-3.2-4.6-5.1-7.6-5.7-8.6-0.5-0.9 0.3 0.2 1.6 2.1-2.5-4-4.8-7.7-6-9.6-0.5-1.7 3.8 5 8.6 11.9 2.1 3.5 4.2 7.1 6.3 10.6 2.5 3.6 4.7 6.7 5.5 7.6 0.7 0.9 0-0.4-3.2-5.7-0.9-1.4-2.1-3.2-3.4-5.2 3.2 4.6 5.2 7.4 3.1 3.9 0 0-1.2-1.8-2.9-4.5-1.8-2.7-4.1-6.3-6.4-9.9-4.5-7.2-8.9-14.6-8.9-14.6 1.9 3.4 4.7 8.5 8 14.5-5.8-9-11.7-18.9-15-24.4q-0.6-1.1-1.1-1.9 1.4 3.2 2.6 6.3c5.4 12.9 9.8 23.2 11.4 25.7 4.7 9.9 5.8 11.9 6.5 13 0.7 1.1 1 1.3 4.1 7.5-0.3-0.5-1.1-1.7 0.7 2 0 0 2 3.6 3.9 7.3 2 3.6 4 7.2 4 7.2 2.9 6-7.3-13.3 1 3.3 3.8 7 7.1 13.4 9.6 19.6l2.3 5.5-5.3-2.8c-2.7-1.4-4.8-3.7-6-6.1q-0.4-1-0.8-1.9c-0.1-0.2-0.1-0.3-0.2-0.4l-0.4-0.7q-1-1.5-1.9-3c-2.4-3.9-4.8-7.6-7.2-11.4-4.7-7.6-9.4-15.1-14.5-23.8-19.5-32.7 7.3 14.6-8.9-13.2-1.9-4.1-3.6-7.8-11.9-23.5q2.2 5 4.3 9.4c1.9 4.2 3.6 8 5.3 11.6q2.4 5.5 4.5 10.3c0 0-2.5-4.9-4.9-9.8-2.3-4.9-4.7-9.9-4.7-9.9 2.4 5.4 4.5 10 6.4 14 1.9 4 3.6 7.5 5.1 10.5 3 6 5.1 10.2 7 13.7 3.6 7.1 5.8 11.4 10 21.4-7-14.4-15.8-31.5-12-22.9l10.5 20.7c1.1 2.6-5.9-11.8-1.4-2.2 1.5 3 3.9 7.5 6.2 11.9 2.3 4.4 4.6 8.7 6 11.4l-0.2-0.3 0.8 1.5v0.1l0.2 0.2q0.3 0.3 0.5 0.6c0.4 0.5 0.7 1 0.9 1.6 0.4 1.2 0.3 2.7-0.1 3.8l-1.4 3.5-2.3-2.9c-7.1-8.7-13.8-17.8-20.1-27.1 3.7 5.4 4.6 6.3 0.4 0.1 0 0-3.9-5.7-7.7-11.5-3.7-5.8-7.3-11.7-7.3-11.7 4.5 7.1 0.1-0.3-5.9-11.2-4.9-8.6-8.1-14.4-10.5-18.7 1.5 3.7 3.1 7.6 4.7 11.5 4.1 9.6 8.2 19.2 11.5 26.4 3.3 7.3 5.8 12.3 6.4 12.8 4 9.3 4 9.6 1.7 4.8-2.3-4.9-7.1-15-12.5-26.7 0 0 2.1 4.9 4.1 9.9 2.1 4.9 4.3 9.8 4.3 9.8-3.7-7.9-6.5-14.6-10.3-23.1zm-11-28q-1.3-3.4-2.5-6.6-1.3-3.2-2.3-6c-1.5-3.7-2.8-6.8-3.7-9.1-0.9-2.2-1.5-3.6-1.7-3.9q-0.4-1.6-0.7-3.1-0.3-0.6-0.6-1.1l-3.6 1.4q0.2 0.7 0.3 1.4c1.3 2.2 2.5 4.5 3.7 6.9-0.9-1.8-1.5-2.8-2.1-3.8-0.4-0.7-0.8-1.5-1.5-2.5q0.1 0.1 0.1 0.1c1.3 2.4 2.4 4.5 3.3 6.4 1.1 2.2 2.1 4.1 3 5.8 1.7 3.3 3.1 5.8 4.6 8.4 1.4 2.3 2.8 4.9 4.8 8.3q-0.6-1.3-1.1-2.6zm31.2 54.2q0.5 0.7 0.9 1.4-0.4-0.7-0.9-1.4zm-28.1-89.5c0.5 1.3 1.9 4.9 3.6 9.1 0.9 2.4 2 5 3 7.5q0.3 0.4 0.5 0.8 0.7 1.3 1.3 2.4c-2.7-6-5.5-12.5-8.4-19.8zm6.6 16.6c-1.9-3.3-3-5.1-4.1-7.1q0.4 0.9 0.8 1.9c2 4.5 3.6 8.2 5.1 11.4 5.5 11.4 3.8 7 0.5-0.8-0.7-1.7-1.5-3.5-2.3-5.4zm-10.3-21.2c0.1-0.1-0.4-1.6-1.4-4.1-0.9-2.5-2.3-6.1-3.3-10.4l-3.2 2.7c0 0-0.1 0.2-0.1 0.2h0.1q0 0 0.1 0.1 0.1 0.1 0.3 0.3c0.2 0.1 0.3 0.3 0.5 0.4q0.2 0.2 0.4 0.6c0.6 0.7 1.2 1.6 1.8 2.6 1.2 2 2.3 4.2 3.4 6.5l-1-0.7q0.7 1.5 1.3 2.8 0.3 0.7 0.7 1.4 0.3 0.6 0.6 1.2 1.2 2.2 2.2 3.9c1.2 2.2 2.1 3.8 2.9 5.2q0.5 0.7 0.9 1.4c-1.8-4.1-3.9-8.7-6.2-14.1zm9.1-20.6c-2.3-6.3 1.5 2.9 1 0.9-2.5-6.2-4.6-11.1-6-14.9q-0.5-1.2-0.9-2.3c-0.6-1.4-1.4-3.3-2.3-5.1l-2.7 1q0.6 1.8 1.2 3.4c2.1 4.5 3.5 8.1 5.2 12.1 2.1 5 4.5 10.6 8.7 19.5 0 0 2.6 6 5.4 11.9 1.3 3 2.8 5.9 3.9 8.1 1.1 2.2 1.8 3.7 1.8 3.7-1-2.2-1.8-3.7-2.2-4.8-0.5-1-0.7-1.5-0.7-1.6 0.1-0.1 0.7 0.9 1.6 2.5-4.6-11.4-9.6-23.9-14-34.4zm2.8-24.5c1.8 4.5 2.5 5.9 2.7 5.9q-0.3-0.7-0.8-1.6c-0.8-1.8-1.8-4.3-3.2-7.7-1.5-3.5-2.9-7.9-5-13.3 1.1 3 2 5.8 2.9 8.3 0.9 2.6 1.9 5 2.8 7.2q0.6 1.4 1.2 2.8-0.3-0.8-0.6-1.6zm2.5 2.7c1 3.4 2.4 7.4 4.1 11.9q0.7 1.5 1.5 3.1c-1-2.6-1.7-4.2-1.7-4.2 0.9 0.8-3-9.5-6.9-21.1 0.6 2.4 0 1.2-1.3-2.2-1.3-3.4-3.4-9-4.9-15.5l-2.6 0.9c2.7 5.1 4.8 11.3 7 17.1 1.7 4.5 3.4 8.7 4.9 12.2-0.1-1-0.4-2.4-0.1-2.2zm0.1 2.2c0.1 0.6 0.2 1 0.1 1 1 2.2 1.3 2.6 1.3 2.1q-0.7-1.5-1.4-3.1zm8.9-10.9c1 3.3 2.1 7.5 2.4 9.3q0.8 1.9 1.7 4 1.1 2.6 2.3 5.3c-1.8-5.2-3.9-11.3-6.4-18.6zm2.4 9.3c-0.7-1.7-1.4-3.2-1.9-4.5q0.3 1 0.6 2.1c1.2 3.4 1.5 3.7 1.3 2.4zm-6.9-21.8c-0.7-2.2-1.4-4.6-2.4-8.2-1-3.3-2.3-7.7-3.9-13.9 0.7 2.7 0.5 2.9-0.2 1.3-0.7-1.7-2.2-5.7-3.6-10.9l-1.4 0.5q0.7 1.3 1.1 2.8 0.2 0.3 0.3 0.7c0 0.2 0.1 0.6 0.2 0.8q0.3 0.8 0.5 1.6c-0.4-1-0.6-0.6-0.9-0.6q-0.1 0-0.2-0.1 0 0 0 0c0 0.3 0.6 2.7-0.2-0.3q-0.1 0-0.1 0 0.2 0.8 0.4 1.6 0.3 0.6 0.5 1.2c1.2 3.2 2.8 7.5 4.4 11.7 2.3 6 4.8 11.9 6 14.9-2.2-5.1-0.4 1.5 2.1 8.4-0.4-1.1 0.6 1.5 2.4 5.8-2.8-9.5-3.8-13.1-5-17.3zm-6.3-22.1q-0.1-0.5-0.3-1.1 0.2 0.6 0.3 1.1zm-5.5-6.7c0 0 0.2 0.3 0.3 0.8q-0.1-0.3-0.3-0.8zm12.3 31.9q0.4 0.8 0.9 1.9c0 0-0.3-0.7-0.9-1.9zm14.4-3.1c-1.8-4.6-3-7.7-3-7.7 0.1 1.2-3.8-8.2-7.7-17.6-3.8-9.5-7.4-19.1-7.3-18.1 0 0 1.3 3.4 3.2 8.5 2 5 4.6 11.7 7.4 18.4 2.7 6.7 5.4 13.4 7.5 18.4q0.1 0 0.1 0.1 0-0.2 0-0.3 0-0.5 0.3-0.6-0.2-0.5-0.5-1.1zm0.2 2q0 0.8 0.3 2.3c2.1 4.4 3.3 6.6 3.2 5.9 0 0-1.4-3.3-3.5-8.2zm-5.4-10.4c-5.3-12.3-12.2-29.3-18.3-47.2-1.5-4.5-0.6-2.9 0.6-0.3 1.3 2.6 2.9 6.3 2.9 5.9-0.5-1.2-1.6-4-2.9-7.6-1.3-3.6-2.9-7.9-3.7-12.1l-3.4 1c1.6 3.9 3.1 7.7 4.3 10.7 1.2 3.1 2 5.4 2.3 6.2 0 0-0.4-1-0.9-2.4-0.6-1.4-1.3-3.2-2.1-5-1.6-3.7-3.1-7.4-3.1-7.4 3.8 9.7 6.9 17.7 10.3 26.2 3.5 8.5 7.1 17.4 11.9 29.1 1.7 4.1 4.3 10.1 6.5 15.3 2.2 5.1 4.2 9.4 4.7 10-1.8-4.3-2.9-7.5-3.4-9.7-1.5-3.2-3.4-7.5-5.7-12.7zm29 50.3l-1 0.2q0.2-0.4 0.4-0.8 0.3 0.3 0.6 0.6zm-52.4-149.1l-0.3 0.1q0.2 0.2 0.3 0.5 0-0.3 0-0.6zm54.5 110.6q-0.2-1-0.4-1.9-0.1-0.1-0.2-0.3c-0.2-0.3-0.3-0.4-0.5-0.8-0.1-0.4-0.4-0.7-0.6-0.9q-0.7-0.8-1.3-1.5-2.5-2.9-4.4-5.6c-1.3-1.9-2.3-3.7-3.4-5.3q-1.5-2.5-2.8-4.5c-3.5-5.4-5.4-8.4-5.6-8.2 1.1 2.1 2.5 4.5 4 7.1q1.2 1.9 2.4 3.9c0.8 1.4 1.7 2.7 2.5 4.1 1.6 2.8 3.5 5.6 5.6 8.2q0.7 0.9 1.5 1.9l0.8 0.9c0.3 0.2 0.3 0.5 0.5 0.9 0.4 0.8 1 1.5 1.8 1.9q0 0 0.1 0.1zm2.3-0.8l-0.8 1q-0.1-0.6-0.2-1.1 0.4 0.1 1 0.1zm-55.5-145.4l-0.3 0.1q0.5 1 1 2.1-0.4-1.1-0.7-2.2zm50.9 105.1l-2.4 1.4q0-0.3-0.1-0.6l2-1.2q0.2 0.2 0.5 0.4zm-11.7-30.8q0 0.1 0.1 0.2zm7.9 23.7q-0.2-0.7-0.4-1.5 0.2 0.8 0.4 1.5zm-14.6-38.7q0.5 1.3 0.9 2.6-0.3-1-0.9-2.6zm11.5 33.8q0.1 0.4 0.2 0.7 0.4 0.9 0.7 1.6c0.7 1.5 1.3 2.7 1.6 3.3q-0.7-1.1-1.7-2.9 0.4 1.4 0.8 2.9 0.9 1.6 2 3.1-0.5-2-1-3.9-1-1.8-2.2-4.5c-0.2-0.3-0.4-0.7-0.6-1.1q0.1 0.4 0.2 0.8zm9.2 53.5l0.3-0.3q-0.2 0-0.3-0.1 0 0.2 0 0.4zm0.7-3.3q-0.2-0.2-0.3-0.4c0-0.1-0.2-0.4-0.3-0.6 0-0.3-0.2-0.4-0.4-0.6l-0.7-0.8-0.6-0.7q0-0.1 0-0.1 0.7 2.1 1.2 4.2 0.6 0.8 1.5 1l0.1-0.1q-0.2-0.9-0.4-1.7-0.1-0.1-0.1-0.2zm-8.6 30.3q0.5 1.6 1 3.2 0.2 0.9 0.5 1.9c0.1 0.2 0.2 0.4 0.3 0.6 0.2 0.2 0.3 0.4 0.3 0.4q0.2 0.3 0.3 0.5 0.3 0.7 0.4 1.3 0.8 1.1 1.8 2.1l0.7-0.2q0.2-0.9 0.2-1.9-1.7-1.8-3-3.9-0.4-0.7-0.8-1.5c-0.2-0.3-0.2-0.4-0.5-1l-0.6-0.8q-0.4-0.8-0.9-1.5 0.2 0.4 0.3 0.8zm14.6 56.6q0.3 0.2 0.6 0.4 0 0 0 0-0.3-0.2-0.6-0.4zm1.6 0.7l-0.2 0.2q0 0 0 0l0.1-0.2q0 0 0.1 0zm-3.2 2.7q0 0 0 0l0.2-0.1q0 0 0 0zm-0.9-5q0.1 0 0.1 0.1-0.4-1.8-0.9-3.3 0.5 1.5 0.8 3.2zm-56.3-114q0 0.2 0.1 0.4 0 0 0 0.1 0-0.2-0.1-0.5zm44.1 125.6c2.3 5.2 5.6 11.9 8.6 18.1 3.1 6.2 6 11.8 7.2 15 0.8 1.9 1.8 4.4 2.9 7.5l2.5-1.2c-3.7-6.4-8.7-15.1-14.1-25.6q-3.4-6.5-7-13.7zm2.5 28.1c0.6 1.1 1.1 2.1 1.5 2.9 0.7 1.5 0.1 0.5-1-1.5q-0.4-0.8-0.9-1.7c-0.4-0.6-0.8-1.3-1.1-1.9-0.7-1.3-1.4-2.7-2-3.9q1.3 2.7 2.6 5.2c0.9 1.6 1.7 3 2.4 4.5q1.1 2.1 2 3.9 0.4 1 0.8 1.9 0.1 0.1 0.2 0.3c-2.1-2.8-3.9-5.5-5.6-8 2 3.2 4 6.2 5.9 8.8q0.3 0.5 0.6 1.1 0.3 0.3 0.6 0.6l0.2 0.1q0 0.1 0.1 0.1c0 0 0 0.1 0 0.1q0.6 0.7 1.1 1.3l0.7 0.9 0.9-0.7c0.3-0.4 0.7-0.8 0.9-1.4 0.1-0.4 0.1-0.8 0-1.1h0.4q-0.3-0.4-0.7-0.8c-0.1-0.4-0.4-0.6-0.6-0.8l-0.2-0.2-0.1-0.2q0 0 0 0-0.2-0.2-0.3-0.4c-0.2-0.2-0.3-0.4-0.4-0.8q0.1 0.4 0.2 0.7c-2.8-3.5-4.6-5.9-5.8-7.4-1.6-1.8-2.4-2.5-3.1-3.1q-0.2-0.4-0.4-0.7 0.6 1.1 1.1 2.2zm6.3 12.5q-0.7-1-1.5-2-0.1-0.4-0.3-0.8 0.9 1.3 2 2.7-0.1 0-0.1 0-0.1 0.1-0.1 0.1zm0.9-0.5c0.4-0.1 0.6 0 0.3-0.1 0 0-0.1 0-0.2-0.1-0.1-0.1-0.1-0.1-0.3-0.2-0.1-0.1-0.2-0.2-0.3-0.3 0 0-0.1-0.1-0.2-0.2l3.3 0.3c0.1 0.5 0.1 1-0.1 1.4-0.2 0.5-0.5 0.8-0.8 1l-0.8 0.7-0.6-0.8q-0.5-0.7-1-1.3 0.4-0.3 0.7-0.4zm2.2 33l1.8-1.6c-0.9-0.5-2-1.3-2.9-2.5q-0.8-0.9-1.3-2-0.3-0.6-0.6-1.2c0-0.3-0.1-0.4-0.2-0.7-0.1-0.4-0.3-0.7-0.4-0.9 0 0 0 0.2 0.2 0.5 0 0.1 0.1 0.3 0.1 0.5q0 0.1 0 0.2c1 2.2 2.1 4.7 3.3 7.7zm-12.1 11.2l0.3 0.3c0.1 0.1 0.3 0.3 0.3 0.3q0.1 0.1 0.2 0.3 0.3 0.3 0.3 0.5c0.1 0.3 0.1 0.6 0 1l3.3-0.5c-3.3-4.1-6.4-8.3-9.3-12.3 1.6 3.4 3.3 6.9 4.9 10.4zm-17.8 9.6l-0.7-1.2q1.2 2.6 2.2 4.9 1 2.6 2 4.9l0.5 0.5c0.1 0.1 0.1 0.2 0.1 0.2q0.1 0 0.1 0.1 0.1 0.1 0.1 0.1 0 0 0 0v0.1q0 0 0 0c0 0 0.1 0 0.2 0h3.1c-5.8-8.9-9.6-15.6-12.8-21 3 6.5 5.2 11.4 5.2 11.4zm4.5 9.6h-0.2q0-0.1 0-0.1c0 0 0 0 0.2 0 0.1 0 0.1 0 0.1 0q0 0-0.1 0.1zm-10.8 5.5q0 0.1-0.1 0.1 0.1-0.1 0.1-0.1zm-0.1 0.1q0 0-0.1 0.1l-1.1 0.7 0.7-0.5c0.3-0.1 0.4-0.2 0.5-0.3zm-1.2 0.8l-0.3 0.3 0.1-0.1zm-6.8 11.2q0.9 1.9 1.6 3.4 0.2 0.4 0.4 0.8 0.1 0.2 0.2 0.4c0.1 0.2 0.2 0.3 0.3 0.5 0.3 0.4 0.4 0.6 0.5 0.9 0.5 1.1 0.4 1.8 0.3 1.7q0.1 0.3 0 0.7l3-0.9c-3.5-4.9-6.8-10-10-15.2 1.4 2.8 2.6 5.5 3.7 7.7zm-3.6 14.6q-1.8-2.6-3-4.3c-1.3-2.1-2.1-3.2-2.4-3.5-0.6-0.8 0.6 1.4 2.5 4.5q2.7 4 5.4 7.8-0.2-0.3-0.4-0.7c-0.6-1.1-1.4-2.3-2-3.5q0-0.2-0.1-0.3zm3.9 7.2q1 1.8 1.8 3.6l0.8 1.7 1 2.1 0.3 0.3 0.2 0.2q0.1 0.2 0.1 0.3 0.2 0.2 0.2 0.4c0.1 0.2 0.1 0.5 0 0.8l0.5-0.1q0.1-0.4 0.1-0.9-0.1-0.2-0.2-0.5c-0.1-0.2-0.2-0.4-0.5-0.8 0.3 0.4 0.4 0.5 0.6 0.7q0.1 0.3 0.2 0.6 0.1 0.4 0.1 0.8l2.1-0.4q-3.7-4.6-7.2-9.3-0.7-1.1-1.5-2.2 0.7 1.4 1.4 2.7zm4.8 4.4c0.9 1.5 1.9 2.9 2.9 4.3l0.2-0.1q0-0.1 0-0.3c-1.1-1.3-2.1-2.6-3.1-3.9zm2.9 4.3l-0.4 0.1q0.1 0 0.1 0.1h0.4q-0.1-0.1-0.1-0.2zm-2.6 0.7q0.1-0.1 0.1-0.2l-0.3 0.1q0 0.1-0.1 0.2zm0 0.2l2.4-0.6q0 0-0.1-0.1l-2.3 0.5q0 0.1 0 0.2zm-5.7-12c-1.1-1.7-2.4-3.7-3.9-5.9q0.3 0.5 0.6 1.1 1.4 2.1 3.3 4.8zm-47.7-66.9q0.3 0.8 0.6 1.7-0.3-0.8-0.6-1.7zm35.4 73.6c2.4 4.1 4.5 8.2 5.8 12.4l2.8-1.5c-3.9-4.7-7.3-9.7-10.4-14.4q-0.6-0.9-1.2-1.8 1.5 2.7 3 5.3zm-38.7-65.9c-2-4-4-8.1-5.5-12.4l-2.2 1.2q0.6 0.8 1.1 1.7 0.2 0.5 0.4 0.9c0.1 0.4 0.2 0.6 0.4 1.2q0.9 2.1 1.9 4.3 2 4.4 4 8.9c-2.6-6.2-3.7-10.1 5.9 11.2q-0.3-0.4-0.4-0.5c1.4 2.3 3.2 5.4 5.9 9.7l3.3 6.5c1 1.4 1.8 2.6 2.5 3.8q0-0.1-0.1-0.2l0.1 0.2q0 0 0.1 0.1c-3.8-7.9-8.5-18-13.3-28.4q-2.1-4-4.1-8.2zm31.1 73.5q-0.3-0.7-0.6-1.2 0.3 0.6 0.6 1.2zm7.8 13.4c3.1 5.4 6.5 11.2 9.3 15.9q1.1 1.8 2 3.4 0.6 0.7 1.1 1.4 0.4 0.6 0.7 1.2c0.9 1.4 1.4 2.6 1.6 3.1l0.1-0.1c-0.1-0.3-0.4-1.8-1.7-4.1 1 1.6 1.6 3 1.9 4l2-1.1q0 0.1 0 0.1l0.1-0.1q0 0 0-0.1l-0.1 0.1q0 0 0 0c-6.7-8.8 1.6 1.4-6.2-9.2q-6-8-12.1-16.7 0.6 1.1 1.3 2.2zm17.2 23.6c-0.3-0.4-0.4-0.4-0.1 0zm-2.2 1.3q0 0 0 0l-0.2 0.1q0 0 0 0zm0 0l2-1.1q0 0 0 0l-2 1.1q0 0 0 0zm-48.8-78.4c-2-3.7-4-7.3-4.6-11l-3.6 1.3c2.5 4.4 4.4 9.4 6.3 14.4q0.3 0.8 0.6 1.6 2.4 4.3 4.9 8.5c3.4 5.6 6.9 11 10.4 16.3q-1.2-2.6-2.3-5.1-2-4.6-4-9.3c-1.3-3.1-2.7-6.2-4-9.3q-0.3-0.8-0.7-1.6-1.5-2.9-3-5.8zm27.2 66.4c3.5 6.8 7.2 13.4 7.2 13.4 2.9 4.9 4.4 7 6.5 10.2 1 1.6 2.2 3.4 3.7 6 1.6 2.6 3.5 5.9 6.2 10.4-1.5-2.6-3.6-6.4 0.5 0q2 3.2 4.2 6.3c-0.1-0.3-0.3-0.6-0.2-0.5 0.1 0 0.2 0.2 0.6 0.7q0.3 0.5 0.8 1.5 0.5 0.5 0.9 1.1l2.6-1.6q-0.3-0.6-0.6-1.1c-0.4-0.7-1.1-1.5-1.8-2.5 0 0-0.7-1.2-1.5-2.4q-0.4-0.6-0.7-1.2c-0.9-1.2-1.8-2.3-2.6-3.4q-3.7-5.3-7.4-10.6c-5-7.1-10-14.1-14.9-21.3q-1.9-2.7-3.8-5.5 0.2 0.3 0.3 0.5zm34.3 75.4l0.3 0.4c0.1 0.2 0.3 0.4 0.4 0.6q0.4 0.4 0.7 0.8 0.5 0.8 1 1.6 0.9 1.7 1.3 3.6l2.6-1.7c-3-2.1-5.4-4.8-7.8-7.8zm-48.8-66.4q0.5 0.8 0.9 1.5-0.5-0.8-0.9-1.5zm-7-3.6q0 0 0.1 0.1l-0.1-0.1zm0 0l0.3-0.1q0 0 0 0c0 0-0.3 0.1-0.3 0.1zm3.6-1.5q0 0 0 0l-0.3 0.1q0 0 0 0zm0.9 2.4c-0.5-0.6-1.2-1.8-1.1-1.1q-0.2-0.5-0.4-1.1l-2.3 1.1q1.5 3 3 6 0.5 0.7 0.9 1.5 2.3 3.5 4.8 7c2.6 3.5 5.2 7 7.9 10.4-4.2-7.3-8.5-15.3-12.7-23.7q-0.1 0-0.1-0.1zm12.8 23.8q0.5 0.8 1 1.6c1.5 1.9 4.9 6.3 1.6 1.7q-1.3-1.7-2.6-3.3zm0.7 1.5q0.4 0.5 0.8 1-0.3-0.4-0.5-0.9c-0.8-0.8-1.1-1.2-0.3-0.1zm-15.5-57.6l1.8 4.6c-3.9-8-5.8-12.1-7.3-15.5q-0.5-0.6-0.9-1.3c4.8 10.1 12.7 26.1 8.2 18.1-1.6-3.8-4.6-10.2-8.3-18.1l-2.8 1.6c2.1 3.2 4.3 6.8 6.7 10.5q1.7 2.9 3.6 5.8c1.3 1.9 2.6 3.8 3.9 5.8q1.3 1.8 2.5 3.6-3.5-7.1-7.4-15.1zm-6.9-6.1c3.6 5.1 1.4 1.4-2.4-4.4q0.5 1 1 2.1 0.7 1.1 1.4 2.3zm-2.4-4.4v-0.1q0 0 0 0 0 0 0 0.1zm2.8-1.7q0 0 0 0h0.1q0 0 0 0zm0 0l-2.8 1.6q0 0 0 0l2.8-1.6q0 0 0 0zm17.7 14c0 0 0.4 0.9 1.1 2.4q-0.7-1.5-1.1-2.4zm-24-97.7q-1.1-3.5-2.4-7.5-0.3-1.1-0.6-2.1l-0.2-0.6c-0.1-0.3-0.2-0.6-0.3-0.8-0.2-0.3-0.3-0.4-0.4-0.5q-0.1-0.2-0.2-0.4c-0.5-1.1-0.6-2.2-0.2-3.4l-3.4 0.5c2.6 4.3 4.8 9.7 7.7 15.9-1.8-3.7-1.9-3.9-3.6-7.6 1.5 3.5 3 7 4.7 10.4q0.2 0.4 0.4 0.8-0.7-2.2-1.5-4.7zm25.1 25.3c-4.7-9.5-9.1-19-13.7-28.6 4.7 10.1 7.4 15.7 8.8 18.7 1.5 3 1.6 3.4 1.4 3.2-0.2-0.2-0.5-0.7-0.7-0.9 1 1.9 1.9 3.6 2.6 5q1.2 2.1 2.2 3.8-0.3-0.6-0.6-1.2zm-4.2-7.6c-2-3.8-4.5-8.5-7-13.2 2.3 4.9 5.3 10.9 9.3 18.6-2.9-5.9-2.8-6.1-2.3-5.4zm-13-26.6q-0.5-1.3-0.9-2.4-0.5-1.2-1-2.2c-0.6-1.4-1.2-2.8-1.7-4.1-0.6-1.4-1.1-2.8-1.6-4.3-0.4-1.2-0.6-2.5-0.7-3.9q-0.2-0.3-0.4-0.6l-3.9 1.2q0 0.5 0.1 1 1.2 2 2.5 4.5c1.1 2.1 2.4 4.6 3.9 7.3 2.7 5 6 11 10.2 18.6-4.7-8.4-13.2-24.5-7.2-14.1 2.1 3.9 4.4 8.2 6.7 12.4-2.7-5.7-4.5-9.9-6-13.4zm6.5 15.1q0.7 1.3 1.3 2.3-0.7-1.2-1.3-2.3zm0.4-27.8c1 2.6 0.4 2-1.3-1.6-1.8-3.7-4.8-10.3-8.6-19.9-0.1-0.3-0.2-0.6-0.3-0.8l-1.6 0.8 1.6-0.8q0-0.1-0.1-0.1l-1.5 0.9q0 0.1 0 0.2 0 0 0 0.1 0 0 0 0-0.1 0.1-0.1 0.2 0 0 0 0 0 0 0 0 0 0 0 0 0 0 0 0 0 0 0 0-0.1 0.1-0.1 0.2 0 0 0 0 0 0-0.1 0 0.1 0 0.1 0-0.1 0-0.1 0 0 0 0 0 0 0 0 0 0 0 0 0 0 0 0 0 0 0 0 0.1l-0.1 0.1-0.1 0.1q0 0 0.1 0l-0.1 0.1q0.1 0.1 0.2 0.2 0.3 0.3 0.5 0.6 0.4 0.6 0.6 1c0.3 0.5 0.5 0.7 0.5 0.9 0.1 0.2-0.2-0.2-0.2-0.1 0 0 0.3 0.5 1.5 2.5 1.1 1.9 3.1 5.5 6.5 11.7-1.4-2.3-2.9-4.8-4.5-7.6q-1.3-2.1-2.7-4.5-0.8-1.2-1.6-2.4c-0.3-0.4-0.5-0.8-0.8-1.2-0.1-0.2-0.3-0.3-0.4-0.4q0-0.1-0.1-0.1 0 0 0 0.1l-0.2 0.1-0.1 0.1q0 0 0 0c0.1 0.1 0.1 0.1 0.2 0.2 0.2 0.2 0.4 0.5 0.6 0.8q0.7 0.9 1.3 1.9c0.8 1.3 1.7 2.7 2.5 4.1 1.6 2.8 3.1 5.7 4.5 8.3q1.1 2.1 2.1 3.9c0.7 1.3 1.4 2.6 2.1 3.7 1.2 2.3 2.4 4.3 3.3 6-1-1.8-2.1-3.8-3-5.6-0.5-0.9-1-1.7-1.4-2.6q-0.6-1.1-1.1-2c0 0 0.3 0.6 0.9 1.6 0.6 1.1 1.4 2.5 2.4 4.2 1 1.6 2.1 3.5 3.3 5.5-1.4-3.1-2.9-6.5-4.6-10.5zm-11.9-21q0-0.1 0.1-0.2-0.1 0.1-0.1 0.2 0 0 0 0 0 0 0 0zm-0.3 0.4l0.1-0.2q0 0 0 0 0 0 0 0 0 0 0 0 0 0.1-0.1 0.3v-0.1zm-0.6 0.8q0.2-0.1 0.3-0.3-0.1 0.1-0.3 0.3zm0.7-0.9q0 0 0 0 0 0 0 0 0 0 0 0zm1.8-1.6q0 0 0.1 0.1l0.6-0.4q0 0 0 0zm2.9 5.4c0.6 1.1 2.7 5.9 3.4 7.1-1.6-3.9-3.3-8.4-5.2-13q0-0.1 0-0.1l-0.4 0.2q1 2.7 2.2 5.8zm-4.9-3.6q-0.1 0.2-0.2 0.3 0-0.1 0.1-0.2zm54.2 93.4l0.8-0.6 1.1-0.7q0 0 0 0l1.9-1.3q-0.5-0.7-1-1.4 0 0-0.1-0.1c-0.3-0.1-1-0.1-1.6 0.2-0.7 0.3-1.1 0.8-1.3 1.2-0.2 0.3-0.2 0.6-0.3 0.8q0 0.3 0 0.4v0.1 0.1l0.1 0.1 0.1 0.3q0.1 0.3 0.2 0.7 0 0 0.1 0.1 0 0 0 0.1zm-22.3-67.9c-0.7-1.4-2.2-4.1-4.8-9.8q-2.9-6.5-5.7-12.8c-1.5-3.3-2.8-6.6-3.8-10q-0.7-1-1.5-2.1l-3.1 1.5q0.5 1.5 1 3c1.7 2.7 3.2 5.7 4.9 8.7q3.2 6.1 6.7 12.4c4.5 8.4 9.4 17.1 14.8 26.7l8.3 16.9c5.3 9.5 4.2 7.2 2.6 3.9-6.7-12.3-13.4-25.5-19.4-38.4zm4.7-167.8q0.2 0.9 0.4 1.5 0.1 0.2 0.2 0.2-0.2-0.5-0.6-1.7zm56.9 117.4q0 0 0 0-0.3-2-0.7-3.9 0 0-0.1 0 0.5 1.9 0.8 3.9zm0.2 0.1q0.4 0.2 0.7 0.4l1.7-1.4q-0.1-0.4-0.1-0.7c-1.2-0.5-2.2-1.2-3.1-2.2q0.5 1.8 0.8 3.9zm0.8 0.4q0 0 0.1 0l1.5-1.3q0 0 0-0.1zm-93.9 23.4q-0.1 0.1-0.1 0.2 0 0 0 0 0-0.1 0.1-0.2zm-0.2 0.5q-0.1 0-0.1 0.1 0 0 0 0 0 0 0.1-0.1 0 0 0 0 0 0 0 0zm-0.8 1.1q-0.1 0 0 0 0 0 0 0zm51.6-2.7c-1.7-4.2-7.3-15.3-10-20.9 4.3 9.7 6.4 14.7 10 20.9zm40.2 22.1q0 0 0.1 0.1 0 0.1 0.1 0.2 0.1 0.1 0.2 0.2 0.5 0.5 1 1.2 0 0.1 0.1 0.2 0.1 0.2 0.2 0.5h-0.2q0-0.1 0-0.2c-0.3-1-1.1-1.6-1.4-1.9q0-0.1-0.1-0.3zm-52.8-260.1c0.2 0.7-0.6-1.4-2.9-8-0.1-0.2-0.1-0.4-0.2-0.6 1.5 4.6 2.8 8 3.1 8.6zm6.7 0.7c1.2 2.7 1.2 2.5 0.8 1.3-0.5-0.9-1.3-2.8-2.4-5.4-1.2-2.5-2.4-5.7-3.9-9.1 0.8 1.9 2 5.4 5.5 13.2zm-47.9 273.5c0.1 0.2 1 2.3 3.7 8 0 0-0.5-1.3-1.1-2.6-0.5-1.2-1.1-2.5-1.1-2.5-0.8-1.6-1.6-3.2-1.5-2.9z"/>
			<path id="&lt;Path&gt;" class="s0" d="m79.2 326.7c-0.9-1.6-1-2-1.2-2.5-1.3-2-1.4-2 1.2 2.5z"/>
			<path id="&lt;Path&gt;" class="s0" d="m48.2 368.3l0.4 0.9c0.2 0.4 0.4 0.7 0.5 0.8z"/>
			<path id="&lt;Path&gt;" class="s0" d="m101.3 255.5c0.9 2.9 1.6 5.1 2.1 6.9q0 0.3 0.1 0.5c0 0.2 0.1 0.3 0.1 0.4q0.2 0.2 0.3 0.5 0.2 0.3 0.3 0.6 0.5 1.2 0.7 2.2c0.1 0.2 0.1-0.7-0.8-2.6-0.1-0.2-0.2-0.5-0.4-0.7 0-0.1-0.1-0.3-0.2-0.4q-0.2-0.8-0.5-1.9c-0.4-1.5-1-3.3-1.7-5.5z"/>
			<path id="&lt;Path&gt;" class="s0" d="m81.9 141.2l6.4 17.3c-3-8.4-4-11.4-5.5-15.7 0 0.4 1.1 3.8-0.9-1.6z"/>
			<path id="&lt;Path&gt;" class="s0" d="m77.9 109.9c1.1 2.5 2.3 5.2 3.5 7.6l-0.1-0.7c-4.8-10.5-8-17.8-3.4-6.9z"/>
			<path id="&lt;Path&gt;" class="s0" d="m77.6 124.6c-0.1-0.8-1.2-3.8-2.7-8.3-1.6-4.4-3.7-10.1-5.8-16.2 0.2 0.7 0.5 1.4 0.7 2.1-0.9-1.7-0.1 0.7 1.4 5.1 1.6 4.4 3.9 10.9 6.4 17.3z"/>
			<path id="&lt;Path&gt;" class="s0" d="m68.1 97.2c-1.3-3.7-2.7-7.6-4-11.2-0.7-1.4 1.6 4.6 4 11.2z"/>
			<path id="&lt;Path&gt;" class="s0" d="m76.6 137.7c2.3 5.7 2 3.4 3.2 6.6 3.1 6.1-16.6-37.2-3.2-6.6z"/>
			<path id="&lt;Path&gt;" class="s0" d="m75.3 114.3l1 4.5 2.9 6.7c0 0-1-2.8-2-5.6-0.5-1.4-1-2.8-1.3-3.8-0.4-1.1-0.6-1.8-0.6-1.8z"/>
			<path id="&lt;Path&gt;" class="s0" d="m92.2 176.3c1.4 2.8 2.7 5.8 4.2 8.6 1.5 2.8 3.2 5.5 5.7 7.5l-0.4 0.2-0.2-1.4c0 0.3-0.5-2.3-1.3-5.4 0.6 2.3 1 4.6 1.4 6.8l0.6-0.4c-2-1.5-3.5-3.5-4.6-5.5-1.2-2-2.2-3.8-2.9-5.4-1.5-3.3-2.5-5.3-2.5-5z"/>
			<path id="&lt;Path&gt;" class="s0" d="m100.2 185.8c-1.6-6.4-3.8-12.3-5.1-15.7 1.2 3.4 3.9 10.6 5.1 15.7z"/>
			<path id="&lt;Path&gt;" class="s0" d="m85 140.8l2 5.7 5 13.7z"/>
			<path id="&lt;Path&gt;" class="s0" d="m95.2 201.7c0 0 0.5 1.3 1.4 3.2 0.8 1.9 2 4.5 3.2 7 1.2 2.6 2.3 5.2 3.1 7.1 0.8 1.9 1.3 3.3 1.3 3.3 1 2.1-0.9-3.8-4.6-11.4-1.1-2.4-2.6-5.5-3.6-7.6-0.9-2.2-1.4-3.3-0.8-1.6z"/>
			<path id="&lt;Path&gt;" class="s0" d="m71.5 137.8c2.1 5.7 2.1 6.1 3.2 9.4l0.8 0.4z"/>
			<path id="&lt;Path&gt;" class="s0" d="m95.7 198.8c0.2 0.5 1.1 2.7 2.2 5.1 1.2 2.5 2.5 5.3 3.4 7.2 1 2 1.5 3.1 1.1 2-0.4-1-1.9-4.2-4.8-10.6-1-2.1-9.5-23-1.9-3.7z"/>
			<path id="&lt;Path&gt;" class="s0" d="m92 256.1c0 0 0.7 1.2 1.4 2.5 0.7 1.2 1.4 2.5 1.4 2.5l0.5-1.3c0 0-0.8-0.9-1.7-1.8-0.8-1-1.6-1.9-1.6-1.9z"/>
			<path id="&lt;Path&gt;" class="s0" d="m96.9 303.5c3 4.9 4.9 7.9 6.1 9.9q0.2 0.2 0.3 0.4 0.1 0.3 0.2 0.5 0.3 0.7 0.6 1.2c0.4 0.7 0.7 1.1 1 1.5 0.5 0.6 0.8 0.9 1.6 1.6 0.4 0.4 0.9 0.9 1.8 1.4 0.8 0.6 2 1.3 3.6 1.8l3.6 1.1-0.6-3.7c-0.3-1.9-0.8-4.5-1.7-7.9-1.2-3.3 0.8 2.6 1.5 7.9l0.4 3.4-3.1-1c-1.3-0.4-2.5-1-3.4-1.7-1-0.6-1.7-1.3-2.2-1.9-0.4-0.5-0.7-0.8-0.7-0.9 0 0 0.3 0.3 0.9 0.9-0.9-0.8-1.5-1.8-2-2.8q-0.4-0.7-0.7-1.4l-0.1-0.2q-0.1-0.1-0.1-0.2l-0.3-0.5q-1.4-2.2-2.6-4.1c-1.6-2.4-2.9-4.4-3.7-5.8-1.8-2.7-2-2.9-0.4 0.5z"/>
			<path id="&lt;Path&gt;" class="s0" d="m106.8 318c1.4 1.5 3.3 2.7 5.5 3.3l2.9 0.8-0.6-2.8c-0.2-0.8-0.3-1.8-0.6-2.8 0.4 1.6 0.6 2.9 0.6 2.8l-2.3 2c-1.9-0.5-3-1.3-3.9-1.9-0.8-0.5-1.2-1-1.6-1.4z"/>
			<path id="&lt;Path&gt;" class="s0" d="m64.4 580.8l9 14.7-5.6-9.6z"/>
			<path id="&lt;Path&gt;" class="s0" d="m83.2 608.1c0 0 0.5 0.9 1 1.8 0.5 0.9 1 1.8 1 1.8 0 0 1.8 2 3.7 3.8 0.5 0.5 0.9 0.9 1.5 1.4 0.5 0.5 1.2 1 2 1.3 0.8 0.2 1.5 0.2 1.9 0.2q0.6-0.1 0.6-0.1c-0.6 0.1-1.5 0.1-2.5-0.2-0.9-0.3-1.6-1-2.1-1.5-0.5-0.5-0.9-1-1.4-1.5q-0.7-0.8-1.4-1.5c-1.9-2.1-3.5-4.3-4.3-5.5z"/>
			<path id="&lt;Path&gt;" class="s0" d="m37.2 282.2c0 0 0.1 0 0.3 0.2 0.2 0.1 0.4 0.2 0.4 0.2q-0.1-0.1-0.2-0.3l-0.2-0.2q0 0-0.1-0.1c-0.1 0-0.1-0.1-0.2-0.2q0 0 0 0 0 0 0 0l0.1-0.2 0.1-0.2q0.1-0.3 0.2-0.5l3.9-2.9c0.5 2.4 1.5 5.8 3.6 11-1.4-3.7-2.6-7.3-3.3-11l-4.2 2.9c-0.1 0.5-0.6 1.4-0.5 1.1 0 0 0 0 0 0.1z"/>
			<path id="&lt;Path&gt;" class="s0" d="m52.3 346.5l1.9 3.6-3.1-6.9z"/>
			<path id="&lt;Path&gt;" class="s0" d="m77.4 425.7c1.4 2.4 3 4.9 4.6 7.5l3 4.6 3.2-4.5c0.4-0.5 0.8-1.3 1-2.2 0.2-1 0.1-2-0.1-2.8-0.3-0.8-0.7-1.4-1-1.9q-0.2-0.2-0.3-0.4l-0.2-0.1q-0.5-1.2-1-2.4-0.6-1.6-1.3-3.1-1.3-3.1-2.7-5.9 1.7 3.4 2.9 6.5 0.7 1.5 1.2 2.9c0.4 0.9 0.9 2.2 0.8 2 0 0 0.2 0.2 0.2 0.3q0.2 0.1 0.3 0.3c0.4 0.5 0.7 1.2 1 2 0.2 0.8 0.2 1.8 0 2.7-0.2 0.8-0.6 1.5-0.9 2l-3.2 4.3-2.7-4.4c-3.6-5.9-5.1-8.8-4.8-7.4z"/>
		</g>
	</g>
</svg>