<svg version="1.2" xmlns="http://www.w3.org/2000/svg" viewBox="0 0 133 150" width="133" height="150">
	<title>Vector Smart Object-ai</title>
	<style>
		.s0 { fill: #919191 } 
	</style>
	<g id="Objects">
		<g id="&lt;Group&gt;">
			<path id="&lt;Path&gt;" class="s0" d="m-21.5 48.8c0.1 0.4 0.2 0.9 0.3 1.2q0.2 0.5 0.3 0.7c0.2 0.2 0.2-0.1 0.3 0.2-0.4-1.6-0.5-2-0.5-2.1-0.1-0.2-0.1-0.2-0.2-0.2-0.1-0.1-0.2 0.2-0.2 0.2z"/>
			<path id="&lt;Path&gt;" class="s0" d="m-9.5 59.5l0.1 1c0 0 0.2-2.2 0-4.3 0-2.1-0.3-4.1-0.3-4.1 0 0 0.2 1.8 0.3 3.6 0 1.9-0.1 3.8-0.1 3.8z"/>
			<path id="&lt;Path&gt;" class="s0" d="m-5 62c-0.2-1.3-0.5-3-0.9-5.1-0.3-2.1-0.7-4.5-1.3-6.9-1.4-5-3-10.4-5.2-14.2l2.4-0.2q0 0.2-0.1 0.3c0 0-0.1 0.3-0.2 0.6-0.1 0.2-0.1 0.5-0.1 0.5q0.1 0.3 0.1 0.6l0.3 0.7c0.1 0.7 0.1 1 0.2 1.5l0.2 1.4q0-1.4-0.1-2.9c-0.1-0.5-0.1-0.6-0.1-0.8q-0.1-0.3-0.1-0.6 0.1-0.6 0.3-1.2l-3.1 0.3c2.5 4 3.9 9.1 5.1 13.7 1.2 4.5 1.7 9 2.6 12.3z"/>
			<path id="&lt;Path&gt;" class="s0" d="m-1 38.6c0 0.9-0.3-0.6-0.3-0.7-0.1-0.2 0.2 1 0.9 7.3 0-0.6-0.1-0.8-0.1-1.2-0.1-1.1-0.2-2.7-0.5-5.4z"/>
			<path id="&lt;Path&gt;" class="s0" d="m-0.5 44c0.5 5.5-0.1-3.7 0 0z"/>
			<path id="&lt;Path&gt;" class="s0" d="m-4 44.3c0 0-0.5-1.7-1-3.4-0.5-1.6-1.1-3.2-1.1-3.2 0.2 0.7 0.6 2.5 1 3.9 0.3 1.4 0.5 2.4 0.2 1.3q0.6 2.6 1 3.8c0.2 0.8 0.4 1.2 0.4 1.2 0.1 0-0.1-1.5-0.5-3.6z"/>
			<path id="&lt;Path&gt;" class="s0" d="m-1.9 50.9l-1-3.6c0.1 0.6 0.3 1.6 1 3.6z"/>
			<path id="&lt;Path&gt;" class="s0" d="m-5 39.7c0 0 0.6 1.8 1.1 3.7 0.5 2 1 3.9 1 3.9-0.1-1.1 0.1-1.3-0.9-3.6 0.3 0.6-0.2-0.9-1.2-4z"/>
			<path id="&lt;Path&gt;" class="s0" d="m-6.2 35.6c-0.3-1-0.7-2-1.1-2.8l4.6-1.5c0.3 2.4 0.4 3.7-0.3 0.1l-4 1.3c0.1 0.2 0.3 0.5 0.6 1-0.2-0.4-0.4-0.8-0.5-1.1l3.8-1.2c1 5.6 1.4 8.2 1.5 8q0.1-0.1-0.1-2.1c-0.2-1.4-0.4-3.4-0.9-6l-4.8 1.6c0.4 0.7 0.8 1.7 1.2 2.7z"/>
			<path id="&lt;Path&gt;" class="s0" d="m-2.1 64v0.1l-1.4 0.2c-0.6-1.7-1-3.5-1.3-5.3 0 0-0.2-1.1-0.5-2.2-0.3-1.2-0.6-2.3-0.6-2.3 0.3 1.1 0.7 3.5 1.1 5.7 0.5 2.2 1.1 4.1 1.2 4.1l1.6 0.9-0.1-1.1c0-0.1 0-0.1 0-0.1z"/>
			<path id="&lt;Path&gt;" class="s0" d="m9.3 56.1c-0.2-0.4-0.3 2.5-0.5 3.1 0 0 0.1 1.3 0.2 2.7 0 1.3 0 2.7 0 2.7 0.2-2.8 0.1-8.1 0.3-8.5z"/>
			<path id="&lt;Path&gt;" class="s0" d="m8.8 59.2c0 0-0.1-2.1-0.3-4.1-0.2-2-0.4-4-0.4-4 0.5 7.2 0.5 8.5 0.7 8.1z"/>
			<path id="&lt;Path&gt;" class="s0" d="m-0.8 51.9c0 0-0.3-0.8-0.6-1.9-0.3-1.2-0.7-2.8-1.2-4.4-0.5-1.5-0.9-3.1-1.3-4.3-0.3-1.1-0.6-1.9-0.6-1.9 0 0 0.3 0.9 0.7 2.3 0.4 1.4 1 3.3 1.5 5.2 1 3.7 2 7.5 2 7.5z"/>
			<path id="&lt;Path&gt;" class="s0" d="m5.6 26c0 0 0.1 0.8 0.4 1.6l0.1 0.4 0.1 0.1q0 0.2 0.1 0.4 0 0.2 0.1 0.5 0 0.1 0 0.3c0.1 0.4 0.2 0.7 0.2 0.7l-0.2-0.7v-0.4l-0.1-0.5-0.1-0.3-0.1-0.1-0.1-0.3q-0.1-0.3-0.1-0.5-0.3-1.1-0.3-2.2l-6.2 1.1q0.5 0.9 1 1.8-0.5-0.9-0.9-1.8l6-1.1q0.1 0.5 0.1 1z"/>
			<path id="&lt;Path&gt;" class="s0" d="m5.2 43.5c-1.2-3.2 0.7 4.5-0.4 1.1q0.6 2 1.1 3.9 0.6 1.8 1.1 3.5 1 3.3 1.8 6.3c-1.1-4.3-2.2-8.8-3.6-14.8z"/>
			<path id="&lt;Path&gt;" class="s0" d="m10.5 65.1c-0.4-2.2-1-4.4-1.7-6.8q0.9 3.4 1.7 6.8z"/>
			<path id="&lt;Path&gt;" class="s0" d="m6.5 37.5c0-0.6 0.1-1.9-0.5-6.3l0.1 3.2c0.1 0.9 0.3 2 0.4 3.1z"/>
			<path id="&lt;Path&gt;" class="s0" d="m6.1 34.5v-0.1q-0.4-2.6-0.6-4.3-0.1-0.4-0.2-0.8 0-0.2 0-0.4c0-0.1 0-0.3-0.1-0.4q-0.1-0.3-0.1-0.6-0.1-0.2-0.1-0.3 0.1 0.3 0.2 0.7c0.1 0.7 0.1 1 0.2 1.6 0.2 1.1 0.4 2.6 0.7 4.6z"/>
			<path id="&lt;Path&gt;" class="s0" d="m6.7 38.3c-0.1-0.3-0.1-0.5-0.2-0.8 0 0.3 0.1 0.5 0.2 0.8z"/>
			<path id="&lt;Path&gt;" class="s0" d="m4 72.6q0.1 0.1 0.1 0.2l3.3 6 0.4-6.7c0.1-2.4 0.1-6 0-7.8-0.2-1.8-0.3-1.8-0.6 2.9 0.1 1.7 0.2 1.2 0.4 1.2 0.1-0.1 0.3 0.3 0.2 3.7l-3.7 0.7c0 0 0-0.1-0.1-0.2z"/>
			<path id="&lt;Path&gt;" class="s0" d="m6.7 42.2c0 0 0.1 0.5 0.2 1.3 0.1 0.8 0.2 1.9 0.3 3 0.1 2.1 0.3 4.2 0.3 4.2 0.1-0.2 0.1-1.7 0.5 0.6 0 0-0.3-2.3-0.6-4.5-0.2-1.2-0.3-2.3-0.4-3.2-0.2-0.8-0.3-1.4-0.3-1.4z"/>
			<path id="&lt;Path&gt;" class="s0" d="m6 38.1l0.7 4.1-0.4-3.1z"/>
			<path id="&lt;Path&gt;" class="s0" d="m7.8 51c1.1 3.5 2 7.3 2.9 11.7-0.8-4.7-1.9-9.5-3.2-14.1-0.3-0.6-1-2.5 0.3 2.4z"/>
			<path id="&lt;Path&gt;" class="s0" d="m3.1 33.8c0.1 0.3 0.2 0.6 0.3 0.8-0.1-0.5-0.2-0.9-0.3-0.8z"/>
			<path id="&lt;Path&gt;" class="s0" d="m14.6 39.8c0 0.3 0 0.5 0.1 0.7q0 0.1 0.1 0.2z"/>
			<path id="&lt;Path&gt;" class="s0" d="m7.4 47.8c-0.9-3.5-1.5-5.6-2.2-7.5q1.1 3.8 2.3 8.3c0.2 0.3 0.2 0.3-0.1-0.8z"/>
			<path id="&lt;Path&gt;" class="s0" d="m17.6 69.6c0 1.1 0 2.2 0.1 3.5l-5.3 0.6c-0.1-0.8-0.2-1.8-0.4-2.8 0.1 0.8 0.2 1.8 0.3 2.8l5.4-0.6c0-1.6 0-3.1-0.1-3.5z"/>
			<path id="&lt;Path&gt;" class="s0" d="m3.6 35.8q0-0.3-0.1-0.5c0.2 1.1 0.2 0.9 0.1 0.5z"/>
			<path id="&lt;Path&gt;" class="s0" d="m3.6 35.8c0.7 1.7 1.1 3.1 1.6 4.5-0.6-2.2-1.2-4.1-1.8-5.7 0.1 0.4 0.2 0.8 0.2 1.2z"/>
			<path id="&lt;Path&gt;" class="s0" d="m9.6 26.9c0.3 0.3 0.9 2.8 1.6 6.2 0.7 3.5 1.5 7.9 1.7 12 0.6 4 1 4.7 1.4 3.5 0.3-1.3 0.5-4.4 0.4-8.1-0.3-0.2-0.3-0.2-2-8.4 0.1 1.4 0.8 6 1.1 9.5 0.3 3.4 0.4 5.5-0.2 2-0.8-5.5-1.2-7.7-1.4-9.3-0.2-1.5-0.2-2.4-0.6-5.1 0.2 2.3-0.6-1.1-1.4-4.8-0.2-0.9-0.4-1.9-0.6-2.7-0.1-0.9-0.4-1.7-0.5-2.4-0.3-1.2-0.2-2-0.5-1.4 0 0-0.1 0.6 0.1 1.6q0.1 0.6 0.3 1.5 0.1 0.8 0.2 1.7c0.4 2.4 0.9 4.8 0.9 4.8-0.1 0.2-0.8-3.2-0.5-0.6z"/>
			<path id="&lt;Path&gt;" class="s0" d="m16.2 56.5l0.3 3.5c-0.2-4-0.2-6.8-0.4-12-0.8-5.7-1.2-6.9-1.3-7.3 0 0 0.1 1.1 0.3 2.7 0.2 1.6 0.4 3.7 0.6 5.8 0.4 4.3 0.7 8.5 0.7 8.5z"/>
			<path id="&lt;Path&gt;" class="s0" d="m12.4 71.4c0.2 0.5 0.4 1.3 0.6 2.2l4.1-0.5c-0.5-3.2-0.9-7.5-1.1-3.5q0.2 2.2 0.3 3.6l-2.5 0.3c-1-5.7-1.1-4.3-2.2-9.3 3 15.9-1-4.5 0.8 7-0.6-3.1-1.1-5.9-1.7-8.5q0.8 4.3 1.3 8.2 0-0.2 0-0.3v-0.1c-0.1-0.7-0.1-0.9 0-0.1 0 0 0.1 0.2 0.1 0.3 0.1 0.1 0.2 0.4 0.3 0.7 0.6 4.6 0 0.7-0.3-0.7 0-0.1-0.1-0.2-0.1-0.2q0 0 0 0.1l0.5 3 5-0.5-1-13.1c0.2 3 0.4 6.7 0.8 13.1l-4.6 0.5c0-0.4-0.2-1.3-0.3-2.2z"/>
			<path id="&lt;Path&gt;" class="s0" d="m6.3 58.5c0-0.5 0.1-0.5 0.1-0.6-0.1-1-0.2-1.4-0.1 0.6z"/>
			<path id="&lt;Path&gt;" class="s0" d="m6.2 51.7c0.1 1.2 0.4 2.2 0.5 6.1 0 3.3-0.2 0-0.3 0.1 0.2 2.4 0.5 8.2 0.5 0.9l-0.1-1.2c0-6.6-0.5-15.1-0.3-13.9-0.2 1.9-0.3 3.6-0.3 8z"/>
			<path id="&lt;Path&gt;" class="s0" d="m4.9 35.3c0 0 1 3.2 1.9 6.5 1 3.2 1.9 6.5 1.9 6.5l-1.4-6.8-0.1 0.4c-2-7.4-1.9-5.7-2.3-6.6z"/>
			<path id="&lt;Path&gt;" class="s0" d="m14.6 38.2l0.7 1.8c0 0-0.4-2-0.9-3.9-0.5-1.9-1-3.9-1-3.9 0 0 0.3 1.5 0.6 3 0.3 1.5 0.6 3 0.6 3z"/>
			<path id="&lt;Path&gt;" class="s0" d="m11.7 20.9l0.4 0.6c0 0 0-0.3-0.1-0.7-0.1-0.6-0.2-1.2-0.3-1.7-0.1-0.4-0.2-0.8-0.2-0.9q0 0 0 0v-0.1c0 0 0 0-0.1 0q-0.2 0-0.2 0 0 0 0.2 0c0.1 0.1 0.1 0 0.1 0q0 0-0.1 0.1c0 0.1 0 0.3 0 0.7 0.1 0.4 0.1 0.9 0.2 1.3 0 0.4 0.1 0.7 0.1 0.7z"/>
			<path id="&lt;Path&gt;" class="s0" d="m68.3 47l-0.5-4c0.2 1.9 0.4 3.1 0.5 4z"/>
			<path id="&lt;Path&gt;" class="s0" d="m70.3 75.7l0.2 0.7c-0.2-1.3-0.3-1.9-0.2-0.7z"/>
			<path id="&lt;Path&gt;" class="s0" d="m42.3 39c-0.5-5.9-1.1-12.4-1.4-11.7l-0.1 1.9c0.7 4 1.2 7.1 1.5 9.8z"/>
			<path id="&lt;Path&gt;" class="s0" d="m62.1 81.2q-0.1-0.8-0.2-1.7-0.6-2.1-1-3.8c0.3 1.6 0.7 3.5 1.2 5.5z"/>
			<path id="&lt;Path&gt;" class="s0" d="m64.5 85l0.9 7.6c-0.2-1.7-0.5-4.2-0.9-7.6z"/>
			<path id="&lt;Path&gt;" class="s0" d="m78.4 71.1l-0.4-4.6c0 7.2 0.2 4 0.4 4.6z"/>
			<path id="&lt;Path&gt;" class="s0" d="m26.3 63.2c0.6 4.9 1.2 8.9 1.6 12.3-0.6-6-1-10.8-1.6-12.3z"/>
			<path id="&lt;Path&gt;" class="s0" d="m73.9 57.9c-0.3-2.4-0.5-3.4-0.6-3.3 0.3 2.5 0.5 3.9 0.6 3.3z"/>
			<path id="&lt;Path&gt;" class="s0" d="m30 90q-0.2-1.4-0.4-2.7c-0.6-3.7-1.1-7.4-1.7-11.8q0.4 3.4 0.8 7c0.3 2.5 0.7 5 1.3 7.5z"/>
			<path id="&lt;Path&gt;" class="s0" d="m106 107.7c0-0.4 0-0.9 0-1.3-0.1-0.1-0.1 0.5 0 1.3z"/>
			<path id="&lt;Path&gt;" class="s0" d="m119.6 92.8c-0.2-0.3-0.4-0.6-0.7-1l3.3-1.3c0.1 1.2 0.2 3.2 0.3 5 0-0.9-0.1-2.4-0.3-5l-3.3 1.3c0.1 0.2 0.4 0.5 0.7 1z"/>
			<path id="&lt;Path&gt;" class="s0" d="m22.6 82.4c-1.2-3.9-0.3-0.6 0 0z"/>
			<path id="&lt;Path&gt;" class="s0" d="m20.3 63.9c0.2 0.8 0.4 1.4 0.5 1.4-0.2-0.3-0.3-0.8-0.5-1.4z"/>
			<path id="&lt;Path&gt;" class="s0" d="m31.2 54.8q0-0.2 0-0.4c0 1.2 0 1 0 0.4z"/>
			<path id="&lt;Path&gt;" class="s0" d="m21.2 76.6c0.3 1.4 0.6 3 1.1 4.9-0.2-0.8-0.6-2.4-1.1-4.9z"/>
			<path id="&lt;Path&gt;" class="s0" d="m21.2 77.4c-0.2-1.3-0.4-2.3-0.6-3.3-0.2-0.4-0.2 0 0.6 3.3z"/>
			<path id="&lt;Path&gt;" class="s0" d="m29.4 83.3c0 0.7-0.2 1.5-0.4 2.2l-1.9 7-3.1-6.6c-0.7-1.6-1.2-3-1.7-4.4 0.3 0.7 0.3 1 0.3 0.9q0.6 1.7 1.4 3.5l3.1 6.6 1.9-7q0.3-1.2 0.4-2.2z"/>
			<path id="&lt;Path&gt;" class="s0" d="m86.5 39.3q0.1 0.4 0.2 0.8c1.1 3.6 0.7 2-0.2-0.8z"/>
			<path id="&lt;Path&gt;" class="s0" d="m51 78.7c-0.1-0.2-0.1-0.3-0.1-0.5 0 0.2 0 0.4 0.1 0.6z"/>
			<path id="&lt;Path&gt;" class="s0" d="m52.6 92c-1-5.6-1.3-8.9-1.6-13.2l-0.8 4.5z"/>
			<path id="&lt;Compound Path&gt;" fill-rule="evenodd" class="s0" d="m79.4 76.2l-0.7-9.4c2 11.2 2.5 19.6 2.2 10.6-0.6-0.5-1.4-6.9-2.4-14.2q0.1 2.9 0.1 5.8c0.3 2.4 0.5 4.7 0.8 7.2zm-0.9-13c-0.1-3.9-0.3-7.7-0.7-11.4-0.3-3.1-0.6-6.2-1-9q-0.3-2.2-0.7-4.1c-0.2-1.3-0.4-2.8-0.5-4 0.2 1 0.1 0 0-1.4q-0.6-2.5-1.1-5-0.1-0.1-0.1-0.1l0.1-0.1q-0.2-0.8-0.3-1.6l-1.1-5.6 4.3 3.8q0.6 0.5 1 1.1l0.3-0.1q0.1 0.4 0.2 0.9 0.1 0.1 0.2 0.3c0.3 0.8 0.6 1.5 0.8 2.2-0.4-1.2-0.7-1.8-0.9-2.1q0 0.1 0 0.3c0.6 1.2 0.9 2.3 1.2 3.5q0.3 1.5 0.5 2.9c0.6 2.5 1.3 4.9 1.9 7.4-0.8-3.1-1.3-4.9-1.7-6v0.6l0.2 1 0.3 2q0.2 0.9 0.3 1.9c0.3 1.2 0.6 2.3 0.9 3.6-0.3-1-0.6-2-0.7-2.6q0 0.5 0.1 1 0.1 0.7 0.1 1.3 0.2 0.7 0.4 1.6c0.4 1.7 0.9 4 1.4 6.3q0.3 1.2 0.5 2.3-0.2-3.1-0.7-6.2c0 0 0.3 1.5 0.6 3.1 0.3 1.6 0.6 3.1 0.6 3.1-0.3-3.5-1-7.4-1.3-9.3l0.6 0.8c-0.3-1.5-0.5-2.9-0.8-4.4q0-0.2 0-0.4c-0.5-1.7-0.9-3.3-1-4.5q0.5 2 0.8 3.4-0.1-1.3-0.3-2.6c-0.2-1.3-0.4-2.6-0.6-3.8-0.3-1-0.6-2-1-2.8q0 1 0.1 2-0.3-1.4-0.6-2.9l3.9-1.4c0.8 1.2 1.1 2.3 1.4 3.4 0.3 1.1 0.5 2.2 0.7 3.3 0.2 1.4 0.4 2.8 0.5 4.1q0.5 1.5 1 2.8c-1-2.4-0.4-0.2 0.5 3.2 0.8 3.5 1.8 8.1 2.1 10.6-1-4-2-9.3-3.3-14.4q0-0.1-0.1-0.2 0 0.1 0 0.2 0.6 4.1 1 8.3c1.2 5 2.2 9.4 3 14 0 0-0.7-4.1-1.4-8.2-0.8-4-1.7-8.1-1.7-8.1 1.1 1.2 1.6 7.3 3 11.8 0.9 8.2 2.3 14.5 2.9 21.2-0.2-1.6-0.3-1.8-0.5-3.3 2.2 17.5 1.5 22.6 2.4 29.7 0.1 1.2 0.3 2.7 0.5 4.2q0.1-1.5 0.2-3.1c0 4.9 0.2 3.5 0.5 1.9-0.4-3.3-0.4-5.1 0.4-1.3q0 0.1 0 0.3c0.3-8.5 0.2-9.2 0-13.6l0.4-3.2c-0.2-3.4-0.4-5.3-0.5-6.6-0.1-1.3-0.2-1.9-0.3-2.8-0.1-0.8-0.2-1.9-0.4-4-0.2-2.2-0.5-5.4-1.2-10.5 0.6 3.4 0.5 1.3 0.3-1-0.1-2.3-0.3-4.8 0.2-2.2q-0.4-2.9-0.9-5.7-0.3-1.4-0.7-2.9c-0.8-3.2-1.8-6.6-2.3-8.8-0.5-1.8-0.8-2.8-0.7-1.8-0.2-1.6-0.5-3.7-0.7-6.1l3.4-0.9c0.5 1.3 0.9 2.7 1.2 4q0.4 2 0.7 4c0.4 2.6 0.8 5.1 1.2 7.2q0 0.3 0 0.6c0.7 2.5 1.4 5.7 2.4 10l-0.1-2c1.3 5.4 2.4 11.2 3.4 17.1 0.8 4.3 1.4 8.7 2.1 13.1q-0.1-0.1-0.1-0.3c0.2-1.4 0.1-4.8-0.1-9.1q-0.1-1.6-0.2-3.4-0.1-0.9-0.1-1.9c-0.1-0.3-0.1-0.5-0.1-0.8q-0.1-0.5-0.1-0.9c-0.2-1.3-0.3-2.6-0.4-4.1q-0.1-1 0-2.1c0-0.8 0.1-1.6 0.4-2.6l1.2-3.1 1.9 2.8c1.6 2.5 2.4 5.3 3 7.9q0.5 1.9 0.8 3.7 0.4 1.8 0.7 3.5c0.9 4.4 1.6 8.1 1.8 10.2 2.2 6.2-3.8-17.8-1.5-11 0.5 2.9 0.6 4.2 1.9 10.4v-2.2c1.2 5.6 2.2 10.5 3.1 15.1 0.8 4.5 1.5 8.7 2.1 12.6q0.4 3 0.8 6c0.2-6.4-0.1-10.3-0.6-13.6 0.1-1.9 0.6 4.6 0.6 1.1-0.9-6.8-1.6-13.6-1.6-20.1v-4.3l2.7 3.2c0.9 1.1 1.3 2.3 1.7 3.4 0.3 1.1 0.6 2 0.9 3 0.6 2 1.1 3.9 1.6 5.8 0.9 3.6 1.7 6.9 2.6 9.7-0.7-0.5 0.1 4.4 0.5 8.5 0.5 4 0.9 7.1-0.5 2.9 0 0 0.4 1.6 0.8 3.2 0.5 1.7 1 3.3 1 3.3-0.4-0.5-0.9-2-1.4-4.1-0.6-2.1-1.2-4.7-1.8-7.3-1.2-5.3-2.6-10.8-3.4-12.5q0-0.2-0.1-0.4c0.3 4.5 0.4 9.1 0.3 13.7q-0.1 5.2-0.4 10.3l-0.1 2.5q0 0.7-0.1 1.3l-0.1 1.3q-0.1 2.3-0.1 4.7c0.2 0.9 0.2 1.9-0.2 2.8l-2.2 5.5-0.8-5.9c-1.8-12.3-3.4-24.7-6-36.9q-2-9.1-4-18.2l-1-4.5-0.4-1.9 0.1 0.9 0.3 4.2q0.2 4.3 0.5 8.5l0.2 4.2 0.2 4.3c0.2 3.3 0.3 1.4 0.4 0.1-0.2 9.1 0.8 8.7 1.1 13.7 0 0-0.1 3.3-0.1 6.6 0 1.7 0 3.4 0 4.6 0 1.3 0 2.1 0 2.1 0.2 2.8 0.2 3.2 0.4 2.8 0.1-0.3 0.2-1.3 0.3-1.1q0.1 2.2-0.2 4.5l-4.1 0.3c-1.7-6-2.1-12-2.9-17.6q-1.1-8.7-2.1-16.9c-0.6-4.7-1.2-9.3-1.8-13.7 0.1 3 0.1 6 0.2 9-0.1 1.7-0.3 6.4-0.6 12.5-0.3 5.3-0.6 11.6-0.8 18.1q0.2 1.4 0.3 2.9h-0.3q0 0.1 0 0.1l-3.2 0.1q0-0.1 0-0.1h-0.3q0-2.2 0-4.5c-0.3-5-0.9-9.8-1.3-14.1-0.6-5.4-1-9.8-1.1-12.3 0.3 6.8-0.4-0.9-1.5-7.7l0.2 6.3-1.9-15.5q-0.1-1.1-0.2-1.8c0 4.7-0.1 9.5-0.3 14.2 0.3 3.3 0.6 6.7 1 11.9l-0.6-2c0 0 0.2 2.4 0.2 4.8 0.1 1.3 0.1 2.5 0.2 3.4 0 0.9 0 1.5 0 1.5 0 0-0.2-1.9-0.4-3.9-0.2-2-0.4-4-0.4-4 0.1 9.4 0.1 10.2 0.4 11.4 0.1 0.5 0.2 1.1 0.2 2.9 0.1 1.8 0 4.8-0.5 10h-0.5q-0.1 0.7-0.1 1.4l-3.3 0.5c-0.8-2-1-3.6-1.1-5-0.1-1.4-0.2-2.6-0.1-3.8 0-1.1 0-2.2 0.1-3.3 0-1.1 0.1-2.4 0.3-3.9-0.1-7.7-1.1 13.2-0.7-4.9 0.4-3.2 0.9-10 1.2-15.2-0.1-5.4-0.7 3.1-0.8 7.3 0.2-7 0.4-11.3 0.6-14.5-0.3-2.7-0.6-4.8-0.6-4.8-0.7-2.1-1.4-5.6-2.1-10 0 1.3 0 2.3 0.1 2.9l-0.5 1.8c0.3 8.6 0.3 13.4 0.1 18.6-0.1 2.6-0.3 5.3-0.6 8.6q-0.1 1.4-0.3 2.9c0.2 2.5 0.4 3.8 0.5 4.3 0.1 0.8 0.2 0.1 0.3-0.9 0.1-1.9 0.2-4.8 0.6 1.1q-0.1 2.3-0.4 4.6l-5.7 0.4q-0.2-2.3 0-4.3c0-2 0.1-3.9 0.2-5.6q0.1-1.4 0.2-2.8c-0.3-3.3-0.5-7.4-0.9-12.9l0.2 0.5c0 0-0.4-5.4-0.9-10.9-0.3-2.7-0.6-5.5-0.8-7.5-0.2-1.2-0.3-2.1-0.4-2.7q0 0.3 0 0.6c0.1 6.2-0.2 12.6-0.1 17.3 0.1 6.1 0.4 3.5 0.7 0.8-0.2 3.3-0.3 7.3-0.2 11.4 0 3.8 0.2 7.8 0.2 11.6 0.4-0.1 0.6-12.2 0.7-14.2 0 5.8 0.1 10.7 0.1 14.9h-0.9q0 0.1 0 0.3l-4.9-0.1q0-0.2 0-0.3h-0.9c0.2-2.4 0.3-4.6 0.5-6.6-0.2-3.3-0.4-5.8-0.3-7.1-0.3-8.8 0.4-3.3 0.6-5.7-0.4-6.5-0.7-6-1-6-0.3 0-0.3-0.5-0.8-9.3 0.2 2.1 0.6 5.8 0.6 4.3-0.2-3.3-0.2-8-0.5-12.7-0.2-4.6-0.7-9.3-1.5-12.6l0.5 4.4c-1.2-6-2.3-13.2-3.4-19q-0.4-2.3-0.7-4.2-0.1-0.6-0.2-1.1c0.2 2.2 0.5 5.5 0.9 11.4l-0.1-0.2c1 9.3 0.8 14.4 1.8 19l-0.1-3.3c0.5 5.8 0.6 9 0.7 12.2 0.2 3.2 0.3 6.4 0.6 12.3 0.1 1.4 0.6 7.2 0.5 8.8 0.1 0.1 0.2 1.1 0.4 2.7 0.1 1.6 0.3 3.8 0.3 6.5l-3.4 0.2c-1.5-8.4-3.1-20.2-3.6-23.5 1.5 9.3 1.1 4.9 0.9 2.2-1.3-5.4-1.9-9.1-2.9-16.7-0.5-0.5-1-1-1.8-3.3-0.8-2.3-1.8-6.3-3.7-13.5 0.7 2.2 1.6 5.7 1.4 4.2-0.1-1.5-1.2-4.8-1.5-5.9-0.3-1.5 1.1 3.1 0.9 1.4-0.9-2.6-1.6-5-2.4-7.4 0.7 5.9 1.3 11.8 1.7 17.5 0.5 8.1 0.6 15.7 0.4 21.9 0 3.1-0.1 5.9-0.3 8.3-0.1 2.3-0.2 4.2-0.3 5.6-0.2 1.7-0.2 4.8-0.4 8.1q0 0.2 0 0.4h-0.1q0 0.2 0 0.3l-2.5-0.1q0-0.1 0-0.2h-0.1q0-0.2 0-0.3c-0.3-2.4-0.6-4.9-0.7-6.9l0.4 0.6c-0.9-7-1.3-9.7-1.6-12.7-0.4-3.1-0.7-6.4-2-14.6 1.2 6.8 1.1 3.9 0.7-3 0 0-0.6-2.8-1.2-5.5-0.6-2.8-1.3-5.6-1.3-5.6l0.3-2.3c-0.6-2.4-1.1-5.1-1.6-7.8 0.1 1.6 0.3 3.4 0.6 5.4 0.1 6.1 0.6 12.6 1.2 19.4q0.3 2.5 0.5 5.1l0.2 2.5q0.2 1.3 0.3 2.6c0.5 3.3 1 6.9 1 10.6l-4.8 1c-1.2-2.5-1.8-5.1-2.2-7.6-0.4-2.5-0.6-4.8-0.8-7.2 0.2 1.4 0.3 3 0.5 4.4 0.2 1.4 0.5 2.7 0.6 3.2-0.3-1.9-0.5-3.8-0.8-5.7q-0.4-2.8-0.8-5.5c-0.5-3.6-0.9-7.2-1.4-10.6-0.9-6.7-1.9-12.7-3.2-17.3l-0.2 0.7q-0.2-0.5-0.3-0.9c0.3 2 0.5 4.5 0.7 7.1 0.5 5 0.8 10.6 1.1 14.3l-0.3 1.9c0.4 7.5 0.5 12.9 0.1 17.8l-4.9 0.2q-0.4-2-0.8-3.9c-0.5-5-0.9-9.7-1.6-14.3q-0.3-2.6-0.7-5.1-0.1 0.3-0.1 0.4c0 0 0.2 1.7 0.4 3.5q0.1 1.3 0.3 2.3c0.1 0.6 0.2 1 0.2 1 0.1 2.8-1-4.4-0.4 0.7 0.2 1 0.4 2.2 0.6 3.8q0.1 1.2 0.1 2.6c0 0.9 0 1.9-0.3 3l-1.2 4.3-2-4c-1.3-2.7-2.2-5.6-2.8-8.1-0.6-2.5-1.2-4.7-1.6-6 0.1 0.7 0.3 2.4 0.6 4.5 0.2 0.6 0.2 0.6 0.1 0.2 0 0.2 0 0.3 0 0.5 0-0.2 0-0.3-0.1-0.6-0.1-0.6-0.4-1.5-0.5-1.9-1.7-8.6-1.2-5.4-1.3-5.1-1.2-9.7-2.5-14.9-3.4-22.2 0.4 4-0.7-1.4-1.9-7.1-1.2-6.1-3.1-12.3-2.6-9.1-0.7-3.6-1.2-4.7-1.5-5.6-0.3-0.8-0.5-1.4-1.1-3.6 3.8 9.3 6.1 19.4 8.2 27.6l-1.3-8.2c0.9 2.6 1.8 7.2 2.6 11.6 0.7 4.2 1.3 8.4 1.9 10.9-0.8-3.3-1.8-9.4-1.8-10.2l-0.2 2.1c1 5.8 2 11 3.1 15.8 0.5 2.4 1 4.7 1.6 6.8 0.6 2.2 1.3 4.4 2.3 6.3-0.8-1.9-0.8-2.3-0.6-1.9 0.2 0.4 0.7 1.6 1.3 2.8l0.7 1.4 0.4-1.5c0.3-1.4 0.3-2.9 0.2-3.6-0.2-0.8-0.2-0.8-0.3 0.7 0 0.8-0.1 1.7-0.3 2.6q0 0 0.1 0h-0.1q0 0.1 0 0.2l-0.1 0.3-0.2-0.3q0-0.1-0.1-0.1 0-0.1 0-0.1-0.7-1.5-1.2-3c-0.4-1.9 0.2 0.1 1.3 2.4 0.1-0.9 0.1-1.7 0.1-2.5 0-2.2-0.4-4.7-0.7-7.3-0.2-2.7-0.3-5.4-0.5-8.3-0.1-2.8-0.3-5.8-0.5-8.7q-0.1-2.5-0.3-5-1.9-9.6-4-18.5l0.1-0.2c-1-3.8-2.2-7.6-3.1-11.7l5-1.1q0.7 2.7 1.1 5.4c-0.5-2.3-0.3-1.4 0.1 0.7 0.5 2 1 5.3 1.4 7.8 1 5.4 2.3 14.4 2.4 21l0.4 6.5c1.8 8.1 3.1 13.2 3.6 13.1-0.6-3.5-1.6-8.9-2.5-13.6-0.9-4.7-1.6-8.8-1.5-9.9 1.6 7 3.7 19.3 4.2 19.9 0.2 3.7-0.4 0.4-0.9-2.7-0.5-3.1-1-5.9-0.5-1 0.8 5 1.3 7.1 1.8 9.5-0.8-3.3 0.1 4.5 0.1 6q0.3 2.1 0.6 4c0.3-4.8 0.1-9.2-0.1-13.8-0.2-5.6-0.6-11.5-1.4-18.8 0-1 0.1-2.9 0.3-2.4-0.6-4.3-1.5-9.4-2.4-13.1-0.9-3.6-1.6-5.8-1.6-4.1-1.2-7-1.4-9.4-2-13.1q-0.2-0.9-0.5-1.8c0.2 2.2 0.1 1.4-0.1-0.5q0 0-0.1-0.1c-0.7-2.5-1.6-5.4-2.5-8.5l1.3-0.1q0-0.6 0-0.9l3.4-0.4q0.2 0.5 0.3 0.9l1.3-0.1c-0.1 1.3 0 2.8 0.3 4.5q0.3 1.8 0.6 3.7c0.2 0.7 0.5 1.2 0.5 1.3 0.3 1.4 0.1 1.4-0.2 0.7 0.5 3.4 1.1 6.7 1.6 9.8 0.6 4 1.2 7.6 1.4 10.6 1.6 3 3.3 1.2 2.5-4.8 0.6 0.6 1.7 8.2 2.5 12 0.8 4.7 1.5 8.5 2.2 11.9q0-0.4 0-0.8 0.1 0.9 0.3 1.9 0 0.3 0.1 0.6c0.8 4 1.6 7.7 2.2 12.3l-1.4-6.9c0 0.7 0.6 4.5 1.2 8.3 0.4 1.9 0.7 3.8 1 5.4 0.3 1.6 0.5 2.9 0.6 3.4 0 0.1-0.2-0.4-0.5-1.1q0.5 2.6 1 5c0.3 0.8 0.6 2.3 1.2 3.8-0.1-1.6-0.4-3.3-0.6-4.9v-3c-0.8-7.8-1.9-15.3-3-21.3-0.6-3-1.1-5.6-1.5-7.7-0.5-2.2-0.9-3.8-1.2-4.8-0.9-9 0.6-6 1.1-3.9-1-8.8-2.2-13.1-3.4-17.4-0.5-2.2-1.1-4.2-1.9-6.9-0.4-1.3-0.8-2.8-1.1-4.6-0.3-1.6-0.7-3.4-0.7-5.6q-0.1 0-0.1 0 0 0.2 0 0.5c0.1 0.7 0.1 1.6 0.2 2.5 0.2 1.8 0.5 3.5 0.5 3.5-0.3-1.5-0.9-4.1-0.9-7.3l3.9-0.5c1.6 5.5 3.3 11.8 3.1 10.7 0.5 2.7 0.7 5.3 0.2 4.6q0 0.3 0.1 0.7c0.5 1.4 1.1 3.4 1.8 5.4 1 3.2 2 6.5 2.3 7.4-0.6-1.9-1.2-0.4-1.6-1.3 1.4 6.1 3.2 10.2 2.8 6.9 0.9 5.9 1.2 8.2 1.5 10.2 0.2 2 0.4 3.8 0.8 8.9 0.6 3.6 1-0.5 0.6-3.2 1.4 7.3 1.9 12 2.2 15.7-0.1-4.5-0.2-8.7-0.4-12.1l0.1 2.4c0.2 1.7 0.3-1 0-4.9-0.2-3.8-0.7-8.8-1.1-11.7 0.2 0.9 0.3 2.3 0.6 4.8-0.2-5.6-1-9.1-1.8-12.6-0.8-3.6-1.6-7.1-2.2-12.7 0.9 5 1.4 8 1.7 9.7 0.4 1.7 0.6 2 0.7 1.7-0.7-4.1-1.8-10.9-3-16.2-1.2-5.2-2.2-9-2.2-6.9-0.5-2.6-0.9-5.1-1.2-6.9l-0.9-7 4.4 5.4c0.8 0.9 1.2 1.8 1.4 2.4 0.2 0.6 0.2 0.9 0 0.8 0 0 0.2 0.4 0.4 1q0.1 0.5 0.2 1.2 0.1 0.4 0.1 0.7 0.1 0.4 0.1 0.7c0 0.2 0 0.3 0.1 0.4q0.1 0.4 0.2 0.8 0.3 0.8 0.5 1.7c0.4 1.1 0.8 2.4 1.2 3.6 1.5 4.9 3.1 9.8 3.1 9.8-0.5-1.4-1.2-2.6 0.4 3.1-1.4-4.9-2.9-9.7-4.3-14.1q-0.5-1.7-1-3.2-0.2-0.8-0.4-1.5c-0.1-0.2-0.2-0.4-0.1-0.5 0-0.1-0.1-0.5-0.1-0.8-0.1-1.8-0.7-3.4-1.6-4.8 0.5 3.7 1 6.4 1 3.8 0.5 2.8 1.1 5.7 1.7 8.8q0.1 0.1 0.1 0.2c1.2 3.9 2.5 7.5 3.7 10.8 2.3 6.7 4.5 12.6 6.5 19 0 0 1.1 4.8 2 9.7 0.9 4.9 1.6 9.8 1.6 9.8l0.5 0.7-0.2 3.5q0.3 1.2 0.5 2c-0.2-4.4-0.3-9-0.5-13.1-0.2-6.1-0.3-11.1-0.8-12.3-1.1-9.6-1-4-1.8-10 0.1 0.2 0.3 0.8 0.2-1l-1.3-7.2c-0.1-2.9 1.1 6.7 0.4-1.5q-0.5-3.7-0.9-6.9l3.9-1.3c0.8 1.4 1.2 2.6 1.6 3.9q0.6 1.8 1 3.5c0.5 2.2 0.9 4.4 1.3 6.4 1 4.1 1.9 8.3 2.7 13.1q0.1 0.3 0.2 0.6l-0.8-6.6c0.5 3.7 0.3-0.1 0-5.6-0.5-8-1.4-10.9-2.2-13.4l1.3-0.2q0-0.1-0.1-0.1l2.4-0.4q0 0 0 0l1.3-0.3c0.7 2.4 1.4 4.5 2.5 10.3-0.4-1.7-0.5-2-0.9-3.7l1.1 6.1c0.4 0.2 1.2 2.6 2 6.1 0.8 3.5 1.5 8.1 2.2 12.7q0.3 2.4 0.6 4.7zm-8.8-4.2c0.2 2.8 0 2.9-0.2 1 0.2 1.8 0.4 4.6 0.6 7.4 0.3 4.5 0.4 9.1 0.4 9.1v-0.1c0.3 2.6 0.6 8.5 0.7 11.5-0.2 4.6-0.1-2.4-0.3-1.2l0.3 10.2c-0.4 4.2-0.6-4.3-0.6-11.3-0.7 4.7-0.6 6.8-0.5 10.3 0.1 1.8 0.2 3.9 0.2 6.9 0 2.8 0.1 6.4-0.3 11q0.1 0.4 0.1 0.8h0.1q0 0 0 0.1h0.3q0-0.1 0-0.1l4.1 0.1q0 0 0 0h0.3q0 0 0 0h0.1q0-0.3 0.1-0.7c-0.2 0.1-0.3-0.9-0.5-3.4 0.1-3.1 0-7.3-0.5-13.2 0.4-0.1 0.1-6-0.5-13.4l0.7 0.5c-0.5-4-0.8-5.8-1.1-7.2-0.3-1.4-0.5-2.4-1-4.7-0.5-4.5-0.9-7.1-1-9-0.1-1.8-0.1-2.8-0.1-3.9-2.5-13.8 1 9.2-2-6.1zm-0.2 1c-0.1-1.1-0.2-1.8-0.2-1.8q0.1 1.1 0.2 1.8zm0.5 53.8q0-0.2 0-0.4c0 0.7 0 1.1 0 1.1q0-0.4 0-0.7zm0-4c0-2.4-0.1-4.8-0.1-4.8q-0.1 1.4-0.2 3c0.1 1.6 0.2 3.4 0.3 5.4 0-0.9 0-2.3 0-3.6zm-6.5-24.8c-0.4-1.1-1-3.3-1.6-5.5q-0.2-2.7-0.5-5.4c-1.1-3.8-1.9-6.4-1.2-1.1 0.2 0.7 0.4 1.7 0.6 2.7-0.6-2.4-1.1-3.9-0.9-2.1 0 0 0.7 3.7 1.4 7.4 0.7 3.7 1.3 7.4 1.3 7.4-0.1-1.7-0.3-4.2-0.6-7.2 0.3 1.5 0.7 3 1 4.5q0-0.3-0.1-0.6c0.2-0.9 0.7 3.5 0.7 0.5q0-0.3-0.1-0.6zm0.5 13.5c0.2 3 0.6 5.4 0.8 9.8l2.9-0.3c-0.1-0.1-0.5-1.9-1-4 0 0-0.3-2.9-0.7-5.7-0.3-2.9-0.7-5.7-0.7-5.7 0.7 7-0.7 0.8-2.3-6.9 0.5 6.4 0.8 9.9 1 12.8zm0.1-12.9c-0.2-0.9-0.6-2.6-0.9-4.5q0.1 2 0.3 3.9c0.3 0.7 0.5 0.9 0.6 0.6zm-0.9-4.5q0-0.1 0-0.2 0 0-0.1-0.1 0.1 0.1 0.1 0.3zm0.4 0.8c0-0.4-0.2-1.2-0.5-2.5q0 0.8 0.1 1.5c0.2 0.9 0.4 1.4 0.4 1zm-17.1-64.2c-0.1-0.3-0.2-0.6-0.2-0.8q0-0.4-0.1-0.9-0.1-0.9-0.3-1.7c-0.3-1.1-0.8-2-1.5-2.9l-0.5 0.2c0.2 1 0.4 2 0.6 3.1-1.1-4-1.1-2.7-1.4-1.8q0.5 0.8 0.7 1.6 0.2 0.7 0.2 1.3 0.1 0.4 0.1 0.7 0 0.3 0 0.5-0.1 0.3 0 0.6 0.3 0.8 0.5 1.4 0.1 0.7 0.3 1.1c0.2 0.7 0.4 1.1 0.6 1.2 0.2 1.7 1.1 5.6-0.4 1.2 3.1 10.3 4.8 17 6.8 23.5q-0.4-3.8-1-7.6c-0.6-4.2-1.3-8.3-2-12.3q-0.3-1.2-0.5-2.4-0.9-2.9-1.9-6zm-2.1-6.3l1.1-0.5q-0.2-0.4-0.5-0.7l-3-3.7 0.6 4.8q0 0.5 0.1 0.9l1.2-0.6q0-0.2-0.1-0.5l-0.1-0.5 0.4 0.4q0.1 0.2 0.3 0.4zm-1.3 1.5q-0.2-0.3-0.4-0.6 0.1 0.6 0.1 1.2c0.2 0 0.3-0.2 0.3-0.6zm10.1 23.2q0-0.1 0-0.1 0 0 0 0.1zm-2.4 41.3c-2-12.5-2.5-2.7-3.5-5.2 0 0 0.4 1.8 1 4.6 0.6 2.7 1.3 6.3 2 10q0.2 1.2 0.4 2.3 0.1-1.4 0.1-2.9c0-2.9 0-5.9 0-8.8zm-0.1 14.8c-0.1 1.9-0.1 3.9-0.1 5.7 0 3.6 0 6.9-0.3 9.7q0 0.1 0 0.2l2.6 0.1q0-0.2 0-0.4c-0.5-5-1-8.4-1.3-9.1 0.1-0.2 1.2 2.1 1.4 3.1 0 0-1-5.9-2.3-12.4q0 1.5 0 3.1zm0.2-14q-0.1-0.7-0.1-1.4 0 0.3 0 0.6 0 0.4 0.1 0.8zm-5.3-33.4q0 0.2 0.1 0.4-0.1-0.2-0.1-0.4zm-1.1-5q0 0-0.1-0.2 0.1 0.1 0.1 0.2zm-4.9-15.2q0.1 0.2 0.2 0.4c-0.1 0.4-0.1 1.1 0 2-0.5-2.4-1.2-4.5-1.6-6.1 0-1.1-0.3-2.6-0.6-4.3-0.3-1.7-0.6-3.5-0.6-5.3l-3.7 0.5q0 0.2 0 0.3c0.8 2.4 1.4 4.8 1.6 6.8 0.6 1.5 2.3 7.1 3.8 12.7 1.3 4.7 2.5 9.4 3.2 11.4q0 0 0 0 0 0 0-0.1 0 0.1 0.1 0.1-0.1 0-0.1 0 0.7 3.4 1.3 6.8c-0.1-1.6-0.3-3.1-0.4-4.5q0.1 0.6 0.2 1c-0.1-0.4-0.2-1-0.2-1.7-0.2-1.8-0.3-3.6-0.6-5.7 0.2 1.8 0.3 3.4 0.5 4.8-0.5-3.1-1.2-7.9-2.1-12.5l0.1-2c0-0.4-0.1-0.7-0.2-1.1q-0.1-0.8-0.1-1.4-0.3-0.8-0.5-1.4 0.2 0.6 0.3 0.8c-0.1-0.9-0.3-1.3-0.3-1.3q-0.1 0-0.1 0.2-0.2-0.4-0.2-0.4zm-6.3-12.8q0-0.1 0-0.3 0 0 0 0.3zm12.6 82.8l0.4-0.1q0 0 0-0.1l-0.4 0.1q-0.1-0.6-0.1-1.2-0.4-0.8-0.6-1.7 0.3 1.6 0.4 3l-0.4 0.1q0 0 0 0h0.4q0.1 0.3 0.1 0.6l-2.2 0.5q-0.2-0.3-0.3-0.6l0.5-0.1q0-0.1 0-0.1l-0.5 0.1q-0.4-0.8-0.7-1.4 0 0.2 0 0.4 0.3 0.5 0.5 1.1h-0.4q0 0.1 0 0.1l0.4-0.1q0.2 0.4 0.3 0.7l2.6-0.6q0-0.3 0-0.7zm-3.8-1.7q0-0.1 0-0.2-0.2-0.5-0.4-0.9 0.2 0.6 0.4 1.1zm0.6-14.7c-0.9-5.8-1.8-12-2.5-16.8q-0.1-0.5-0.2-1.1c0.1 5.5-0.2 1.5 0.4 11.1 0 3.6-0.8-5.4-1-8.4 0 0 0.3 5.9 0.7 11.7 0.2 3 0.3 5.9 0.5 8.1 0.1 2.3 0.3 3.7 0.3 3.7 0.1-0.3 0.4 0.8 0.7 2.6 0.2 1 0.3 2.2 0.5 3.6q0.2 0.4 0.4 1c-0.1-2.2-0.5-4.5-0.8-6.9q-0.3-2.2-0.5-4.4l-0.5-4.4c0.3-0.4 0.7 1.3 1.2 4.5 0.3 1.6 0.6 3.5 1 5.7 0.3 2 0.7 4.3 0.8 6.8l1.5-0.3c-0.9-1.7-1.5-3.7-1.9-5.8-0.5-2.3-0.7-4.6-1.1-7-0.2-2.1 0.2-1.4 0.7-0.2 0.2 0.5 0.4 1.1 0.6 1.6q-0.5-2.4-0.8-5.1zm-0.4 17.1l0.3-0.1q0-0.5-0.1-1.1-0.2-0.6-0.4-1.2 0.1 1.2 0.2 2.4zm4.3-0.9q-0.5-1.1-0.9-2.2 0 0.6 0.1 1.1 0.2 0.6 0.5 1.1zm-2.5-6.8q0.4 2.1 1 4.1-0.3-1.6-0.6-3.3c-0.2-0.6-0.3-1-0.4-0.8zm-0.4 7.8l1.6-0.3q-0.1-0.2-0.1-0.3l-1.5 0.4q0 0.1 0 0.2zm-11.2-54.8c-0.1-0.6-1.2-5.5-2.5-10.8-1.2-5.3-2.6-10.9-3.1-13.1-0.8-4.5 1.8 2.3 2.8 4.2q0-0.3-0.1-0.5-0.1-0.7-0.2-1.5c-0.5-1.1-1-2.7-1.3-3.6-0.9-3.4 0.5 0.2-0.9-4.5l-3.7 0.4q0 0.4 0 0.8c0.2 0.4 0.4 1.8 0.6 3.3 0.3 1.6 0.5 3.2 0.7 4.5q0.1 0.2 0.1 0.5c0-0.8-0.2-2.2-0.4-4 0.5 2.5 0.7 4.3 1 5.9q0.1 0.5 0.3 1l0.6 0.3c2.4 8.3 4.8 16.2 7.3 26.4-0.3-1.8-0.5-3.1-0.7-3.9 0.1-1.2 0-2.8-0.2-4.8q-0.2-0.3-0.3-0.6zm-0.2 50.1h0.9q-0.3-1.5-0.6-3.2-0.1 1.6-0.3 3.2zm-7.2-40.6c0.4 0.9 0.7 1.1 0.4-3.5-0.7-7.2-1.5-11.5-2.1-15-0.7-3.5-1.3-6.3-2.5-10.5l-2.1 0.5c0.6 2.8 1.7 6 2.8 10.6-0.6-4.6-1.2-8.4-1.7-10.8h-0.1q0.2 1.4 0.4 2.2-0.2-1-0.4-2.2h0.1c1 4 1.8 9.6 2.4 12.5 0 0-0.3-2.3-0.5-4.6-0.3-2.3-0.7-4.6-0.7-4.6 0.7 3.7 1 7.1 1.5 10.8q0 0.5 0.1 1 0.2 0.9 0.4 1.8c0.2 0.9 0 0.2-0.2 0q0.2 1.9 0.5 3.9c0.2 1.1 0.5 2.5 0.9 4.2q0.4 1.9 0.8 3.7zm-2.3-11.8q0-0.1 0.1 0-0.1-0.9-0.2-1.8-0.6-2.4-1.1-4.3 0.1 0.1 0.1 0.3c0.6 4.7 1.5 10.2 2.2 16q0.2 1.8 0.4 3.7 0.7 3.6 1.4 7.2 0.8 4.2 1.5 8.6c0.3-2.3-0.1-12.6 0.8-1.3l-0.2-4.5q-0.2-0.9-0.4-1.8c-0.2-1-0.4-3.7-0.6-6.9 0 0.9 0 2.3 0.3 5.6-0.6-2.8-1.3-5.8-2-9-0.3-0.8-0.7-2-0.7-1.1-0.4-2.5-0.7-4.7-1-6.8-0.6-3.1-0.7-3.9-0.6-3.9zm-4.5 14.7q0 0 0 0.1zm1.9 10.8q-0.1-0.2-0.1-0.5 0 0.3 0.1 0.5zm-4.4-17.6q0 0.3 0.1 0.7-0.1-0.3-0.1-0.7zm17.4-34.3q0 0.1 0.1 0.2 0-0.1 0-0.2zm9 31.9c-0.1 0.2 0.2 1.5-0.3-0.7q0.2 0.5 0.3 0.7zm3.4-32.9h-0.1q0 0.1 0.1 0.3 0-0.2 0-0.3zm-3 1.4q0 0 0 0 0 0 0 0zm20 23.8c-0.3-2.1-0.5-3.3-1-9.1l-2.3 0.8c0.7 1.3 1.3 3.5 1.8 6.3l0.2-1.2c0.4 0.4 0.8 1.8 1.2 3.8q0.2 1 0.4 2.3c-0.1-1.2-0.2-2.1-0.3-2.9zm10.6 20.2c-0.1-1.2 0-1.7 0-1.7-0.4-3.5-1-9.2-1.5-14.6-0.3-2.7-0.6-5.3-1-7.6-0.3-2.2-0.8-4-1.1-5.1l-2.3 0.5q0 0.1 0 0.2c-0.1 1.7 0.6 5.3 1.6 9.7 1.1 4.3 2.3 9.4 3.2 14.5 0.9 5 1.7 10 2.1 13.6-0.2-3.6-0.5-6.9-1-9.5zm1.2 15.3q0 0 0.1 0.7 0-0.3-0.1-0.7 0 0 0 0zm3.1 36.7c0.4 3.6 0.7 6 0.8 8.4q0 1-0.1 1.3l2.8-0.2c0-0.5 0.1-0.3 0.2 0h0.1c-0.3-2.2-0.2-4.4 0-6.3q0.1-1.3 0.2-2.5-0.1-1.4-0.2-3.3c-1.1-13.5 0.2-5.1 0.1-9.8-0.4-3.4-1-8-1.6-13.3-0.5-3.6-0.9-7.6-1.3-11.7q-0.1 0.3-0.1 0.7c0.1 0.6 0.2 2 0.2 4.8 0 6.1-0.3 11.9-0.6 17.9-0.2 3.1-0.4 6.1-0.6 9.4q-0.1 1-0.2 2.1 0.1 1.3 0.3 2.5zm0.7 9.7l2.8-0.2q0 0 0 0l-2.8 0.2q0 0 0 0zm3-0.2h-0.2q0 0 0 0h0.2q0 0 0 0zm-3 0.2q0 0 0 0h-0.1q0 0 0 0zm-0.2-0.7c-0.1 0.3-0.1 0.5-0.1 0.7h0.1c0-0.2 0-0.6 0-0.7zm4.8-59.4c-0.1-4.3-0.3-9.1-0.8-13.9-0.2-0.9-0.3-1.4-0.3-1.4-0.3-1.6-0.2-1.6 0-0.9q0-0.5-0.1-1.1c-0.6-2.2-1.3-4.5-2.2-8 0.4 0.8 0.7 0.9 1.3 2.5v-0.3q-0.1-0.5-0.2-1-0.8-3.3-1.6-6.5-0.1-0.3-0.3-0.6 0.1 0.1 0.2 0.3 0-0.2 0-0.4-0.2-0.4-0.5-0.7l-3.9 2.3q0 0 0 0.1 0.1 0.2 0.3 0.5c0.1 0.2 0.3 0.7 0.4 1.4 0.1 0.7 0.3 1.6 0.4 2.5q0 0.3 0 0.6c0.8 3.5 1.7 6.9 2.4 10.4 1.1 5.7 2 11.6 2.8 17 0.8 5 1.4 9.6 2 13.5 0-3.6 0.2-9.4 0.1-16.3zm2.9 33.7c0.5 3.7 0.9 7.4 0.9 7.4-1.5-19.3 1 2.8 0.7-5.1 0.8 7.6 0.4 19.7 0 10.3v-1.4c-0.5-1.7-0.2 4.3-0.3 10.6 0.1 6.4-0.4 13.1-0.7 12.8-0.1 1.8-0.3 3.6-0.5 5.3l3.1-0.4c-0.6-1.6-0.6-3.8-0.6-5.9q0.1-1.6 0.2-3.2c0.1-1.1 0.2-2.3 0.2-3.4 0.1-4.3 0.3-8.7 0.5-13.1q0.3-5.5 0.5-11.1 0-0.1 0-0.3c-0.3-3.4-0.6-6.8-1.1-12-0.1 2.5-1-1.2-2.3-10.3-0.5-5.5 0.7 1.5-0.5-5.9 0.4 4.6 0.5 7.7 0.5 10.2 0 2.8-0.2 4.7-0.4 6.6-0.1 1.7-0.3 3.6-0.5 6.3q0.2 1.3 0.3 2.6zm4.2-12.1q0-1.1 0-2.1l0.2 1.9c0.3 1.5 0.6 3-0.2-2.2q-0.2-11.7-1.2-23.3-0.1-2.1-0.4-4.3 0-0.1 0-0.2-0.9-3.8-2.1-8.4c-0.8-3-1.7-6.3-2.3-10.1 0.4 1.2 1.6 5.5 2.5 8.5-0.7-3.4-1.7-6.6-2.3-10l-2.3 0.9c0.3 0.5 0.5 1.3 0.7 2-0.2-0.1-0.4-0.8-0.9-1.5 0.6 3.3 1.4 6.6 2.3 9.8 0.5 2.7 0.5 4-0.8-0.8q0.1 0.6 0.2 1.1c0.4 1.5 0.8 3 1.2 4.4 0.8 3 1.6 5.6 1.7 5.7 1.4 8.5 0.8 6.9 0.1 3.8-0.7-3.1-1.8-7.7-1.3-5.1 0 0 0.4 1.8 0.7 3.5 0.4 1.8 0.7 3.6 0.7 3.6l-0.2-1.6c1.3 5.7 1.7 6.1 3.2 16.7 0.7 6.7 0 3.5 0.3 6.1 0 0 0 0.3 0.1 0.9q0 0.5 0.2 1.4-0.1-0.3-0.1-0.7zm-8.7-49.1l0.2-0.1q0.1 0.2 0.2 0.4 0-0.2-0.1-0.5h0.3q0-0.1-0.1-0.1l-0.2 0.1q0-0.3-0.1-0.6l2.6-1 0.3 0.5-0.2 0.1q0 0 0 0.1l0.2-0.1 0.1 0.1 0.3 0.7-0.2-0.7v-0.2q0 0 0 0h-0.1l-0.2-0.6-3 1.1q0 0.4 0 0.8zm12.2 68.3q0 0.1 0 0.2 0-0.1 0-0.2zm5.4-33.9c0.2 1.5 0.1 2.7-0.1 2.2-0.2-0.4-0.6-2.5-1.3-7.6 0.7 1.3 0.6-1.1 0-5-0.4-1.8-0.8-3.3-1.2-4.7-0.7-3.2-1.4-5.9-1.9-10.6l-3.1 0.9c0.4 1 0.8 2.4 1.2 4.1 0.4 1.7 0.7 3.6 1.1 5.9l-0.1-0.7q0.3 1.6 0.7 3.4 0.4 1.8 0.8 3.8 0.2 1.2 0.4 2.6c1.3 5.2 2.1 8.8 1.5 3.9 1.6 8.4-0.3 0.6 0.6 7 1 4.7 1.9 9.7 2.7 14.8q0.2 1.2 0.4 2.4c-0.3-6.9-0.6-14.1-1.7-22.4zm-7.2-18.6q0-0.4 0-0.7 0 0.4 0 0.7zm16.5 32.3l-0.1-1.1q0-0.6-0.1-1.1c-0.2-1.5-0.3-2.8-0.4-4.2q-0.1-1-0.1-1.9c0-0.6 0.1-1.2 0.3-1.6l-3 0.3c1.5 2.3 2.3 5.2 2.9 8.1l0.6 2.7zm14.6 60.2l0.1 0.3q0 0 0-0.1-0.1-0.1-0.1-0.2zm0.3-40.2c0.2 6.8-0.2 2.2-0.6-2.9 0.1 3.3-0.5-0.1-0.7 0.6q-0.1-2.8-0.1-5.7l-2.5 1c0.6 0.7 1 1.8 1.3 3l1.1 3.6c0.7 2.3 1.3 4.6 1.8 6.9q-0.2-3.3-0.3-6.5zm-3 29.3v-1.1c-0.1 2.4-0.2 4.5-0.3 6.6-0.2 2.1-0.2 4-0.1 5.8v0.2 0.2c0.1 0.4 0.1 0.7 0 1l3.1 0.3c-0.9-6.3-1.7-11.9-2.5-17.6q0 2.1-0.2 4.6zm-14.4-31.9q0.1 0.9 0.2 1.9 0.1 0.8 0.3 1.6v-0.4c-0.4-5.4-0.4-3.8-0.5-3.1zm0.3 5.7l0.5 2.4c0.3 6.3 0.1 9.5-0.2 9.7 0-1.5-0.3-4.3-0.4-6 0.1 4.2 0.4 9.9 0.7 15 0.2 2.6 0.4 4.9 0.5 6.7 0.1 1.4 0 2.4 0 3.1q0-0.2 0-0.6c0.1-0.8 0.1-1.9 0.1-3-0.1-2.2-0.2-4.5-0.2-4.5 0.3 3.4 0.6 6.9 0.2 10.2l4.3-0.3c-1.6-5.4-2.1-11.6-3-17.9-0.8-5.6-1.6-11.3-2.3-17zm1 31c0 0.4 0 0.7 0 0.7q0-0.3 0-0.7zm-9.3-21.7c0-4.4-0.2-2.7-0.4-1.2 0.1 1.2 0.2 2.5 0.4 3.8 0.6 5.4 1.1 11.4 0.8 8.5 0 2.4-0.3 0.3-0.9-3.3-0.3-2.3-0.7-5.1-1-7.8-0.5 5.5-0.7 10.2-0.8 14.5q0.2 2.2 0.3 4.5l3.2-0.1q0-1.5 0-2.9c-0.2-3.3-0.6-6.2-0.9-8.9-0.4-3.3-0.6-6.3-0.7-9.3q0 1 0 2.2zm-4-34.2q0 0.2 0 0.3 0-0.2 0-0.3zm-9.6-47.5l-2.4 0.9q0 0 0.1 0.1l2.4-0.9q-0.1-0.1-0.1-0.1zm-2.7 1.1h0.2q0 0 0 0l-0.2 0.1q0-0.1 0-0.1zm3.4-1.2l-0.3 0.1c0.6 2.6 1.6 7 2.9 11.9q-0.1-1-0.2-2c-1-2.9-1.8-6.3-2.4-10zm-3.7 1.4q0.1 0.1 0.1 0.1 0-0.1 0-0.2zm4.2 45.6c-0.3-9.8-0.4-10.9-0.1-10.6 0.1 0.3 0.4 1.6 0.4-0.8q-0.1-1-0.3-2.2 0.2 0.7 0.3 1.3 0-0.2 0-0.4 0.1 0.3 0.1 0.6c0.6 2.5 1.3 5.4 1.6 10.2 0.2 0.5 0.7 2.8 0.9 3.3-0.5-6.7-2.3-16.7-3.2-21.3 0.3 1.8 0.6 3.9 0.8 5 0 0-0.7-3.2-1.5-6.9 0.7 7.4 0.6 14.5 1 21.8zm-0.6 28.3q0-0.3 0.1-0.8-0.1 0.4-0.1 0.8zm-6.3-33.3q0-1 0-2-0.2-1.8-0.5-3.8 0.2 2.9 0.5 5.8zm-38.7-45.9q0 0 0 0 0 0.1 0.1 0.3-0.1-0.1-0.1-0.3zm6.1 69.5q0 0 0 0.1h-0.3q0 0 0 0zm-2.8 0.7q0-0.1 0-0.1h0.1q0.1 0 0.1 0zm-16.8-11.3q0 0.4-0.1 0.7 0 0 0.1 0h0.3q0 0 0-0.1-0.1-0.3-0.3-0.6zm48-18.2q0.2 2.8 0.3 5.8c0.2-0.3 0.1-2.5-0.3-5.8zm10.3-36.7v0.1h-0.1zm20.6 63.5c0.3 3.8 0.4 3.8 0.5 3.3q-0.2-1.7-0.5-3.3zm-19.2-26.7q-0.1-1-0.2-2.1 0-0.1-0.1-0.1 0.1 0.5 0.1 0.9 0.1 0.7 0.2 1.3zm-11.1 48.8h-0.3c0-1.1 0-2.3 0-3.8 0.1 1 0.2 2.4 0.3 3.8zm-4.4 0h-0.3c0.1-2.4 0-5 0.2-6.2 0.4 2.1 0.4 3.8 0.1 6.2zm0 0l4.1 0.1q0 0 0 0l-4.1-0.1q0 0 0 0zm-9.7-45.5c-0.5-3.5-1.1-6.6-1.7-8.6q0.9 4.8 1.7 8.6zm-34.6-22.4q0.1 0.1 0.1 0.3c-0.5-4.3-0.7-6.4-0.1-0.3zm0.9 12.2q0.2 0.7 0.3 1.3 0 0.1 0 0.1c0 0.6-0.1 0.7-0.2-0.6q0-0.4-0.1-0.8zm62.9 17.8v0.6q0-0.2 0-0.3 0-0.1 0-0.3z"/>
			<path id="&lt;Path&gt;" class="s0" d="m64.2 84.5c0 0.7 0 1-0.1 1.2 0.2 1 0.3 1 0.1-1.2z"/>
			<path id="&lt;Path&gt;" class="s0" d="m78.5 72v-0.5q0-0.3-0.1-0.4z"/>
			<path id="&lt;Path&gt;" class="s0" d="m28.9 15.2c0.6 2.5 1 3.9 1.1 4.9 0.2 0.1 0-1.1-1.1-4.9z"/>
			<path id="&lt;Path&gt;" class="s0" d="m14.4 44.2l1.8 7.9c-0.8-3.8-1-5.3-1.4-7.2 0 0.2 0.1 1.7-0.4-0.7z"/>
			<path id="&lt;Path&gt;" class="s0" d="m14.1 59c0.1 1.2 0.2 2.5 0.3 3.7l0.2-0.4c-0.3-5-0.8-8.5-0.5-3.3z"/>
			<path id="&lt;Path&gt;" class="s0" d="m14.4 36.5c0.2-0.7-1-5.6-2.9-10.9q0.2 0.5 0.4 0.9c-0.6-0.7-0.3 0.4 0.3 2.3 0.6 2 1.4 4.8 2.2 7.7z"/>
			<path id="&lt;Path&gt;" class="s0" d="m11.1 24.4c-0.6-1.6-1.3-3.2-2-4.8-0.5-0.5 0.9 1.9 2 4.8z"/>
			<path id="&lt;Path&gt;" class="s0" d="m28.6 75.6c0.3 2.8 0.8 1.7 0.8 3.3 0.2 0.8 0.1 0-0.1-1.4-0.2-1.3-0.5-3.2-0.8-4.5-0.1-1.4-0.3-2.6-0.4-2.5 0 0.1 0 0.5 0.1 1.4 0 0.4 0 0.9 0.1 1.5q0.1 0.9 0.3 2.2z"/>
			<path id="&lt;Path&gt;" class="s0" d="m14.6 31.7c0 0 0 0.6 0 1.1 0 0.5 0 1 0 1l1.1 3c0 0-0.2-1.2-0.5-2.5-0.3-1.3-0.6-2.6-0.6-2.6z"/>
			<path id="&lt;Path&gt;" class="s0" d="m23.3 75.8c0 0-0.4-2.3-0.9-4.5-0.4-2.2-0.8-4.5-0.8-4.5 0 0.2-0.3-0.9-0.6-2.3 1 5.5 2.2 11.5 2.3 11.3z"/>
			<path id="&lt;Path&gt;" class="s0" d="m21 64.5c-0.5-2.9-1-5.6-1.4-7.2 0.3 1.6 0.9 4.9 1.4 7.2z"/>
			<path id="&lt;Path&gt;" class="s0" d="m17.5 43.8l0.4 2.7 1.3 6.3z"/>
			<path id="&lt;Path&gt;" class="s0" d="m24.9 45c0 0 0.5 2.5 1 4.9 0.5 2.4 1 4.8 1 4.8 0.3 1 0-1.7-0.8-5.3-0.6-2.3-1.3-5.9-1.2-4.4z"/>
			<path id="&lt;Path&gt;" class="s0" d="m20.1 27.1c-0.3-2.7-0.3-2.9-0.4-4.4l-0.7-0.1c0 0 0.3 1.1 0.6 2.2 0.3 1.1 0.5 2.3 0.5 2.3z"/>
			<path id="&lt;Path&gt;" class="s0" d="m26.2 43.7c0.4 0.9 3.2 14.1 0.8 1.7-0.4-1-2.5-10.7-0.8-1.7z"/>
			<path id="&lt;Path&gt;" class="s0" d="m31.5 30.4l-0.7-2.4-0.9 0.6z"/>
			<path id="&lt;Path&gt;" class="s0" d="m35.7 30.9c0.9 5.7 1.1 6.4 1.3 6.9 0.2 0.5 0.5 0.9 1 6.2 0.3 1.3 0.1-0.8-0.1-3-0.3-2.1-0.5-4.2-0.2-2.8-1.3-7-1.9-10.6-2-7.3z"/>
			<path id="&lt;Path&gt;" class="s0" d="m37.7 38.2q0.3 1.6 0.6 3.5c-0.3-2-0.5-3-0.6-3.5z"/>
			<path id="&lt;Path&gt;" class="s0" d="m126.3 119.1c0 0 0.4 1.9 0.7 3.7 0.4 1.9 0.9 3.8 0.9 3.8 0 0-0.3-1.2-0.5-2.5-0.2-1.2-0.4-2.4-0.4-2.4z"/>
			<path id="&lt;Path&gt;" class="s0" d="m130.8 133.1c0 0 0 0.5 0 1 0.1 0.5 0.1 1 0.1 1l0.8 1.4 3.6 6.5 0.5-7.1c0-0.6-0.1-1.1-0.3-1.5q-0.2-0.5-0.3-0.8c-0.2-0.2-0.3-0.4-0.2-0.7-0.1 0.2-0.1 0.5 0 0.7q0.1 0.2 0.2 0.8c0.2 0.3 0.3 0.9 0.2 1.5l-0.7 6.8-2.7-6.3c-0.5-1.3-1-2.5-1.2-3.3z"/>
			<path id="&lt;Path&gt;" class="s0" d="m75.1 89.8l-0.2-0.6c-0.1 1.2 0 3 0.1 6.5z"/>
			<path id="&lt;Path&gt;" class="s0" d="m66.9 37.6l0.1 1.7 0.3-3.3z"/>
			<path id="&lt;Path&gt;" class="s0" d="m82.8 102.5c-0.2-3.5-0.6-7.7-0.9-11.2 0.7 7.7 0.2 12.2 0.9 11.2z"/>
		</g>
	</g>
</svg>