<svg version="1.2" xmlns="http://www.w3.org/2000/svg" viewBox="0 0 535 123" width="535" height="123">
	<title>Vector Smart Object-ai</title>
	<style>
		.s0 { fill: #232323 } 
	</style>
	<g id="Objects">
		<g id="&lt;Group&gt;">
			<path id="&lt;Path&gt;" class="s0" d="m-124 52.6c0.1-0.1 0.1-0.1 0.1-0.2 0 0 0 0 0.1 0q0 0 0.1 0 0.3 0 0.7 0c0.4-0.1 0.9-0.2 1.3-0.2q1.1-0.3 1.4-0.5c0.5-0.2 0-0.2 0.8-0.4-1.1 0.2-1.8 0.4-2.3 0.5q-0.9 0.2-1.4 0.2-0.4 0-0.5 0 0 0 0 0-0.1 0.2-0.1 0.3l-0.1 0.2q-0.1 0.1-0.1 0.2l0.8 3.6c0.1-0.1 0.2-0.2 0.3-0.3q0.1-0.1 0.2-0.2c0-0.1 0-0.1-0.1-0.1-0.2 0-0.3 0.1-0.4 0.2q-0.2 0.1-0.2 0.1l-0.6-3.3q0-0.1 0-0.1z"/>
			<path id="&lt;Path&gt;" class="s0" d="m-2.8 24.9l-2.1 0.8c0 0 4.5-1.4 8.9-2.7 2.2-0.7 4.5-1.4 6.1-1.9 1.7-0.4 2.8-0.7 2.8-0.7 0 0-1 0.3-2.5 0.6-1.4 0.4-3.4 1-5.3 1.6-4 1.2-7.9 2.3-7.9 2.3z"/>
			<path id="&lt;Path&gt;" class="s0" d="m-61.7 53.1c2.7-1 6.6-2.2 11.3-3.6 2.3-0.7 4.7-1.6 7.4-2.5q3.9-1.3 8.1-2.8c5.6-2 11.5-4.1 17.1-6.4 5.7-2.3 11.1-4.6 15.8-6.8l3.2-1.4c0 0 2-1.1 4.1-2.3 2-1.2 4-2.5 4-2.5-5.6 3.1-11.7 6.1-18 8.9-6.3 2.9-12.9 5.5-19.4 7.8-6.4 2.4-12.7 4.5-18.4 6.5-5.6 1.8-11 3.3-15.2 5.1z"/>
			<path id="&lt;Path&gt;" class="s0" d="m-4.8 41.6c-1.9 0.5 1.4-0.6 1.7-0.8 0.3-0.1-2.2 0.9-15.7 5.2 1.4-0.4 1.8-0.5 2.6-0.7 2.4-0.8 5.7-1.8 11.4-3.7z"/>
			<path id="&lt;Path&gt;" class="s0" d="m-16.2 45.3c-11.9 3.7 7.8-2.2 0 0z"/>
			<path id="&lt;Path&gt;" class="s0" d="m38.1 27.1c0 0-0.9 0.3-2.3 0.8-0.7 0.2-1.5 0.5-2.3 0.8q-0.4 0.2-0.7 0.3l-0.2 0.1q-0.2 0-0.3 0.1l-0.4 0.1q-0.7 0.3-1.5 0.5c-3.8 1.2-7.7 2.6-7.7 2.6 1.7-0.5 5.9-1.8 9.2-2.7q0.3-0.2 0.7-0.3 0.3-0.1 0.7-0.2 0.5-0.2 0.9-0.3 0.9-0.3 1.3-0.5c0.6-0.2 0.5-0.1-0.6 0.3 3.7-1.3 6.4-1.9 8.1-2.2 1.8-0.4 2.5-0.5 2.6-0.6 0 0-0.8 0-2.1 0.2-1.3 0.2-3.2 0.5-5.4 1z"/>
			<path id="&lt;Path&gt;" class="s0" d="m51.2 24.7c0 0-0.3-0.1-0.7-0.3-0.4-0.1-0.9-0.1-1.6 0q-0.2 0.1-0.5 0.2-0.3 0.1-0.5 0.2c-0.2 0.1-0.4 0.1-0.6 0.1q-0.5 0.1-0.9 0.1-0.3 0.1-0.6 0.1c-0.7 0.1-1.2 0.2-1.2 0.2q0.5 0 1.2-0.1 0.3-0.1 0.7-0.1 0.3 0 0.5 0c0.3-0.1 0.6-0.1 0.8-0.1q0.4-0.2 0.7-0.3 0.2-0.1 0.4-0.1 0.3-0.2 0.7-0.2c0.5 0 1 0 1.6 0.3z"/>
			<path id="&lt;Path&gt;" class="s0" d="m27.7 30.3c0 0 1.1-0.3 2.7-0.9q0.6-0.2 1.3-0.4l0.3-0.1 0.3-0.1c0.1 0 0.1 0 0.3-0.1q0.3-0.1 0.7-0.3c0.9-0.3 1.9-0.7 2.9-1 2.1-0.7 4.1-1.3 5.7-1.6 1.6-0.3 2.7-0.5 2.7-0.5-1.2 0.1-1.8 0.1-2.8 0.3-1 0.2-2.4 0.5-4.9 1.5 0.6-0.3 0.1-0.2-1.3 0.4q-1.2 0.4-3 1.2c-0.6 0.2-0.9 0.2-1.2 0.4q-0.6 0.2-1.2 0.4-1.1 0.3-2.5 0.8z"/>
			<path id="&lt;Path&gt;" class="s0" d="m18 33.3c-8.7 2.8-19.9 6.6-4.5 1-14.7 5.2-21.1 7.4-19.9 7.2 0.5-0.1 3-0.9 7.1-2.3 4.1-1.3 10-3.3 17.3-5.9z"/>
			<path id="&lt;Path&gt;" class="s0" d="m-60.1 55.7q-1.7 0.3-3.3 0.6l-0.5-1.3c2.8-1.4 5.6-2.3 8.4-3.2 0 0 2.6-0.9 5.1-1.8 2.5-0.8 5-1.7 5-1.7-3.5 1.4-13.7 3.9-18.5 6.5l0.5 1.6c2.2-0.4 3.5-0.7 3.3-0.7z"/>
			<path id="&lt;Path&gt;" class="s0" d="m-24.5 56.1c-0.9 0.5 5.3-1.3 6.5-1.6 0 0 2.9-1 5.7-2 2.8-1 5.7-2.1 5.7-2.1-5.9 2-17.1 5.7-17.9 5.7z"/>
			<path id="&lt;Path&gt;" class="s0" d="m-18 54.5l-17 6c15.3-5 18.1-6.1 17-6z"/>
			<path id="&lt;Path&gt;" class="s0" d="m51 24q0.5-0.6 0.9-1.4l0.3 2q-1-0.9-2.2-1-0.6 0-1.2 0.1-0.3 0.1-0.6 0.3l-0.6 0.2-0.6 0.1c-2.4 0.2-4.5 0.7-6.7 1.2q-3.3 0.8-6.4 2c-0.5 0.2-1 0.4-1.6 0.7-0.5 0.2-0.7 0.2-1 0.3l-0.8 0.3-3.3 1.1 3.3-1.1 0.8-0.3c0.3-0.1 0.5-0.1 1-0.3 0.6-0.3 1.1-0.4 1.6-0.7q3.1-1.2 6.4-2c2.2-0.5 4.3-0.9 6.7-1.2h0.6l0.6-0.3q0.3-0.1 0.6-0.2 0.6-0.2 1.2-0.1 1.1 0 2.2 0.9l-0.4-2c-1 2-2.6 3.5-4.6 4.4 0 0 1.2-0.5 2.1-1.2 1-0.8 1.7-1.8 1.7-1.8z"/>
			<path id="&lt;Path&gt;" class="s0" d="m11.9 51.9l-9.6 3.7 17.1-6.5z"/>
			<path id="&lt;Path&gt;" class="s0" d="m55.1 36.4c-7 2.9 10-3.1 2.5-0.2 5.8-2.1 11.2-4.1 16.3-6.1 5.1-2.1 9.6-4.1 14-5.5-4.6 1.4-9.4 3.5-14.9 5.5-5.4 2-11.2 4-17.9 6.3z"/>
			<path id="&lt;Path&gt;" class="s0" d="m87.9 20.9c2-1.1 3.9-2.3 5.9-3.8l2 5.7c-2.4 0.2-5.1 0.8-7.9 1.8 2.7-0.9 5.3-1.5 7.9-1.7l-2-5.8q-2.8 2-5.9 3.8z"/>
			<path id="&lt;Path&gt;" class="s0" d="m-13.9 59.8c1.4-0.4 4.1-1 13.7-4.1l-6.9 1.8c-2 0.7-4.4 1.5-6.8 2.3z"/>
			<path id="&lt;Path&gt;" class="s0" d="m-7.3 57.6l0.2-0.1c7.3-2.4 12.4-4.2 14.6-4.9-1.9 0.6-6.3 2.1-14.8 5z"/>
			<path id="&lt;Path&gt;" class="s0" d="m-15.6 60.3c0.7-0.2 1.1-0.3 1.7-0.5-0.6 0.2-1 0.3-1.7 0.5z"/>
			<path id="&lt;Path&gt;" class="s0" d="m9.7 45.1c-4.8 2.1-12.4 5.1-16.3 6.6-3.9 1.5-4 1.8 6.1-1.7 3.5-1.5 2.4-1.2 2.2-1.3-0.1-0.1 0.7-0.5 8-3.6z"/>
			<path id="&lt;Path&gt;" class="s0" d="m-24.2 62.5l-7.2 2.2-0.9 0.2-0.3 0.1q-0.1 0-0.2 0.1l-0.4 0.2q-0.2 0.2-0.5 0.3-0.5 0.3-1.1 0.5c-1.5 0.6-3.3 0.6-4.9 0.1l-5.1-1.8 5.1-1.7 3.9-1.3c-0.3 0-3.7 0.9 1.3-0.8l-5.3 1.8-5.9 2.1 5.9 1.9c1.6 0.6 3.6 0.5 5.1-0.1q0.6-0.2 1.1-0.5 0.3-0.2 0.5-0.3l0.3-0.2q0.1-0.1 0.2-0.1l0.3-0.1 0.9-0.3z"/>
			<path id="&lt;Path&gt;" class="s0" d="m-15.2 59.5l-9 3 6.8-2.1z"/>
			<path id="&lt;Path&gt;" class="s0" d="m72 29.7c3.7-1.5 7.4-3.1 11.3-4.6 3.9-1.4 8.1-2.7 12.4-3l-1.5-4.4q-0.7 0.6-1.5 1.1 0.7-0.5 1.5-1l1.5 4.2c-4.7 0.3-9.6 1.9-14.4 3.7-2.5 0.9-4.9 1.9-7.3 2.8-2.5 1-4.9 1.8-7.3 2.7-1.4 0.6-5.8 2.5 5.3-1.5z"/>
			<path id="&lt;Path&gt;" class="s0" d="m33.5 43.4c0.6-0.2 1.3-0.4 1.8-0.6-1.1 0.3-2 0.6-1.8 0.6z"/>
			<path id="&lt;Path&gt;" class="s0" d="m1.2 60.2c0.5-0.2 1-0.3 1.5-0.5 0.1-0.1 0.2-0.1 0.3-0.2z"/>
			<path id="&lt;Path&gt;" class="s0" d="m65 31.7c-7.9 2.8-12.5 4.6-16.9 6.3 5.9-2.1 12-4.4 18.6-6.8 0.6-0.3 0.7-0.4-1.7 0.5z"/>
			<path id="&lt;Path&gt;" class="s0" d="m62.9 33.4c4-1.8 8.4-3.8 13-6-3.8 1.7-11.6 5.3-13 6z"/>
			<path id="&lt;Path&gt;" class="s0" d="m37.9 42c-0.4 0.1-0.7 0.2-1.1 0.4 2.5-0.8 2.2-0.8 1.1-0.4z"/>
			<path id="&lt;Path&gt;" class="s0" d="m37.9 42c4-1.5 7.1-2.8 10.2-4-4.7 1.7-9 3.4-12.8 4.8 0.9-0.3 1.9-0.6 2.6-0.8z"/>
			<path id="&lt;Path&gt;" class="s0" d="m-9.5 67.6c-0.5 0.3-3.7 1.5-8.6 2.6 7.7-3.2 19.7-7.8 30.7-11.9 8.5-3.5 9.9-4.5 7.2-3.9-2.7 0.6-9.4 2.7-17.1 5.3-0.5 0.4-0.4 0.5-18 7.6 3.1-1.1 13-4.8 20.2-7.5 7.2-2.6 11.8-4.3 4.4-1.2-21 8.4-19.8 7.6-27.8 10.5l0.6 2.2c0.9-0.1 1.9-0.3 3.1-0.6-5.2 0.9 2.7-0.9 10.8-3.8 8.2-2.9 16.8-6.2 14.1-5.7 0 0-1.3 0.5-3.3 1.2-1.9 0.7-4.5 1.6-7.1 2.5-2.6 0.9-5.2 1.8-7.2 2.5-1.9 0.6-3.3 1-3.3 1-0.4 0 7.2-2.5 1.3-0.8z"/>
			<path id="&lt;Path&gt;" class="s0" d="m36.2 46.2l7.1-3.2c-8.1 3.5-14 5.9-25 10-12 5-14.5 6-15.3 6.5 0 0 9-3.5 17.9-7.1 4.5-1.7 8.9-3.6 12.2-5 3.3-1.4 5.5-2.3 5.5-2.3z"/>
			<path id="&lt;Path&gt;" class="s0" d="m75 28.1c-5.3 3.1-22.1 11.3-11.6 6.8 10.4-4.9 13.9-6.8 16.5-8.2 1.2-0.6 2.2-1.2 3.6-2 1.5-0.7 3.3-1.7 6.2-3.4-3.9 2.2-6.9 3.6-8.9 4.6-2.1 1-3.2 1.6-3.7 1.8-1.1 0.5 0.4-0.2 2.1-1.1 1.8-0.9 3.8-2 3.9-2.1 0-0.1-0.4 0.1-1.6 0.7-1.2 0.5-3.2 1.4-6.2 2.9 6.5-3.3 12.4-6 17.4-9.3-5.5 3.4-11.3 6-16.8 8.6 0.3-0.1 0.5-0.2 0.8-0.3l0.1-0.1c1.5-0.6 2-0.8 0.3-0.1-0.1 0.1-0.5 0.3-0.7 0.4-0.2 0.1-0.8 0.5-1.4 0.8-9.7 4.6-1.6 0.7 1.4-0.8 0.1-0.1 0.4-0.3 0.4-0.3q0 0-0.1 0.1c0 0-2.1 1-5.2 2.5-3.1 1.6-7.3 3.6-11.4 5.6-8.4 4-16.8 7.8-16.8 7.8 7.2-3.2 16.1-7.2 31.7-14.9z"/>
			<path id="&lt;Path&gt;" class="s0" d="m-18.8 57.5c-1.1 0.3-1.1 0.2-1.1 0.2-2.3 0.9-3.2 1.2 1.1-0.2z"/>
			<path id="&lt;Path&gt;" class="s0" d="m-33.3 62.1c2.5-1 4.6-1.8 12.9-4.6 7.2-2.3 0 0.2 0.5 0.2 4.9-1.8 17.3-6.3 1.6-1.1l-2.5 0.9c-6.1 2-13 4.2-18.6 5.9l-3 0.9 3 1.1c1.1 0.4 2.2 0.5 3.3 0.3 1.1-0.2 2-0.6 2.8-1.1 0.1 0 0.2-0.1 0.3-0.2q0.2 0 0.4-0.1 0.6-0.1 1.1-0.3 1-0.2 1.7-0.4c2.2-0.6 3.1-0.8 2.4-0.6-1.5 0.3-3 0.6-4.8 1q-0.3 0.1-0.6 0.2l-0.3 0.1-0.2 0.1c-0.5 0.2-1.1 0.5-1.7 0.7-1.2 0.4-2.8 0.6-4.3 0l-2.1-0.8 2.1-0.5c1.1-0.3 3.3-1 6-1.7z"/>
			<path id="&lt;Path&gt;" class="s0" d="m37.3 40.8l29-10.7-14.9 5 0.8-0.1c-16.6 5.9-12.9 4.9-14.9 5.8z"/>
			<path id="&lt;Path&gt;" class="s0" d="m-2.2 61.3l3.7-1.9-16.4 7z"/>
			<path id="&lt;Path&gt;" class="s0" d="m3.8 66.3l-1.2 0.9c0 0 2.5-1 4.9-1.9 2.5-0.9 5-1.8 5-1.8z"/>
			<path id="&lt;Path&gt;" class="s0" d="m297 60.5c0 0-1.9 1.2-3.8 2.4-2 1.1-4 2.3-4 2.3 3.8-2.2 6.1-3.6 7.8-4.7z"/>
			<path id="&lt;Path&gt;" class="s0" d="m340.2 23.5q0 0 0 0-0.1 0.1-0.1 0.1-0.1 0.1-0.2 0.1c-0.4 0.3-0.7 0.5-0.7 0.5q0.5-0.3 0.9-0.5c0.1-0.1 0.1 0 0.1-0.1q0.1 0 0.2-0.1c0 0 0-0.1 0.1-0.1q0.2-0.3 0.4-0.4 0.4-0.3 0.4-0.4 0.1 0-0.3 0.2-0.2 0.2-0.5 0.4-0.1 0.1-0.1 0.2-0.1 0-0.1 0 0 0-0.1 0.1z"/>
			<path id="&lt;Path&gt;" class="s0" d="m248.5 12.1q-0.9 1.6-2.6 2.6-0.8 0.5-1.8 0.9l-0.7 0.3c-0.3 0.1-0.6 0.4-0.8 0.4q-0.5 0.3-1 0.6c-2.8 1.6-5.4 3.2-7.6 4.4-4.4 2.6-7.3 4.2-6.5 4l3.7-1.7c3.9-2.4 7.4-4.6 10.5-6.5q0.6-0.4 1.1-0.7c0.3-0.1 0.6-0.4 1-0.5l0.3-0.1q0.1-0.1 0.2-0.1 1-0.5 1.8-1c1.1-0.7 1.9-1.6 2.4-2.6z"/>
			<path id="&lt;Path&gt;" class="s0" d="m264.7 39.4q1.7-1 3.4-2c2.6-1.8 5.1-3.5 7.3-5.1-3.2 2.2-6.8 4.6-10.7 7.1z"/>
			<path id="&lt;Path&gt;" class="s0" d="m257.7 45.7c0 0-3.8 2.2-7.6 4.3-3.9 2.1-7.8 4.1-7.8 4.1 3.5-1.7 8.5-4.4 15.4-8.4z"/>
			<path id="&lt;Path&gt;" class="s0" d="m302 75l9.3-5c-14.8 7.2-8.2 4.2-9.3 5z"/>
			<path id="&lt;Path&gt;" class="s0" d="m158.1 20.4q-3.2 2.6-6.4 4.5-1.6 1-3.1 1.9c-1.2 0.5-2.2 1.2-3.2 1.8-4 2.3-7.7 4.4-11.2 6.2 3-1.5 5.9-3 8.5-4.5q2-1.1 3.8-2.1c1.2-0.7 2.4-1.4 3.4-1.9 4.2-2.4 7-4.6 8.2-5.9z"/>
			<path id="&lt;Path&gt;" class="s0" d="m316.5 42.9c-4.6 3.1-6.5 4.4-6.3 4.4 4.7-3.1 7.3-5 6.3-4.4z"/>
			<path id="&lt;Path&gt;" class="s0" d="m104.8 49.3c1.9-0.8 3.7-1.6 5.5-2.4 7.5-3.5 15-7.3 23.9-12.1-4.5 2.4-9.3 4.8-14.3 7.2-5 2.5-10 4.9-15.1 7.3z"/>
			<path id="&lt;Path&gt;" class="s0" d="m466.6 57.5c0.9-0.5 1.8-1 2.6-1.5 0.2-0.2-0.9 0.5-2.6 1.5z"/>
			<path id="&lt;Path&gt;" class="s0" d="m458.9 92.2c-3.3 1.8-8.7 4.7-13.8 7.3 2.5-1.2 6.7-3.3 13.8-7.3z"/>
			<path id="&lt;Path&gt;" class="s0" d="m95 35.7c7.6-3.6 1.2-0.6 0 0z"/>
			<path id="&lt;Path&gt;" class="s0" d="m116.4 24.8c1.7-0.5 3.1-0.8 3.2-1-0.6 0.3-1.7 0.6-3.2 1z"/>
			<path id="&lt;Path&gt;" class="s0" d="m80.9 65.5c0.3 0 0.5-0.1 0.7-0.2-2.4 0.7-2 0.6-0.7 0.2z"/>
			<path id="&lt;Path&gt;" class="s0" d="m106.6 30.3c-2.9 1.4-6.2 3-9.8 4.7 1.6-0.8 4.6-2.1 9.8-4.7z"/>
			<path id="&lt;Path&gt;" class="s0" d="m104.9 30.9c1.4-0.6 2.5-1.2 3.6-1.8 1.1-0.5 2.2-1 3.2-1.4 0.4-0.3 0.5-0.3-0.5 0.1-0.5 0.2-1.2 0.6-2.2 1.1q-0.8 0.4-1.8 0.9-1 0.5-2.3 1.1z"/>
			<path id="&lt;Path&gt;" class="s0" d="m84.3 40.7c4.4-2 8.5-3.9 12.5-5.7-1.5 0.7-2.2 0.9-1.8 0.7-2.2 1.1-5.4 2.6-10.7 5z"/>
			<path id="&lt;Path&gt;" class="s0" d="m393.5 67.2c-0.5 0.3-1 0.7-1.5 1-3.6 2.5-4.6 3.1-4 2.8 0.6-0.4 2.8-1.9 5.5-3.8z"/>
			<path id="&lt;Path&gt;" class="s0" d="m211.4 42.1c-0.4 0.2-0.6 0.3-0.9 0.4 0.3-0.1 0.8-0.3 1.1-0.4z"/>
			<path id="&lt;Path&gt;" class="s0" d="m239.6 30.8c-11.8 5.4-18.7 8-28 11.3 0 0 2.5-0.6 5-1.2 2.5-0.6 4.9-1.2 4.9-1.2 0 0 4.6-2.1 9.1-4.4 4.5-2.2 9-4.5 9-4.5z"/>
			<path id="&lt;Compound Path&gt;" fill-rule="evenodd" class="s0" d="m292.6 67c13-5.2 25.4-11 36.3-16.1 5.5-2.6 10.6-5 15.1-7.2 1.2-0.5 2.2-1 3.3-1.6q1.7-0.8 3.2-1.5 3.1-1.5 5.8-2.6 0.9-0.4 1.6-0.6l0.1-0.1h0.1q0 0 0.1 0 0.1 0 0.1-0.1c0 0.1 0.7-0.4 0.8-0.4 0.1 0-0.1 0.2-0.1 0.3 0 0.1 0.1 0.1 0.7-0.2 0.3-0.2 0.7-0.4 1.6-0.6 0.4 0 0.9 0 1.5 0.1 0.6 0.1 1.1 0.4 1.6 0.7l2.6 2-2.7 1.6c-2.1 1.2-6.1 3.8-13.6 8.2-9.4 5.5-13.7 7.9-15.1 8.8-1.4 0.9 0 0.2 2-0.7 0.6-0.3 1.3-0.6 2-1q0 0 0.1 0c6.2-3.3 12.3-6.6 18.1-9.6q2.2-1 4.3-2.1 1.1-0.5 2.2-1c1-0.5 2.4-1.1 3.6-1.7 2.6-1.1 5-2 7.3-2.7 2.2-0.7 4.2-1.3 6.2-1.9q0.4 1.1 0.7 1.7-0.3-0.4-0.3-0.4c-0.1 0 0 0.2 0.1 0.4q0 0.1 0.1 0.2v0.2q0 0.1 0 0.3 0 0.5-0.1 0.9c-0.1 0.5-0.3 1-0.5 1.6-0.2 0.5-0.5 1.1-1 1.8-0.4 0.7-1 1.6-2.3 2.9-1.3 1.3-3.3 2.8-5.1 4-1.7 1.2-3.2 2.1-4 2.6-5.5 3.9-11.2 7.5-16.8 11-5.7 3.6-11.4 7.1-17.1 10.6 15.3-9.4 14.4-9.4 17-11.5-10.8 6.7-15.8 9.9-23.2 14.4 4.5-2.8 9-5.7 3.1-2.4 0 0-9.1 5.6-18.2 11-2.5 1.5-4.9 2.9-7.2 4.2 5.4-2.4 9.9-4.4 14.3-6.5 7-3.3 14-6.7 24.6-12.3l-3.8 2.5 19.5-9.9-15.6 8.5c17.7-8.6 20.3-10.1 22.3-11.3 1-0.6 1.9-1.2 4.5-2.6 1.3-0.6 3-1.5 5.4-2.7q1.7-0.9 4.1-2 0.2-0.2 0.5-0.3c0 0 0.2-0.1 0.2-0.1 0.4-0.3 1-0.7 1.6-1 1.1-0.6 2.6-0.9 4-0.8l6.3 0.4-5.1 3.6q-2.9 2-6.7 4.5l-0.4-0.3c-7.5 5-12.6 8.3-17.3 11.3-4.7 2.9-9.1 5.5-15.3 8.7-14.5 8.5 23.2-12.4-5.5 4 4.4-2.2 8.7-4.5 13.1-6.8q7.2-3.8 14.4-7.9l-12.5 7.4c7.1-3.8 15-8.2 18.8-10.4l-1.4 1.3q8-4.6 15.5-8.6 1-0.5 1.9-1 0.9-0.6 1.8-1.1 1.9-1 3.7-2 1.9-0.9 3.7-1.8 0.9-0.4 1.9-0.9 0.7-0.3 1.5-0.7h0.1l0.1-0.2q0.3-0.2 0.6-0.4 0.7-0.4 1.4-0.6c1.1-0.3 2.2-0.3 3.1 0l3.8 1-3 2.5c-8.9 7.2-17.3 12.8-23.9 17.7 4.6-3.5 0.3-0.6-6.5 3.7-6.7 4.2-16 9.7-20.8 12.3 7.6-4.7 18-10.7 27.6-16.9 4.8-3.1 9.4-6.2 13.4-9.2 4-2.9 7.5-5.7 10-7.9l2.6-2.1-3.2-0.9c-1.1-0.3-2.3-0.2-3.3 0.2q-0.7 0.3-1.2 0.6c-0.1 0.2-0.3 0.3-0.4 0.4q-0.1 0.1-0.2 0.2-0.1 0.1-0.3 0.1-0.2 0.2-0.5 0.3-0.4 0.2-0.7 0.4-0.7 0.4-1 0.6 1.4-0.6 2.7-1.2c0.1-0.1 0.1-0.1 0.3-0.2q0.2-0.2 0.5-0.4 0.6-0.3 1.2-0.6 0.4-0.1 0.8-0.1 0.1-0.1 0.2-0.2l0.1 0.2q0.9-0.1 1.6 0.1l2.5 0.7-2 1.6c-6.1 5-12 9.6-18.7 13.8 3-2 6.5-4.6 9.6-6.9 3-2.4 5.6-4.5 6.6-5.4-7 5.4-13.4 9.8-19.3 13.7-6 3.9-11.4 7.3-16.5 10.5-5.2 3.1-9.9 6-14.6 8.7-4.6 2.8-9.1 5.4-13.8 8 0 0 2.1-1.1 5.2-2.9 3-1.7 7.1-4 11.1-6.3 8.2-4.7 16.2-9.5 16.2-9.5-2.2 2.3-14.5 8.6-23.3 14.3-8.3 4.4-15.7 8.4-22.7 12.1q-4.9 2.5-9.6 4.9c2.7-0.9 5.2-1.8 7.5-2.6 7.1-2.6 12.6-4.8 18.8-7.5 3.6-1.6 8.1-3.5 12.5-5.7 4.4-2.1 8.7-4.3 12.3-6.2 7.2-3.9 11.4-6.3 6.5-3.9 5.7-3.2-6.2 3.3-17.2 8.5-5.5 2.7-10.8 5-13.5 6-2.6 1.1-2.5 0.8 2.7-1.7 8.8-3.4 17.5-7.7 27.7-13.1 5.1-2.7 10.5-5.7 16.6-9.1 3-1.7 6.1-3.6 9.4-5.5 3.5-1.8 7.1-3.8 11.4-5.1l1.9 3.4c-6.2 5.1-13.5 9.7-21.5 14.7 18.4-12.5-11.2 6.6 5.1-4.5-10 6.7-15.3 10-19.2 12.5-2.6 1.7-4.5 2.9-6.9 4.5q0.6-0.3 1.3-0.7l-1.4 0.7q0 0-0.1 0.1c11-5 18.6-8.8 24.5-11.7 6-2.9 10.3-5.1 14.4-7.3 4.1-2.1 8.1-4.3 13.4-7.4 2.6-1.5 5.6-3.3 9.1-5.3q2.7-1.6 5.7-3.4 0.4-0.2 0.8-0.4c0.3-0.2 0.3-0.2 0.6-0.5q0.8-0.6 1.6-1.1 1.8-1.1 3.8-1.9c0 0-1.1 0.3-2.2 0.8-1 0.5-2.1 1.1-2.1 1.1q2.2-1.4 4.8-2.4l1.7 3.2c-12.7 10.1-26.9 20.1-41.6 30.1q-3.2 2.2-6.5 4.4c10.4-4.7 20.4-9.6 29.8-14.9 0 0-4.6 2.5-9.3 4.9-2.6 1.3-5.2 2.5-7 3.4 4.1-2 11.4-5.8 19.5-10.3 10-5.7 21.2-12.5 29.3-17-3.1 1.9-8.6 5.3-11.6 7 0.3 0 2-0.9 5.2-2.6 3.3-1.8 8-4.4 14.1-8.1 0 0 1.1-0.8 2.2-1.6 1.1-0.9 2.2-1.7 2.2-1.7 0 0 0.5-0.3 1.2-0.7 1.9-1.5 3.9-2.9 6.1-4.1q0.6-0.5 1-0.8l0.1 0.3q0.2-0.1 0.4-0.2l1.5 2.5q-0.1 0.2-0.3 0.3l0.1 0.2q-0.7 0.3-1.2 0.6-0.8 0.6-1.7 1.2c0.3-0.1 0.5-0.2 0.7-0.3 0.6-0.3 1-0.4 0.2 0.1-0.7 0.5-2.5 1.6-6.4 4.7q-0.8 0.6-2 1.4-1.2 0.8-2.8 1.8c-2 1.3-4.5 3-7.3 4.9-5.5 3.9-12.5 8.7-19.9 13.8-6.4 4.4-13.1 9-19.7 13.5 17.2-8.6 30.9-16 43.6-23.3 8.1-4.7 15.8-9.3 23.6-14.2 3.9-2.4 7.8-5 11.9-7.6q3-1.9 6.1-3.9l0.3-0.3 0.4-0.3q0.5-0.3 0.9-0.6 0.9-0.6 1.8-1.1 1.9-0.9 4-1.4l4.2-1-2.5 3.5c-2.4 3.3-5.7 6.3-9.3 9.1-1.7 1.5-3.5 2.9-5.4 4.5q-2.8 2.3-5.8 4.7l1.8-1.5c-8.3 6.5-14.8 11.3-20.1 15.3-4.9 3.6-8.6 6.5-12 9.3q0.7-0.5 1.5-0.9c9.1-5.4 17.1-10.4 23.5-14.8-0.9 1.2 8.9-4.5 16.8-9.1 8-4.5 14.2-7.9 5.9-2.2 0 0 3.2-2.1 6.4-4.1 3.2-2 6.3-4.2 6.3-4.2-0.9 0.9-3.9 2.9-8 5.5-4 2.6-9.1 5.8-14.3 9.1-10.4 6.7-21.2 13.6-24.8 16.2-11.4 6.8-22.9 13.5-34.7 19.6-1.8 1.1-3.6 2.4-5.9 3.3l-0.2-0.3q0 0 0 0l0.2 0.3q-0.1 0-0.2 0.1l-1.3-3.1q0.1 0 0.2 0l0.1 0.3q0 0 0 0l-0.1-0.3q1.2-0.6 2.4-1.2c0.2-0.3 0.3-0.4 0-0.3-0.3 0.2-1.1 0.6-2.5 1.2 2.3-0.9 4.6-2.7 6.6-3.9 2-1.3 3.5-2.4 4.4-3 0.8-0.6 1-0.8 0.1-0.2-0.7 0.4-2.2 1.3-4.6 2.8 5.9-3.7 11.5-7.7 17.2-11.9q4.6-3.3 9.2-6.7 4.6-3.3 9.2-6.7c6.1-4.5 12.2-9.1 18.1-13.8l4.4-3.6 4.5-3.6-4.8 3.1c-4.8 3-9.6 6.2-14.5 9.2q-14.6 9.1-29.5 17.5c-19.2 10.9-38.9 20.7-58.7 30.3q-1 0.6-1.9 1.2l-0.2-0.2q-0.1 0-0.2 0.1l-1.7-2.9q0.2-0.1 0.3-0.1l-0.2-0.3q0.7-0.3 1.5-0.6c6.8-4.5 13.8-8.6 20.4-13.3q8-5.5 16-11c-6.5 3.4-13 6.5-13 6.5-11 5.8-2.2 1.7-2.9 2.3-10 5-20.1 9.5-30.2 13.8q-3.7 1.6-7.5 3.2-3 1.3-6 2.4-1.7 1-3.4 1.9c-2 1-4 2.2-6.2 3.2-2.1 1-4.5 1.9-7 2.3l-1.4-4c5.7-3.3 11.7-5.4 17.5-7.7q2.5-1.4 5-2.8c7.1-4.1 13.8-8.5 20.4-12.9 6.9-4.6 13.7-9.2 20.2-13.7-4.5 2.5-8.5 4.6-10.9 6-2.4 1.3-3.3 1.8-1.5 1-8.8 4.1-23.8 11.5-36.2 16.9-12.1 5.4-21.4 9.5-19.7 8.1q-1.4 0.8-2.4 1.4c-2.5 1.5-3.9 2.3-5.3 3.1-1.5 0.9-3 1.7-5.8 3.2-1.4 0.7-3.2 1.6-5.4 2.7-2.3 1.1-5.1 2.5-8.9 3.8l-1.9-3.5c0.8-0.7 1.7-1.3 2.7-1.8q0.8-0.3 1.7-0.6c0.2-0.1 0.2-0.1 0.4-0.2q0.4-0.1 0.7-0.3 3-1.4 6.5-3c-14.5 6.9 17.8-7.4 6.7-2.2q1.4-0.6 2.7-1.2 1.8-0.9 3.4-1.8c7.5-4.1 14.7-8.4 21.8-12.8 2.6-1.5 8.5-4.9 16.2-9.8 3.4-2.1 7.1-4.6 11.1-7.2q-0.5 0.3-1 0.6c-2.1 1.1-4.2 2.3-6.3 3.4-8.4 4.5-16.8 9-24.7 12.8-7.9 3.9-15.3 7.1-21.6 9.8-5.2 2.2-9.7 4-13 5.2 6-2.1 5.4-1.9 1.8-0.3-4.1 1.7-11.9 4.9-19.4 7.5 0 0 3.5-1 6.9-2.1 3.4-1.1 6.8-2.3 6.8-2.3q-6.8 2.7-13.7 5l-6.9 2.3-0.6 0.2q-0.1 0-0.2 0.1l-0.4 0.2q-0.9 0.6-2.1 1c-1.5 0.5-3.3 0.4-4.8 0l-4.6-1.5 4.1-2.4q3-1.8 6.2-3.3c3.3-1.6 5.4-2.6 6.7-3.1q1-0.5 1.4-0.6 0.4-0.2 0.4-0.2c2.7-1.2 2.4-1 3.2-1.3 0.7-0.2 2.5-0.9 9.4-4.3 10.8-5.5 16.4-8.7 20.7-11.2 4.3-2.5 7.4-4.4 13.1-7.8l-3.3 1.7c0 0 3.6-2 7.1-4.1 3.6-2.1 7.1-4.1 7.1-4.1 5.2-3.1-3.9 2.5-10.1 6.2-3.1 1.9-5.5 3.4-4.9 3.2 0.5-0.3 4-2.1 12.6-7 0.2-0.2 5.3-3.4 11.3-7.3 3.8-2.5 7.9-5.2 11.5-7.7q-6.4 3.4-12.8 6.9-14.3 7.5-28.7 15.1-14.4 7.6-29.3 14.6c-4.9 2.3-10 4.6-15 6.7-2.4 1.1-4.9 2.4-7.5 3.5-2 0.8-4.1 1.6-6.4 2q-0.5 0.3-0.9 0.5l-0.1-0.4q-0.7 0.1-1.3 0.1l-6.1 0.1 5.1-3.4q0.5-0.4 1.1-0.7l-0.1-0.4q0.3 0 0.7 0c3.5-2.1 7.1-3.8 10.5-5.8q6.1-3.3 12.2-6.7c8.1-4.5 16.3-8.9 24.4-13.5 11-6.2 22.2-12.4 33-19q-0.4 0.2-0.9 0.4c-3.1 1.5-6.4 3.1-9.6 4.7-13.1 6.5-25.4 12.5-22.1 10.3l3-1.4c9.6-4.8 8.1-4.2 2.3-1.5-5.7 2.7-15.9 7.5-23.7 11.2 16.6-7.4-29.1 14.7 10.9-4 0 0-7.6 3.8-15.3 7.5-7.7 3.7-15.5 7.2-15.5 7.2-4.8 2.7-14 6.9-26 11.7l-4.2 1.7 1-4.4c0.1-0.5 0.5-1.1 0.6-1.2 0.1-0.2 0.3-0.4 0.4-0.5q0.2-0.2 0.3-0.4 0 0 0.1 0 0.1-0.2 0.3-0.3c0.5-0.4 0.9-0.7 1.3-1q1.3-0.8 2.5-1.6 2.6-1.6 5.3-3.1c3.6-2 7.4-3.9 11.3-6 7.6-4.1 15.8-8.7 24.1-13.4 8.2-4.7 16.6-9.6 24.8-14.6 7.7-4.6 15.2-9.1 22.1-13.8 0.1-0.4 0.2-0.6 0.3-0.7q0.2-0.3 0.3-0.4l0.1-0.1 0.2-0.2 0.1-0.1h0.1l0.3 0.5q0 0 0 0l1.3 1.9c2.6 2.4 0.3 0.1 0.8 0.4l-1-1.4 0.1-0.1h0.1l0.3-0.2 0.5-0.4q0.5-0.3 1-0.6c-1.4 1-1.8 1.2-2 1.3q2.1-1.3 3.9-2.7c0.6-0.5 1.1-1 1.6-1.6 0.1-0.2 0.2-0.3 0.2-0.5q0-0.1 0-0.1-0.1 0-0.1 0l-0.2 0.1-0.2 0.1-1.2 0.3q-1.8 0.7-3.5 1.4l-0.9 0.4-1.2 0.6-3.5 1.7c-4.6 2.2-9.2 4.5-13.7 6.8-9 4.6-17.5 9.1-25.3 12.9-15.6 7.6-27.7 13.1-31.9 15.1l-3.9 1.2c-4 1.9-7.6 3.7-11 5.2q-2.9 1.3-5.7 2.2-1.3 0.9-2.5 1.8l-0.5-0.9q-0.4 0.2-0.9 0.3l-1.3-2.7q0.4-0.3 0.8-0.6l-0.5-0.9q1.3-0.3 2.6-0.6 1.8-1.3 3.7-2.3c2.1-1.2 4.1-2.3 6.1-3.5 4.1-2.2 8-4.4 12.4-6.8 8.7-4.8 19.1-10.4 35.1-18.9-0.5 0.4-5.2 3.1 1.4-0.3 4-2.4 8.1-4.8 13.5-7.9q0.1-0.1 0.3-0.2c-3.5 1.6-7.5 3.5-11.5 5.3-5.7 2.6-11.4 5.2-15.6 7.1-4.3 1.9-7.2 3.2-7.2 3.2-0.1-0.5-10.6 4.1-24.6 10.1-7.1 3-15 6.4-23.1 9.5q-3 1.1-6 2.3-3 1.2-5.9 2.3c-2.9 1.2-5.9 2.2-8.9 2.9q-0.6 0.3-1.2 0.7 0.6-0.4 1.1-0.7-0.3 0.1-0.6 0.2-0.6 0.3-1.2 0.7l-0.2-0.4q-0.4 0-0.9 0.1l-1.3-3.2q0.4-0.3 0.8-0.5l-0.2-0.5q0.6 0 1.2-0.1c4.3-2.7 8.4-4.5 11.7-6.1 3.8-1.8 6.8-3.1 8.7-3.9 4.2-2.4 14.5-7.9 25.2-14 10.8-6.2 22-13.1 28.8-17.6 0.1 0 1-0.5 3.3-1.9 5.1-3.7 11.8-8.3 18.9-13.5q-3 1.4-5.9 2.8c-5.1 2.4-9.8 4.7-13.9 6.8-12.4 6.3-6.9 3.9-1.3 1.4-6.3 2.9-13.7 6.5-21.3 10.3-3.9 1.9-7.8 3.9-11.7 5.8-3.9 1.9-7.8 3.8-11.5 5.7-7.6 3.7-14.6 7.1-20.5 9.8-5.8 2.7-10.3 4.7-12.7 5.6-4.6 1.9-7.3 3-9 3.6-1.7 0.7-2.1 0.8-2.2 0.7-0.1-0.2 1.5-1-1.2-0.2-4.8 2-8.1 2.9-10 3.4l-4 1.1 1.7-3.7c0.2-0.5 0.4-0.9 0.6-1.2q0.3-0.4 0.6-0.8c0.3-0.4 0.6-0.6 0.8-0.9 0.4-0.4 0.6-0.6 0.6-0.7 0.1-0.2-0.2-0.1 0.1-0.4 0.3-0.4 1.3-1.3 4.2-2.9 1.4-0.8 3.3-1.8 5.8-2.9q0.9-0.4 2-0.9 0.4-0.2 0.9-0.4 0.6-0.3 1.1-0.5 2.3-1.2 5.1-2.6c-1.1 0.6-2.3 1.2-3.6 1.9q-0.9 0.5-1.8 1c-0.6 0.4-1 0.5-1.5 0.8-2.2 1-3.4 1.6-1.8 0.9q1.3-0.5 2.7-1.2 1.4-0.7 2.9-1.4 3-1.5 6.4-3.1c4.4-2.2 9.2-4.5 14-6.9 9.6-4.6 19.1-9.5 25.6-13.5 0 0-2.2 1.2-4.4 2.4-2.3 1.1-4.5 2.3-4.5 2.3 12.1-7 26.3-15.3 38-22.3 5.8-3.5 11-6.7 15-9.1 2-1.2 3.6-2.3 4.9-3.1q0.2-0.2 0.5-0.3 0.2-0.2 0.5-0.4c0.3-0.1 0.6-0.2 0.8-0.3q0.7-0.4 1-0.6c0 0-0.6 0.1-1.2 0.2q-0.1 0-0.3 0.1-0.9 0.4-1.7 0.8c-2.6 1.2-4.5 2.2-6.1 3-3.3 1.7-5.2 2.7-7.4 3.8-2.2 1.2-4.7 2.5-9.2 4.7-4.4 2.2-10.9 5.4-21.1 10l0.6-0.3c-19.3 9.1-30.1 13.1-39.4 17.9l6.7-2.8c-12.1 5.3-18.8 8-25.5 10.8-6.7 2.7-13.6 5.3-26.1 10.2-1.3 0.5-4.2 1.7-7.6 2.9q-1.5 0.7-3.2 1.6l-0.2-0.4q-0.1 0-0.2 0l-1.1-2.6q0.1 0 0.2-0.1l-0.1-0.4c1-0.4 2.8-1 5.3-1.9q1.2-0.5 2-0.8c0.5-0.7 15.1-6.2 30.4-13.2 7.7-3.5 15.6-7.4 22.1-10.9 6.5-3.6 11.7-6.7 14.3-8.2-9.1 5.5-11.6 6.8-10.9 6.7 0.5-0.2 4.1-2.1 6.8-3.5 10.4-6.7 17.6-11.3 31.9-20.1q-0.7 0.4-1.5 0.8c-2.4 1.2-4.8 2.5-6 3.1-3.1 1.4 6.7-3.6 3.1-2.2-10.2 5.5-19.3 9.9-29.6 14.5-5.2 2.3-10.7 4.7-17 7.2-6.2 2.4-13 5.2-20.8 8.3 9.8-4.1 1.2-0.9-2.5 0.2-1 0.9-11.8 4.8-20.9 7.9-9.1 3.1-16.4 5.5-10.1 3.9-7.5 2.5-15.4 5.6-24.1 7.5l-1.3-3.4c6.6-3.5 13.9-5.6 20.9-8.3 7-2.8 14-5.7 21-8.8 14.1-6.1 27.9-12.7 41-18.8 7.7-3.6 15.1-7.2 22-10.6l1.2-0.9c-14.6 6.8-20.4 9.2-26.8 11.9-6.4 2.6-13.5 5.5-31.2 12.2 7.3-2.9 9.4-3.8 7.8-3.4-1.6 0.4-6.9 2.2-14.4 4.5 0 0-6.1 2.3-12.2 4.6-6 2.2-12.1 4.4-12.1 4.4l-5 0.9c-5.1 1.8-10.4 3.5-15.9 5.2-4.5 1.4-9 2.7-13.6 3.9q-0.5 0.2-1 0.4-0.4 0.2-0.9 0.3c-0.1 0.1-0.3 0.2-0.5 0.2q-0.2 0-0.4 0.1-0.3 0.1-0.5 0.2 0.3-0.2 0.6-0.2 0.1-0.1 0.2-0.1c0.2-0.1 0.3-0.1 0.4-0.2 0.2-0.1 0.3-0.1 0.4-0.2q0 0 0.1 0-0.8 0.1-1.5 0.3-1.3 0.5-3.4 1.1l-1-2.6q1.2-0.7 2.8-1.3 0.4-0.1 0.8-0.2 0.3-0.1 0.7-0.2 0.7-0.3 1.5-0.6c2.1-0.7 4.4-1.5 6.8-2.4 2.5-0.9 5-1.8 7.6-2.7 2.6-1 5.2-2 7.8-3 10.2-3.9 19.4-7.7 22.1-9.1 5.5-1.8 12.5-4.9 19.2-8.1 6.6-3.2 12.7-6.4 16.7-8 3.3-1.8 7.5-4.2 12.1-6.9-2.5 1.2-4.3 1.9-4.2 1.8 0-0.2 1.8-1.2 6.3-3.7 0.8-0.5 1.4-0.9 2.1-1.3 0 0 1-0.5 2-0.9 1.1-0.5 2.1-1 2.1-1q2.2-1.5 4.5-2.9 1.1-0.7 2.2-1.4 0.5-0.3 1.1-0.7c0.2-0.1 0.5-0.3 0.8-0.4l0.4-0.1q0.1-0.1 0.2-0.2 1.3-0.5 2.3-1.4-2.5 0.6-5 1.4c-1.3 0.4-2.6 0.9-3.5 1.2q0.9-0.4 2.1-0.8c-6 2-12.1 4.7-20.6 8.5-17.2 6.9-35.8 16-55.4 24.2-9.8 4.1-19.7 8.1-29.7 11.9q-7.4 2.9-14.9 5.5-3.7 1.3-7.4 2.6-3.7 1.2-7.3 2.4c2.9-1 6.4-2.2 9.4-3.3 3.1-1.1 5.7-2 6.8-2.5-4.9 1.8-9.8 3.4-14.5 5.1-4.8 1.8-9.7 3.5-14.8 4.4l-1.2-4q4.1-1.6 8.1-3.1 2-0.8 4-1.6 2-0.7 3.9-1.4c5.2-1.9 10.2-3.7 14.9-5.5 9.4-3.6 17.9-7.1 24.7-10.2l-1.6 0.2c11.5-5.1 21.6-9.9 31-14.6q1.7-0.9 3.4-1.8c1.2-0.5 2.4-1.2 3.6-1.7q3.4-1.6 6.6-3.5 0.8-0.5 1.7-1c-4.1 1.3-8.3 2.9-12.7 4.8-9.6 3.9-20 8.1-30.1 12.2-10.1 4.1-19.9 8-28.3 11.2-8.4 3.1-15.4 5.5-19.8 6.7-2.7 1.2-9.9 3.7-18.5 6.5-4.3 1.4-8.9 2.9-13.6 4.3q-1.7 0.5-3.4 1-0.9 0.3-1.7 0.5l-0.6 0.2-0.6 0.3c-2.5 1.4-5.5 1.9-8.2 1.5l-9.8-1.3 9-3.9c3.3-1.5 6.4-2.8 9-4l4.1-1.3c10.1-4.1 18.3-7.4 25.4-10.4 7.1-3 13.2-5.6 19-8.4 5-2.2 9.8-4.5 14.6-6.8q7.2-3.6 14.1-7.4 3.4-1.9 6.8-3.9c1.1-0.6 2.2-1.4 3.4-2q1.6-0.9 3.2-1.9 3.1-2.1 6-4.5c-2.6 0.9-5.3 1.9-7.8 3-4.7 2-9.3 4.3-14 6.4-9.4 3.8-18.7 7.5-27.8 11.2h-0.4c0 0-9.1 3.7-18.2 7.5q-1.7 0.7-3.4 1.3-1.7 0.7-3.3 1.3c-2.2 0.8-4.2 1.6-5.9 2.2-3.5 1.4-5.8 2.2-5.8 2.2 9.6-3.9-7.1 3-18.3 7-4.4 1.7-10 3.8-15.9 6.1-5.9 2.2-12.3 4.6-18.6 6.3l-2-5.1c3.7-1.8 7.2-3.2 10.4-4.5 0 0 1.5-0.6 3.6-1.5 2.2-0.9 5.1-2.1 7.9-3.4 5.8-2.4 11.5-4.9 11.5-4.9-25.4 11.2 2.1-0.2 3.7-0.4l14.6-6.7c6-2.3-9.4 4.4 1.5-0.2 4.9-2.1 14.6-6.5 24-11 4.7-2.3 9.4-4.6 13.4-6.7 2-1.1 3.9-2 5.5-2.8q0.5-0.2 0.9-0.5-0.9 0.3-1.9 0.6-1.9 0.8-4.2 1.9c-1.2 0.6-1.1 0.6-0.4 0.2-0.3 0.1-0.6 0.3-0.9 0.4 0.4-0.2 0.6-0.3 1.2-0.6 0.8-0.4 1.8-1 2.7-1.4-3.8 1.2-7.3 2.5-10.7 3.7-6.6 2.3-12.7 4.5-19.6 6.7q-1 0.3-2.6 0.8 1.3-0.4 2.6-0.8 0 0 0 0c6.3-2-4.8 2.1-16.8 6.5-13.2 4.8-27.6 9.8-20.5 7.8-16.2 4.9-10.9 3.8-21.3 6.7 5.6-1.9 11.2-3.8 16.7-5.8 5.5-2 11-3.9 16.2-5.9 10.5-4.1 20.5-7.9 29.4-11.4l-17.8 6.1c5.6-2.5 15.5-6 25.4-9.5 4.9-1.7 9.7-3.4 14-4.9 3.6-1.2 6.8-2.2 9.3-3-3.6 1.1-8.5 2.8-12.8 4.4-4.4 1.5-8.2 2.8-9.2 3.1l4.7-1.1c6.6-2.3 12.7-4.6 18.6-6.3 1.9-1 3.1-1.8 4-2.6 1.4-1.1 1.8-1.7 1.9-1.9 0.1-0.2-0.1 0-0.3 0.2-0.3 0.3-0.7 0.6-0.8 0.6 0.2-0.2 0.5-0.4 0.7-0.7q0.3-0.3 0.6-0.6l0.8 1.3c-0.9 1-1.9 1.9-2.9 2.7q2-0.4 4-0.8l0.8 1.4c-2.8 0.3-5.4 0.8-7.9 1.4q-0.6 0.4-1.2 0.7c-2.9 1.6-5.9 2.9-8.7 4.4-5.6 3-11.1 5.7-16.3 8.2 8.2-3.7 3.3-1.3-2.2 1.3-5.4 2.7-11.4 5.5-5.4 3.1 0 0 3.2-1.5 6.4-3 3.2-1.5 6.4-3 6.4-3 6-2.6-6.3 3.5-13.5 6.8-17 7.4-40.1 16.9-62 26.5 7.1-2.1 13.9-4.9 20.5-7.3 7.2-2.7 14-5.2 20.1-7.5 12.1-4.5 21.6-7.9 25.9-9.4-8.6 3.1-24.3 9-31.8 12l19.8-7.1c-8 3-15.2 5.6-23.3 8.5-4.1 1.4-8.4 3-13.2 4.7-4.7 1.8-9.9 3.9-15.9 5.9 2.1-0.5-1.2 0.8-2.7 1.5-0.8 0.4-1.1 0.6 0 0.4 1-0.2 3.5-0.7 8-2.2 22.8-8.2 31.9-11.8 42.3-16 5.1-2.1 10.6-4.3 18.1-7.3 7.5-3.2 17.1-7.1 30.6-12.4 5-2.1-11 5.1 17.6-6.6 5.2-2.4 10.1-4.8 14.8-6.8 3.6-1.5 7.1-2.8 10.4-3.7q0.3-0.3 0.4-0.6c0.1-0.2 0.2-0.5 0.2-0.9l1.2 1q0.1 0 0.1 0 0 0.1 0 0.1l1 0.9c0.3-0.7 0.4-1.4 0.3-2v-0.5l-0.5 0.1c-4.2 0.7-7.9 2-10.7 3-2.9 1-4.9 1.9-6 2.2 4.7-2.1 10.4-4.5 16.6-5.7l1.1-0.2v1.1c0.1 1-0.2 2.1-0.8 3-0.6 0.9-1.7 1.6-2.4 1.9-0.1 0-0.2 0.1-0.3 0.2l-0.5 0.4q-0.5 0.4-1 0.8-0.9 0.9-1.9 1.6c-2.6 2.1-5.2 3.8-7.5 5.2-1.2 0.6-2.2 1.3-3.1 1.9q-1.4 0.9-2.5 1.5c-1.4 0.9-2.3 1.5-2.5 1.7-7.6 3.8-0.8 0.1 5.3-3.6 0.7-0.5 1.4-0.9 2.2-1.3q1.1-0.7 2-1.2c1.2-0.8 2.1-1.4 2.6-1.7 0.4-0.4 0.4-0.4-0.3 0.1-0.8 0.4-2.2 1.3-4.7 2.6-9.8 5.9-14.2 8.4-18.8 11 3.3-1.9 1-0.8-2.6 0.9-3.6 1.7-8.4 4-10 4.7-12.3 6-23.1 10.3-33.4 14.5-10.1 4-19.9 7.9-30.7 12.6 1.9 0.2 3.9-0.2 5.7-1.1 0.5-0.2 1-0.6 1.5-0.7q0.9-0.3 1.7-0.5 1.6-0.5 3.3-1.1c4.5-1.3 9.2-2.8 14.2-4.5 2.1-0.5 6.3-1.7 5.3-1.2 9.2-3.2 20.2-7.5 28-10.8 7.9-3.3 12.5-5.5 9-4.4 21.3-8.4 22.5-8.7 40.5-16.1-29.1 11 5.6-2.2 8.5-4q1.7-0.7 3.1-1.2 1.4-0.6 2.5-1.1c1.4-0.6 2.5-1 3.3-1.3 1.7-0.6 2.2-0.8 2.4-0.8 0.4 0-0.4 0.4 3.9-1 1.6-0.6 4.3-1.6 6.6-2.3q0.5-0.2 0.9-0.3c0.2-0.1 0.3-0.1 0.5-0.3h0.1l0.2-0.2q0.2-0.1 0.3-0.2 0.4-0.2 0.8-0.4c0.9-0.4 1.6-0.6 1.8-0.7 1.9-0.3 2.8 0 3.1 0.1 0.2 0.1-0.2 0.1-1.1 0.1-0.8 0.1-2.1 0.3-3.4 0.9q-0.5 0.2-0.9 0.5-0.3 0.2-0.5 0.3l-0.3 0.3c-0.4 0.2-1.2 0.4-1.9 0.7-2.7 0.9-5.2 2-6.3 2.5-1 0.6-0.5 0.6 2.9-0.4q2-0.6 5.5-1.5c0.4 0 0.6-0.3 0.9-0.4q0.4-0.3 0.8-0.5 0.8-0.3 1.8-0.5 0.3 0 0.6-0.1 0.7-0.6 1.3-1.3l0.2-0.4 0.4 1.9q0.3 0.1 0.7 0.2-0.3 0.3-0.6 0.6l0.4 1.9q-0.2 0-0.5 0.1c-0.6-0.3-1.3-0.4-1.9-0.3q-0.8 0.6-1.6 1.1-1.3 0.9-2.8 1.6-0.3 0.2-0.7 0.4c-0.1 0.1-0.3 0.1-0.4 0.2l-0.4 0.2-1.4 0.9q-2.9 1.7-5.9 3.1-1.5 0.8-2.9 1.4c-1 0.5-1.9 0.9-2.8 1.4-7.4 3.5-13.2 6.1-14.2 6.6-3.2 1.7-4.6 3-4.5 3.5 4.5-1.8 10.1-4.2 15.7-6.6 12.2-5.3 24.4-10.7 24.4-10.7-6.1 2.8-24.8 11.3-17.3 8.3 20.9-9.3 10.9-4.8 25-10.7-12 5.6-28.6 13.9-44.4 21.2-15.9 7.2-30.9 13.7-38.8 17.1 0 0 6.4-2.5 12.8-5.1 6.4-2.6 12.8-5.2 12.8-5.2l6.5-2.3c16.6-6.8 31.9-14.5 44.2-20.7 12.3-6.2 21.6-10.9 25.9-13 9.6-4 13.1-4.5 13.3-4.2 0.2 0.2-2.6 1.5-4.8 2.5q6.2-2.3 11.3-3.4 0.2-0.5 0.4-0.9-0.1 0.4-0.4 0.9 0.2 0 0.3-0.1 0.2-0.3 0.3-0.6l0.4 0.5q0 0 0 0l-0.4-0.5q0-0.1 0-0.2l0.6 0.7q0.7-0.2 1.5-0.3l0.4-0.1-0.1 0.5q-0.2 0.7-0.5 1.4l0.6 0.7q-0.1 0-0.2 0l-0.5-0.6q0 0 0 0l0.5 0.6q-0.4 0.1-0.8 0.1-0.1 0.1-0.1 0.2 0.5 0 1.1-0.1-0.6 0.1-1.1 0.2-0.6 0.9-1.3 1.7c-1.1 1.2-2.3 2-3.6 2.7-0.3 0.1-0.6 0.3-0.9 0.4-0.3 0.1-0.5 0.3-0.8 0.5q-0.8 0.5-1.6 1-1.6 1.1-3.1 2.1c-3.9 2.6-7.3 4.9-11.1 7.3-7.6 4.7-16.2 9.7-32.3 17.1 0 0 3.5-1.6 7-3.2 3.5-1.6 7-3.2 7-3.2-3.5 1.8-10.7 5.2-17.9 8.4 7.5-2.5 13.2-4.5 18.3-6.2-14.7 5.5-16.6 6.6-15.4 6.8 1.2 0.2 5.4-0.6 2.7 0.7 0 0 3.9-1.5 9.8-3.9 5.8-2.4 13.6-5.6 21.3-9 15.4-6.9 30.5-14.4 30.5-14.4-2 1-6.5 4-6.1 4 1.2-0.8 6.7-3.4 14.6-7.2 4-1.9 8.7-4.1 13.6-6.6 5-2.6 10.5-5.4 16.6-7.6l1.3 2.8c-10.4 6.4-22 12.8-33.1 18.4-11 5.6-21.6 10.6-30 14.6l5.1-2.4c6.8-3.6-22.7 10.1-34.7 15.8 2-1.1 4.8-2.3 10-4.7-8 3.5-14 6.3-19.4 8.8 4.2-1.6 10.9-4.2 17.6-6.9 5.4-2.2 10.9-4.5 14.9-6.1 4.1-1.8 6.7-2.9 6.7-2.9-1.5 0.7-3 1.4-2.5 1.3 0.5-0.1 3-1 9.3-3.7-6 2.6-12 5.1-17.8 7.5-5.9 2.3-11.5 4.6-16.8 6.7-5.2 2.1-10.1 4-14.5 5.6q-2 1-4 1.9c-2.9 1.4-5.8 2.7-9 4.1 11.3-4.1 21.3-7.9 30.4-11.6 9.5-3.8 18-7.4 25.9-10.9 15.8-7.1 29-14 43.1-21.4 1.3-0.6 2.5-1.2 3.7-1.9q1.9-1 3.8-1.9 1.9-0.9 3.8-1.8l2-0.9 1.5-0.6c0.1-0.1 0.8-1 2-1.4 0.5-0.3 1.5-0.4 2.2-0.1 0.8 0.3 1.3 0.8 1.6 1.2l1.4 1.5-1.6 1.3c-6.5 5-13.4 9.3-20.3 13.6l-1.4 1.2-7 3.6c-4.6 3.1-7.6 5.1-8.6 5.7-0.9 0.5 0.2-0.4 2.1-1.6-4 2.5-7.7 4.8-9.6 5.9-1.7 0.6 4.9-3.8 11.9-8.6 3.5-2 7-4.1 10.6-6.2 3.6-2.5 6.7-4.7 7.6-5.5 0.8-0.8-0.5 0-5.7 3.1-1.4 1-3.2 2.2-5.2 3.5 4.6-3.2 7.4-5.2 3.9-3.1 0 0-1.8 1.2-4.5 2.9-2.7 1.7-6.3 4.1-9.9 6.3-7.2 4.6-14.6 8.9-14.6 8.9 3.4-1.8 8.5-4.6 14.4-7.9-8.9 5.8-18.8 11.7-24.4 14.9q-1 0.7-1.8 1.2 3.2-1.4 6.3-2.7c12.9-5.3 23.2-9.8 25.7-11.3 9.9-4.7 11.9-5.9 13-6.5 1.1-0.7 1.3-1 7.5-4.1-0.6 0.3-1.7 1 2-0.7 0 0 3.6-2 7.3-3.9 3.6-2 7.2-4 7.2-4 6-2.9-13.4 7.3 3.3-1.1 7-3.7 13.4-7 19.6-9.5l5.5-2.3-2.8 5.3c-1.4 2.6-3.7 4.7-6.2 6q-0.9 0.4-1.8 0.8c-0.3 0-0.3 0.1-0.4 0.1l-0.7 0.5q-1.5 0.9-3 1.9c-3.9 2.4-7.6 4.8-11.4 7.2-7.6 4.7-15.2 9.4-23.8 14.5-32.8 19.5 14.6-7.3-13.2 8.9-4.2 1.9-7.8 3.5-23.5 11.9q4.9-2.2 9.4-4.3c4.2-1.9 8-3.6 11.6-5.3q5.5-2.4 10.3-4.5c0 0-4.9 2.4-9.8 4.8-4.9 2.4-9.9 4.8-9.9 4.8 5.3-2.4 10-4.5 14-6.4 4-1.9 7.5-3.6 10.5-5.1 6-3 10.2-5.2 13.7-7 7.1-3.6 11.4-5.8 21.4-10-14.4 7-31.5 15.8-22.9 12l20.7-10.6c2.6-1-11.8 6-2.2 1.5 3-1.6 7.4-3.9 11.8-6.2 4.5-2.3 8.8-4.6 11.5-6l-0.3 0.2 1.5-0.8 0.1-0.1 0.2-0.1q0.2-0.3 0.6-0.5c0.5-0.4 1-0.7 1.6-0.9 1.2-0.5 2.7-0.4 3.8 0.1l3.5 1.4-2.9 2.3c-8.8 7.1-17.8 13.7-27.2 20 5.5-3.7 6.3-4.5 0.2-0.3 0 0-5.7 3.9-11.5 7.7-5.8 3.7-11.8 7.3-11.8 7.3 7.2-4.5-0.3-0.1-11.1 5.9-8.7 4.8-14.4 8.1-18.8 10.5 3.8-1.5 7.7-3.1 11.6-4.7 9.6-4.1 19.1-8.2 26.4-11.5 7.2-3.4 12.3-5.8 12.8-6.5 9.3-3.9 9.6-4 4.8-1.6-4.9 2.3-15 7-26.7 12.4 0 0 4.9-2 9.9-4.1 4.9-2.1 9.8-4.2 9.8-4.2-7.9 3.7-14.6 6.5-23.1 10.3zm-28 10.9q-3.5 1.4-6.6 2.6-3.2 1.2-6 2.3c-3.7 1.5-6.8 2.8-9.1 3.7-2.2 0.9-3.6 1.4-3.9 1.7q-1.6 0.4-3.2 0.7-0.5 0.3-1 0.6l1.4 3.6q0.7-0.2 1.4-0.3c2.2-1.3 4.5-2.5 6.9-3.7-1.8 0.9-2.8 1.5-3.8 2-0.7 0.5-1.5 0.9-2.5 1.5q0.1 0 0.1 0c2.3-1.3 4.5-2.4 6.4-3.4 2.2-1.1 4.1-2 5.8-2.9 3.3-1.7 5.8-3.1 8.4-4.7 2.3-1.3 4.8-2.8 8.2-4.7q-1.3 0.5-2.5 1zm54.2-31.2q0.7-0.4 1.3-0.9-0.6 0.5-1.3 0.9zm-89.6 28.2c1.4-0.5 5-1.9 9.2-3.6 2.4-0.9 5-2 7.5-3.1q0.4-0.2 0.8-0.4 1.2-0.7 2.4-1.3c-6 2.7-12.5 5.5-19.9 8.4zm16.7-6.7c-3.3 1.9-5.2 3-7.1 4.2q0.9-0.4 1.8-0.8c4.5-2 8.3-3.7 11.5-5.1 11.4-5.5 7-3.8-0.8-0.5-1.7 0.7-3.5 1.5-5.4 2.2zm-21.2 10.4c-0.1-0.1-1.6 0.4-4.1 1.4-2.6 0.9-6.1 2.3-10.4 3.3l2.6 3.2c0.1 0 0.3 0.1 0.3 0q0 0 0-0.1 0.2-0.2 0.4-0.4c0.1-0.1 0.3-0.2 0.4-0.4q0.2-0.2 0.5-0.4c0.8-0.6 1.7-1.2 2.7-1.8 2-1.2 4.2-2.3 6.5-3.4l-0.7 1q1.5-0.7 2.8-1.3 0.7-0.4 1.4-0.7 0.6-0.3 1.2-0.6 2.2-1.3 3.9-2.2c2.2-1.2 3.8-2.2 5.2-3q0.7-0.4 1.4-0.8c-4.1 1.8-8.8 3.9-14.1 6.2zm-20.6-9.1c-6.3 2.2 2.9-1.6 0.9-1-6.3 2.5-11.2 4.5-14.9 6q-1.2 0.5-2.3 0.9c-1.5 0.6-3.3 1.4-5.2 2.3l1.1 2.7q1.7-0.6 3.4-1.2c4.5-2.1 8.1-3.5 12.1-5.2 5-2.1 10.6-4.5 19.5-8.7 0 0 6-2.6 11.9-5.4 3-1.4 5.9-2.8 8.1-3.9 2.2-1.1 3.6-1.9 3.6-1.9-2.1 1.1-3.7 1.9-4.7 2.3-1 0.5-1.5 0.7-1.6 0.6-0.1 0 0.8-0.6 2.5-1.5-11.4 4.6-23.9 9.6-34.4 14zm-24.5-2.8c4.5-1.8 5.9-2.5 5.9-2.7q-0.7 0.3-1.6 0.7c-1.8 0.8-4.3 1.9-7.7 3.3-3.5 1.4-7.9 2.9-13.3 5 3-1.1 5.8-2 8.3-2.9 2.6-0.9 5-1.9 7.2-2.8q1.4-0.6 2.8-1.2-0.8 0.3-1.6 0.6zm2.7-2.5c3.4-1.1 7.4-2.4 11.9-4.1q1.5-0.7 3.1-1.5c-2.6 1-4.2 1.6-4.2 1.6 0.8-0.8-9.5 3.1-21.1 7 2.4-0.6 1.2 0-2.2 1.3-3.4 1.3-9 3.4-15.5 4.9l0.9 2.6c5.1-2.7 11.3-4.8 17.1-7 4.5-1.7 8.6-3.4 12.2-5-1 0.2-2.4 0.5-2.2 0.2zm2.2-0.2c0.5 0 1-0.1 1 0 2.2-1 2.6-1.4 2.1-1.3q-1.5 0.6-3.1 1.3zm-11-8.8c3.3-1 7.6-2.1 9.3-2.4q2-0.8 4.1-1.7 2.6-1.1 5.3-2.4c-5.2 1.8-11.3 3.9-18.7 6.5zm9.3-2.4c-1.6 0.7-3.1 1.3-4.5 1.9q1-0.3 2.2-0.6c3.4-1.2 3.7-1.5 2.3-1.3zm-21.7 6.9c-2.2 0.7-4.6 1.4-8.2 2.4-3.3 1-7.7 2.2-13.9 3.9 2.7-0.7 2.9-0.5 1.3 0.1-1.7 0.8-5.7 2.2-10.9 3.7l0.5 1.4q1.3-0.7 2.7-1.2 0.4-0.1 0.8-0.2c0.2 0 0.6-0.1 0.8-0.2q0.8-0.3 1.6-0.6c-1 0.5-0.7 0.7-0.6 1q0 0.1-0.1 0.2 0 0 0 0c0.3 0 2.6-0.6-0.3 0.2q0 0 0 0.1 0.8-0.2 1.6-0.5 0.6-0.2 1.2-0.4c3.2-1.2 7.5-2.8 11.7-4.4 6-2.4 11.9-4.8 14.9-6.1-5.1 2.3 1.5 0.5 8.4-2-1.1 0.4 1.4-0.6 5.7-2.4-9.4 2.7-13 3.8-17.2 5zm-22.1 6.3q-0.5 0.1-1.1 0.3 0.5-0.2 1.1-0.3zm-6.7 5.4c0 0 0.3-0.1 0.8-0.2q-0.4 0.1-0.8 0.2zm31.9-12.3q0.7-0.3 1.9-0.8c0 0-0.7 0.3-1.9 0.8zm-3.1-14.4c-4.6 1.9-7.7 3.1-7.7 3.1 1.2-0.1-8.2 3.8-17.7 7.6-9.4 3.9-19 7.5-18 7.4 0 0 3.4-1.3 8.5-3.2 5-2 11.7-4.7 18.4-7.4 6.7-2.7 13.4-5.5 18.4-7.6q0 0 0.1 0-0.2 0-0.3 0-0.5-0.1-0.6-0.3-0.6 0.2-1.1 0.4zm2-0.1q0.8 0 2.3-0.3c4.3-2.1 6.6-3.3 5.9-3.2 0 0-3.3 1.4-8.2 3.5zm-10.4 5.3c-12.3 5.4-29.3 12.2-47.2 18.4-4.5 1.5-2.9 0.6-0.3-0.6 2.6-1.3 6.3-2.9 5.9-2.9-1.2 0.5-4.1 1.6-7.6 2.9-3.6 1.3-7.9 2.9-12.2 3.7l1.1 3.4c3.9-1.6 7.7-3.1 10.7-4.3 3-1.2 5.4-2 6.2-2.3 0 0-1 0.4-2.4 0.9-1.4 0.6-3.2 1.3-5 2.1-3.7 1.6-7.4 3.1-7.4 3.1 9.7-3.8 17.7-6.9 26.2-10.4 8.4-3.4 17.4-7.1 29.1-11.8 4-1.7 10.1-4.3 15.2-6.5 5.2-2.2 9.5-4.2 10.1-4.7-4.3 1.8-7.6 2.9-9.7 3.4-3.2 1.5-7.5 3.4-12.7 5.6zm50.3-28.9l0.2 0.9q-0.4-0.1-0.8-0.3 0.3-0.3 0.6-0.6zm-149.1 52.3l0.1 0.3q0.2-0.1 0.5-0.2-0.3 0-0.6-0.1zm110.5-54.4q-0.9 0.1-1.8 0.4-0.1 0.1-0.3 0.2c-0.3 0.2-0.5 0.3-0.8 0.5-0.4 0.1-0.7 0.4-0.9 0.6q-0.8 0.7-1.5 1.3-2.9 2.5-5.7 4.4c-1.8 1.3-3.6 2.3-5.2 3.3q-2.5 1.6-4.5 2.9c-5.4 3.5-8.4 5.4-8.2 5.6 2.1-1.2 4.5-2.5 7-4q2-1.2 4-2.4c1.4-0.8 2.7-1.7 4.1-2.5 2.8-1.6 5.6-3.5 8.2-5.6q0.9-0.7 1.9-1.5l0.8-0.8c0.3-0.3 0.6-0.3 1-0.5 0.7-0.4 1.4-1 1.9-1.8q0-0.1 0-0.1zm-0.7-2.3l0.9 0.8q-0.5 0.1-1 0.2 0.1-0.5 0.1-1zm-145.5 55.5l0.2 0.3q1-0.5 2.1-1-1.1 0.4-2.3 0.7zm105.2-50.9l1.3 2.3q-0.3 0.1-0.6 0.1l-1.1-1.9q0.2-0.2 0.4-0.5zm-30.8 11.6q0.1 0 0.2 0zm23.6-8q-0.6 0.2-1.4 0.5 0.8-0.3 1.4-0.5zm-4.8 3.2q0.3-0.1 0.7-0.3 0.8-0.3 1.6-0.7c1.5-0.7 2.7-1.2 3.3-1.6q-1.2 0.8-3 1.8 1.5-0.4 3-0.8 1.6-0.9 3.1-2-2 0.4-3.9 1-1.9 1-4.5 2.2c-0.3 0.2-0.7 0.4-1.2 0.6q0.4-0.1 0.9-0.2zm53.5-9.3l-0.3-0.2q-0.1 0.2-0.1 0.3 0.2 0 0.4-0.1zm-3.3-0.6q-0.2 0.2-0.4 0.3c-0.1 0-0.4 0.2-0.6 0.2-0.3 0.1-0.4 0.3-0.6 0.5l-0.9 0.7-0.7 0.6q0 0 0 0 2.1-0.7 4.2-1.2 0.8-0.6 1-1.5l-0.1-0.1q-0.9 0.2-1.8 0.4 0 0.1-0.1 0.1zm30.3 8.6q1.6-0.5 3.2-1 0.9-0.3 1.9-0.5c0.2-0.1 0.4-0.3 0.6-0.4 0.1-0.1 0.4-0.2 0.4-0.2q0.3-0.2 0.5-0.3 0.7-0.3 1.3-0.4 1.1-0.9 2-1.8l-0.1-0.7q-1-0.3-1.9-0.2-1.8 1.7-3.9 3-0.8 0.4-1.5 0.8c-0.3 0.2-0.4 0.2-1 0.5l-0.9 0.6q-0.7 0.4-1.4 0.8 0.4-0.1 0.8-0.2zm56.6-14.6q0.2-0.3 0.4-0.7-0.1 0-0.1 0.1-0.1 0.3-0.3 0.6zm0.7-1.6l0.2 0.2q0 0 0 0l-0.2-0.2q0 0 0 0zm2.7 3.1q0 0 0 0l-0.2-0.1q0.1 0 0.1 0zm-5.1 0.8q0.1 0 0.2 0-1.8 0.4-3.3 0.8 1.5-0.4 3.1-0.8zm-113.9 56.4q0.2-0.1 0.4-0.1 0 0 0 0-0.2 0-0.4 0.1zm125.5-44.1c5.3-2.4 12-5.6 18.2-8.6 6.2-3.1 11.8-6 15-7.2 1.9-0.9 4.4-1.9 7.4-2.9l-1.1-2.5c-6.4 3.7-15.2 8.7-25.6 14.1q-6.5 3.4-13.8 7zm28.2-2.6c1.1-0.5 2.1-1 2.9-1.4 1.5-0.7 0.4-0.1-1.6 1q-0.7 0.4-1.6 0.9c-0.6 0.4-1.3 0.7-1.9 1.1-1.3 0.7-2.7 1.4-3.9 2q2.7-1.4 5.2-2.6c1.6-0.9 3-1.7 4.4-2.4q2.2-1.1 4-2 1-0.4 1.8-0.8 0.2-0.1 0.3-0.2c-2.8 2.1-5.4 3.9-7.9 5.6 3.2-2.1 6.2-4.1 8.8-6q0.5-0.2 1.1-0.5 0.3-0.3 0.5-0.6l0.2-0.2q0.1-0.1 0.1-0.1c0 0 0 0 0 0q0.7-0.6 1.4-1.1l0.9-0.7-0.8-0.9c-0.3-0.4-0.7-0.7-1.3-0.9-0.4-0.1-0.8-0.1-1.2 0l0.1-0.4q-0.4 0.3-0.8 0.6c-0.4 0.2-0.6 0.4-0.9 0.7l-0.2 0.1-0.1 0.2q0 0 0 0-0.2 0.2-0.4 0.3c-0.2 0.1-0.5 0.2-0.8 0.4q0.4-0.2 0.7-0.3c-3.6 2.9-5.9 4.6-7.4 5.9-1.9 1.6-2.5 2.4-3.1 3.1q-0.4 0.2-0.7 0.4 1.1-0.6 2.2-1.2zm12.4-6.2q-0.9 0.7-1.9 1.4-0.4 0.2-0.9 0.4 1.4-1 2.8-2 0 0.1 0 0.1 0 0 0 0.1zm-0.4-0.9c-0.1-0.5 0-0.6-0.1-0.4 0 0.1-0.1 0.2-0.1 0.3-0.1 0.1-0.1 0.1-0.2 0.2-0.1 0.2-0.2 0.2-0.3 0.4-0.1 0-0.1 0.1-0.2 0.1l0.3-3.2c0.5-0.1 0.9-0.1 1.4 0.1 0.4 0.2 0.8 0.5 1 0.8l0.7 0.8-0.8 0.6q-0.7 0.5-1.3 1-0.3-0.4-0.4-0.7zm33-2.2l-1.6-1.9c-0.5 1-1.3 2.1-2.5 3q-0.9 0.7-2 1.3-0.6 0.3-1.2 0.5c-0.3 0.1-0.4 0.2-0.7 0.3-0.4 0.1-0.7 0.3-1 0.4 0 0 0.2-0.1 0.5-0.2 0.2-0.1 0.4-0.1 0.6-0.1q0.1 0 0.2-0.1c2.1-0.9 4.7-2.1 7.7-3.2zm11.2 12l0.3-0.3c0.1-0.1 0.2-0.2 0.3-0.2q0.1-0.2 0.3-0.3 0.3-0.2 0.5-0.2c0.3-0.1 0.6-0.1 1 0l-0.5-3.3c-4.1 3.2-8.3 6.4-12.3 9.3 3.4-1.6 6.9-3.3 10.4-5zm9.5 17.9l-1.1 0.6q2.6-1.1 4.9-2.1 2.6-1 4.9-2l0.5-0.5c0.1-0.1 0.1-0.1 0.2-0.2q0 0 0.1 0 0.1-0.1 0.1-0.1 0 0 0 0 0.1 0 0.1 0c0-0.1-0.1-0.2-0.1-0.2l0.1-3.1c-8.9 5.8-15.6 9.6-21 12.7 6.5-2.9 11.3-5.1 11.3-5.1zm9.6-4.5v0.2q0 0 0 0c0-0.1-0.1 0 0-0.3 0 0 0 0 0 0q0 0 0 0.1zm5.6 10.8q0 0 0.1 0-0.1 0-0.1 0zm0.1 0q0 0.1 0.1 0.2l0.7 1-0.5-0.7c-0.1-0.2-0.2-0.3-0.3-0.5zm0.8 1.2l0.3 0.4-0.1-0.1zm11.2 6.8q1.9-0.9 3.4-1.7 0.4-0.1 0.8-0.3 0.2-0.1 0.4-0.2c0.2-0.1 0.3-0.2 0.5-0.3 0.4-0.3 0.6-0.4 0.9-0.6 1.1-0.5 1.8-0.3 1.7-0.3q0.3 0 0.6 0l-0.8-2.9c-5 3.5-10 6.8-15.2 10 2.8-1.4 5.4-2.6 7.7-3.7zm14.6 3.6q-2.6 1.8-4.3 2.9c-2.1 1.4-3.2 2.2-3.6 2.5-0.7 0.6 1.5-0.6 4.6-2.6q4-2.6 7.8-5.3-0.4 0.2-0.7 0.4c-1.2 0.6-2.4 1.3-3.5 1.9q-0.2 0.1-0.3 0.2zm7.2-4q1.8-0.9 3.5-1.7l1.8-0.9 2.1-0.9 0.3-0.3 0.2-0.2q0.1-0.1 0.3-0.1 0.2-0.2 0.4-0.2c0.2-0.1 0.4-0.1 0.8 0l-0.1-0.5q-0.5-0.1-0.9-0.1-0.3 0.1-0.6 0.2c-0.2 0.1-0.3 0.2-0.7 0.5 0.4-0.4 0.5-0.5 0.7-0.6q0.3-0.1 0.6-0.2 0.4-0.1 0.8-0.1l-0.5-2.1q-4.5 3.7-9.2 7.1-1.1 0.8-2.2 1.6 1.4-0.8 2.7-1.5zm4.4-4.7c1.5-0.9 2.8-1.9 4.3-2.9l-0.1-0.2q-0.2 0-0.3 0c-1.3 1.1-2.6 2.1-3.9 3.1zm4.3-2.9v0.4q0.1-0.1 0.2-0.2l-0.1-0.3q-0.1 0.1-0.1 0.1zm0.7 2.5q-0.1 0-0.2 0l0.1 0.3q0.1 0 0.2 0.1zm0.1 0l-0.5-2.4q-0.1 0-0.1 0.1l0.5 2.3q0.1 0 0.1 0zm-12 5.6c-1.6 1.1-3.6 2.5-5.8 4q0.5-0.3 1-0.6 2.1-1.4 4.8-3.4zm-66.8 47.8q0.8-0.3 1.7-0.6-0.8 0.3-1.7 0.6zm73.6-35.5c4.1-2.3 8.2-4.5 12.4-5.8l-1.5-2.7c-4.7 3.9-9.7 7.3-14.4 10.3q-0.9 0.6-1.8 1.2 2.7-1.5 5.3-3zm-65.9 38.8c-4 2-8.1 4-12.4 5.5l1.2 2.2q0.8-0.7 1.7-1.1 0.4-0.2 0.9-0.4c0.4-0.1 0.6-0.2 1.1-0.4q2.2-0.9 4.4-1.9 4.3-2 8.9-4c-6.2 2.6-10.1 3.7 11.2-5.9q-0.4 0.3-0.6 0.4c2.4-1.4 5.5-3.3 9.8-5.9l6.5-3.4c1.4-0.9 2.6-1.7 3.7-2.4q0 0-0.1 0.1l0.2-0.1q0 0 0.1-0.1c-7.9 3.8-18 8.5-28.5 13.3q-4 2.1-8.1 4.1zm73.4-31.1q-0.6 0.3-1.1 0.5 0.6-0.2 1.1-0.5zm13.5-7.8c5.3-3.1 11.2-6.6 15.9-9.4q1.8-1 3.4-2 0.7-0.5 1.4-1 0.6-0.4 1.1-0.8c1.5-0.9 2.7-1.3 3.2-1.5l-0.1-0.1c-0.4 0-1.8 0.4-4.1 1.7 1.6-1 3-1.6 4-1.9l-1.1-2c-8.9 6.7 1.4-1.6-9.3 6.1q-8 6.1-16.6 12.2 1.1-0.6 2.2-1.3zm23.6-17.3c-0.4 0.4-0.4 0.4 0 0.1zm0.1 0.1l0.1 0.2q0 0 0 0l-0.1-0.2q0 0 0 0zm1.2 2.2q0 0 0 0l0.1 0.2q0 0 0 0zm0-0.1l-1.1-1.9q0 0 0 0l1.1 2q0 0 0-0.1zm-78.4 48.9c-3.7 2-7.3 4-11 4.6l1.3 3.6c4.4-2.5 9.4-4.4 14.4-6.3q0.8-0.3 1.6-0.7 4.3-2.3 8.5-4.8c5.6-3.4 11-6.9 16.3-10.4q-2.6 1.1-5.1 2.3-4.6 2-9.3 4c-3.1 1.3-6.2 2.7-9.3 4q-0.8 0.3-1.6 0.6-2.9 1.6-5.8 3.1zm66.4-27.2c6.8-3.5 13.4-7.2 13.4-7.2 4.9-2.9 7-4.5 10.2-6.5 1.6-1.1 3.4-2.2 6-3.7 2.6-1.6 5.9-3.5 10.4-6.2-2.6 1.5-6.4 3.6 0-0.5q3.2-2 6.3-4.2c-0.3 0.1-0.6 0.2-0.6 0.2 0.1-0.1 0.3-0.2 0.8-0.6q0.5-0.3 1.5-0.9 0.5-0.4 1-0.8l-1.5-2.6q-0.6 0.2-1.1 0.5c-0.7 0.5-1.5 1.1-2.5 1.8 0 0-1.2 0.8-2.4 1.6q-0.7 0.4-1.2 0.7c-1.2 0.9-2.3 1.8-3.4 2.6q-5.3 3.7-10.6 7.4c-7.1 4.9-14.1 10-21.3 14.9q-2.7 1.9-5.5 3.7 0.3-0.1 0.5-0.2zm75.4-34.3l0.4-0.3c0.2-0.1 0.4-0.3 0.6-0.5q0.4-0.3 0.8-0.6 0.8-0.5 1.6-1 1.7-0.9 3.6-1.4l-1.7-2.5c-2.1 2.9-4.9 5.4-7.8 7.8zm-66.4 48.8q0.8-0.5 1.5-0.9-0.8 0.5-1.5 0.9zm-3.6 7q0-0.1 0.1-0.1l-0.1 0.1zm0 0l-0.1-0.3q0 0 0 0c0 0 0.1 0.3 0.1 0.3zm-1.5-3.6q0 0 0 0l0.1 0.3q0 0 0 0zm2.4-0.9c-0.6 0.5-1.8 1.2-1.1 1q-0.6 0.3-1.1 0.5l1.1 2.3q3-1.5 6-3 0.7-0.5 1.4-0.9 3.6-2.3 7.1-4.9c3.5-2.5 7-5.1 10.4-7.8-7.3 4.2-15.3 8.5-23.7 12.7q-0.1 0-0.1 0.1zm-2.2 1.5l1 2.3q0 0 0.1 0l-1.1-2.3q0 0 0 0zm26-14.3q0.8-0.5 1.6-1c1.9-1.6 6.2-4.9 1.7-1.7q-1.7 1.4-3.3 2.7zm1.5-0.7q0.5-0.4 1-0.8-0.5 0.3-0.9 0.5c-0.9 0.7-1.2 1.1-0.1 0.3zm-57.6 15.4l4.6-1.7c-8 3.9-12.1 5.8-15.5 7.3q-0.7 0.5-1.3 0.9c10.1-4.8 26.1-12.8 18.1-8.3-3.8 1.7-10.2 4.6-18.1 8.4l1.6 2.8c3.2-2.2 6.8-4.4 10.5-6.7q2.8-1.8 5.8-3.6c1.9-1.3 3.8-2.6 5.8-4q1.8-1.2 3.6-2.5-7.1 3.6-15.1 7.4zm-6.1 6.9c5.1-3.5 1.3-1.3-4.5 2.5q1.1-0.5 2.1-1 1.2-0.7 2.4-1.5zm-4.5 2.5q0 0 0 0 0 0 0 0zm-1.6-2.8q0 0 0 0v-0.1q0 0 0 0zm0 0l1.6 2.8q0 0 0 0l-1.6-2.8q0 0 0 0zm14-17.7c0 0 0.9-0.4 2.4-1.1q-1.5 0.7-2.4 1.1zm-97.7 24q-3.5 1.1-7.6 2.3-1 0.4-2 0.7l-0.7 0.2c-0.2 0.1-0.5 0.1-0.7 0.3-0.3 0.2-0.4 0.3-0.5 0.3q-0.2 0.2-0.4 0.3c-1.1 0.5-2.2 0.6-3.4 0.2l0.4 3.4c4.4-2.6 9.8-4.8 16-7.7-3.7 1.7-3.9 1.9-7.6 3.6 3.5-1.5 7-3.1 10.4-4.8q0.4-0.1 0.7-0.3-2.1 0.7-4.6 1.5zm25.3-25.2c-9.5 4.7-19 9.2-28.7 13.8 10.2-4.7 15.8-7.4 18.8-8.9 3-1.4 3.4-1.5 3.1-1.3-0.1 0.2-0.6 0.5-0.9 0.7 2-1 3.7-1.9 5.1-2.7q2.1-1.2 3.8-2.2-0.6 0.3-1.2 0.6zm-7.7 4.3c-3.7 2-8.4 4.5-13.1 7 4.9-2.3 10.9-5.3 18.6-9.3-5.9 2.8-6.1 2.8-5.5 2.3zm-26.6 12.9q-1.2 0.5-2.3 1-1.2 0.5-2.2 0.9c-1.5 0.7-2.8 1.3-4.2 1.8-1.3 0.6-2.7 1.1-4.2 1.6-1.2 0.3-2.6 0.6-3.9 0.7q-0.3 0.2-0.6 0.4l1.2 3.9q0.5 0 1-0.1 2-1.2 4.5-2.6c2.1-1.1 4.6-2.3 7.3-3.8 5-2.7 11-6 18.6-10.2-8.5 4.6-24.5 13.1-14.1 7.2 3.8-2.1 8.1-4.4 12.4-6.7-5.8 2.7-10 4.5-13.5 5.9zm15.2-6.4q1.3-0.7 2.2-1.3-1.1 0.7-2.2 1.3zm-27.8-0.5c2.6-0.9 2-0.4-1.7 1.4-3.6 1.7-10.2 4.7-19.8 8.6-0.3 0.1-0.6 0.2-0.8 0.3l0.8 1.6-0.8-1.6q-0.1 0-0.1 0l0.9 1.6q0.1 0 0.2 0 0 0 0.1 0 0 0 0 0 0.1 0 0.2 0.1 0 0 0 0 0 0 0 0 0 0 0 0 0 0 0 0 0 0 0 0 0.1 0.1 0.2 0.1 0 0 0 0 0 0 0 0 0 0 0 0 0 0 0 0 0 0 0 0 0 0 0 0 0 0.1 0 0.1 0 0 0 0 0 0 0 0l0.1 0.1 0.2 0.1q0-0.1-0.1-0.1l0.2 0.1q0.1-0.2 0.2-0.3 0.3-0.2 0.6-0.4 0.5-0.4 0.9-0.6c0.6-0.3 0.8-0.5 0.9-0.5 0.3-0.1-0.1 0.2 0 0.2 0 0 0.5-0.3 2.4-1.5 2-1.1 5.5-3.2 11.8-6.5-2.4 1.4-4.8 2.8-7.6 4.5q-2.1 1.3-4.5 2.7-1.2 0.8-2.4 1.6c-0.4 0.2-0.8 0.5-1.2 0.8-0.2 0.1-0.3 0.3-0.5 0.4q0 0 0 0 0 0.1 0.1 0.1l0.1 0.2h0.1q0 0.1 0 0c0 0 0.1-0.1 0.2-0.2 0.2-0.1 0.5-0.3 0.8-0.6q0.9-0.6 1.9-1.2c1.3-0.9 2.7-1.7 4.1-2.5 2.8-1.6 5.6-3.1 8.3-4.6q2-1 3.9-2.1c1.3-0.6 2.6-1.3 3.7-2 2.2-1.3 4.3-2.4 5.9-3.4-1.7 1-3.7 2.1-5.5 3.1-0.9 0.5-1.7 1-2.6 1.4q-1.2 0.6-2 1.1c0 0 0.6-0.4 1.6-0.9 1.1-0.6 2.5-1.5 4.2-2.5 1.6-0.9 3.5-2 5.5-3.2-3.1 1.4-6.6 2.9-10.5 4.5zm-21 12q-0.1-0.1-0.2-0.1 0.1 0 0.2 0.1 0 0 0 0 0 0 0 0zm0.3 0.3l-0.1-0.1q0 0 0 0 0 0 0-0.1 0 0 0 0 0.1 0.1 0.2 0.2zm0.8 0.5q-0.2-0.1-0.3-0.2 0.1 0.1 0.3 0.2zm-1-0.6q0 0 0 0 0 0 0 0 0 0 0 0zm-1.5-1.9q0 0 0 0l-0.3-0.7q0 0.1-0.1 0.1zm5.5-2.9c1.1-0.6 5.9-2.7 7.1-3.4-4 1.6-8.4 3.3-13.1 5.2q0 0 0 0l0.2 0.4q2.6-1 5.8-2.2zm-3.6 4.9q0.1 0.1 0.3 0.2-0.1-0.1-0.2-0.1zm93.4-54.2l-0.6-0.9-0.7-1q0 0 0 0l-1.3-1.9q-0.7 0.5-1.4 1-0.1 0-0.1 0c-0.1 0.4-0.1 1.1 0.2 1.7 0.3 0.7 0.8 1.1 1.1 1.3 0.4 0.2 0.7 0.2 0.9 0.2q0.3 0.1 0.4 0.1h0.1l0.1-0.1 0.4-0.1q0.3-0.1 0.7-0.2 0 0 0.1-0.1 0 0 0.1 0zm-67.9 22.3c-1.4 0.7-4.1 2.1-9.9 4.8q-6.4 2.9-12.7 5.7c-3.3 1.5-6.7 2.8-10 3.8q-1.1 0.7-2.1 1.5l1.5 3q1.5-0.4 3-0.9c2.7-1.7 5.7-3.2 8.7-4.9q6.1-3.3 12.3-6.7c8.4-4.5 17.2-9.5 26.8-14.8l16.9-8.3c9.5-5.3 7.2-4.2 3.9-2.7-12.4 6.8-25.5 13.5-38.4 19.5zm-167.8-4.7q0.9-0.2 1.5-0.4 0.1-0.1 0.2-0.2-0.6 0.2-1.7 0.6zm117.4-56.9q0 0 0-0.1-2 0.3-3.9 0.8 0 0-0.1 0 2-0.4 4-0.7zm0.1-0.3q0.2-0.3 0.4-0.7l-1.4-1.6q-0.4 0.1-0.7 0.1c-0.5 1.2-1.2 2.2-2.2 3.1q1.8-0.5 3.9-0.9zm0.4-0.7q0 0 0-0.1l-1.3-1.5q-0.1 0-0.1 0zm23.4 93.9q0.1 0 0.2 0.1 0 0-0.1 0 0-0.1-0.1-0.1zm0.4 0.2q0.1 0 0.2 0.1 0 0 0 0-0.1-0.1-0.1-0.1 0 0 0 0-0.1 0-0.1 0zm1.2 0.8q0 0 0 0 0 0 0 0zm-2.7-51.6c-4.3 1.7-15.3 7.3-20.9 10 9.7-4.3 14.7-6.5 20.9-10zm22-40.2q0.1 0 0.2-0.1 0.1-0.1 0.2-0.1 0.1-0.1 0.1-0.2 0.6-0.5 1.2-1 0.1 0 0.2-0.1 0.3-0.1 0.6-0.2v0.2q-0.1 0-0.3 0c-0.9 0.3-1.5 1.1-1.8 1.3q-0.2 0.1-0.4 0.2zm-260 52.8c0.6-0.2-1.4 0.6-8 2.9-0.2 0-0.4 0.1-0.7 0.2 4.6-1.6 8-2.8 8.7-3.1zm0.7-6.7c2.7-1.2 2.4-1.2 1.3-0.8-0.9 0.4-2.8 1.3-5.4 2.4-2.5 1.1-5.7 2.4-9.2 3.9 2-0.8 5.5-2 13.3-5.5zm273.5 47.9c0.2-0.1 2.3-1 8-3.7 0 0-1.3 0.5-2.6 1.1-1.3 0.5-2.5 1.1-2.5 1.1-1.6 0.7-3.2 1.5-2.9 1.5z"/>
			<path id="&lt;Path&gt;" class="s0" d="m258.7 44.9c-1.6 0.8-2.1 1-2.5 1.1-2 1.4-2 1.5 2.5-1.1z"/>
			<path id="&lt;Path&gt;" class="s0" d="m300.3 75.9l0.8-0.4c0.5-0.3 0.8-0.4 0.9-0.5z"/>
			<path id="&lt;Path&gt;" class="s0" d="m187.5 22.8c2.9-1 5.1-1.6 6.9-2.1q0.3-0.1 0.5-0.1c0.1 0 0.2-0.1 0.4-0.2q0.2-0.1 0.5-0.2 0.3-0.2 0.6-0.3 1.1-0.5 2.2-0.7c0.2-0.1-0.7-0.2-2.6 0.8-0.2 0.1-0.5 0.2-0.7 0.3-0.2 0.1-0.3 0.2-0.4 0.2q-0.9 0.3-1.9 0.6c-1.5 0.4-3.3 0.9-5.5 1.7z"/>
			<path id="&lt;Path&gt;" class="s0" d="m73.2 42.2l17.2-6.5c-8.3 3.1-11.4 4.1-15.6 5.6 0.4 0 3.8-1.1-1.6 0.9z"/>
			<path id="&lt;Path&gt;" class="s0" d="m41.9 46.2c2.4-1.2 5.2-2.3 7.6-3.5l-0.7 0.1c-10.5 4.7-17.8 8-6.9 3.4z"/>
			<path id="&lt;Path&gt;" class="s0" d="m56.6 46.5c-0.8 0.1-3.8 1.2-8.3 2.7-4.4 1.6-10.2 3.6-16.3 5.8 0.8-0.3 1.5-0.5 2.2-0.8-1.7 0.9 0.7 0.2 5.1-1.3 4.4-1.6 10.9-3.9 17.3-6.4z"/>
			<path id="&lt;Path&gt;" class="s0" d="m29.2 56c-3.7 1.3-7.6 2.7-11.2 4-1.4 0.7 4.5-1.6 11.2-4z"/>
			<path id="&lt;Path&gt;" class="s0" d="m69.7 47.5c5.7-2.3 3.3-2 6.6-3.2 6.1-3.1-37.3 16.6-6.6 3.2z"/>
			<path id="&lt;Path&gt;" class="s0" d="m46.3 48.8l4.5-1.1 6.7-2.8c0 0-2.8 1-5.6 2-1.4 0.5-2.8 1-3.9 1.3-1 0.4-1.7 0.6-1.7 0.6z"/>
			<path id="&lt;Path&gt;" class="s0" d="m108.2 31.9c2.9-1.4 5.9-2.7 8.7-4.2 2.8-1.5 5.5-3.2 7.4-5.7l0.3 0.3-1.4 0.3c0.3 0-2.3 0.4-5.4 1.2 2.3-0.5 4.5-1 6.8-1.3l-0.4-0.6c-1.5 1.9-3.6 3.4-5.5 4.6-2 1.2-3.9 2.1-5.5 2.9-3.2 1.5-5.2 2.5-5 2.5z"/>
			<path id="&lt;Path&gt;" class="s0" d="m117.8 23.8c-6.4 1.6-12.3 3.9-15.7 5.2 3.3-1.2 10.6-3.9 15.7-5.2z"/>
			<path id="&lt;Path&gt;" class="s0" d="m72.8 39l5.7-2 13.7-4.9z"/>
			<path id="&lt;Path&gt;" class="s0" d="m133.6 28.9c0 0 1.3-0.5 3.3-1.4 1.9-0.8 4.5-2 7-3.2 2.6-1.2 5.1-2.3 7.1-3.1 1.9-0.8 3.2-1.3 3.2-1.3 2.1-1-3.7 0.9-11.3 4.5-2.4 1.2-5.5 2.7-7.6 3.6-2.2 1-3.3 1.5-1.7 0.9z"/>
			<path id="&lt;Path&gt;" class="s0" d="m69.7 52.5c5.8-2 6.2-2 9.5-3.1l0.4-0.8z"/>
			<path id="&lt;Path&gt;" class="s0" d="m130.8 28.4c0.5-0.3 2.7-1.1 5.1-2.2 2.5-1.2 5.3-2.5 7.2-3.5 2-0.9 3.1-1.4 2-1-1 0.4-4.2 1.9-10.7 4.7-2 1.1-22.9 9.6-3.6 2z"/>
			<path id="&lt;Path&gt;" class="s0" d="m188 32.1c0 0 1.3-0.7 2.6-1.4 1.2-0.7 2.4-1.5 2.4-1.5l-1.2-0.4c0 0-0.9 0.8-1.8 1.7-1 0.8-2 1.6-2 1.6z"/>
			<path id="&lt;Path&gt;" class="s0" d="m235.5 27.2c4.9-3 7.9-4.9 9.9-6.1q0.2-0.2 0.4-0.3 0.3-0.1 0.5-0.2 0.7-0.4 1.2-0.6c0.7-0.4 1.1-0.7 1.4-1 0.7-0.5 1-0.8 1.7-1.6 0.4-0.4 0.9-1 1.4-1.8 0.6-0.8 1.2-2 1.8-3.6l1.1-3.6-3.7 0.6c-1.9 0.3-4.5 0.8-7.9 1.7-3.3 1.1 2.5-0.8 7.9-1.5l3.4-0.5-1 3.2c-0.4 1.3-1 2.5-1.7 3.4-0.6 1-1.3 1.7-1.9 2.1-0.5 0.5-0.9 0.7-0.9 0.7 0 0 0.3-0.2 0.9-0.8-0.9 0.8-1.8 1.5-2.8 2q-0.7 0.4-1.4 0.7l-0.3 0.1q0 0-0.1 0.1l-0.5 0.3q-2.2 1.4-4.1 2.6c-2.5 1.6-4.4 2.9-5.8 3.7-2.7 1.7-2.9 2 0.5 0.4z"/>
			<path id="&lt;Path&gt;" class="s0" d="m250 17.3c1.5-1.4 2.7-3.3 3.3-5.5l0.8-2.9-2.8 0.6c-0.9 0.1-1.8 0.3-2.8 0.5 1.6-0.3 2.9-0.5 2.8-0.5l2 2.3c-0.6 1.8-1.3 3-1.9 3.8-0.6 0.9-1 1.3-1.4 1.7z"/>
			<path id="&lt;Path&gt;" class="s0" d="m512.8 59.6l14.6-8.9-9.5 5.6z"/>
			<path id="&lt;Path&gt;" class="s0" d="m540.1 40.9c0 0 0.9-0.5 1.8-1 0.9-0.5 1.8-1 1.8-1 0 0 2-1.8 3.8-3.7 0.5-0.5 0.9-0.9 1.4-1.5 0.5-0.5 1-1.2 1.3-2 0.2-0.8 0.2-1.5 0.2-1.9q-0.1-0.6-0.1-0.6c0.1 0.6 0.1 1.5-0.2 2.4-0.4 1-1 1.7-1.5 2.2-0.5 0.5-1 0.9-1.5 1.4q-0.8 0.7-1.6 1.4c-2.1 1.8-4.2 3.5-5.4 4.3z"/>
			<path id="&lt;Path&gt;" class="s0" d="m214.2 86.8c0 0 0-0.1 0.1-0.3 0.2-0.1 0.3-0.3 0.3-0.3q-0.1 0.1-0.3 0.2l-0.2 0.2q0 0-0.1 0.1c0 0-0.1 0.1-0.2 0.2q0 0 0 0 0 0-0.1-0.1h-0.1l-0.2-0.1q-0.3-0.1-0.6-0.2l-2.8-4c2.4-0.4 5.7-1.4 11-3.5-3.7 1.4-7.4 2.6-11 3.3l2.8 4.2c0.6 0.1 1.5 0.6 1.2 0.5 0 0 0 0 0.1-0.1z"/>
			<path id="&lt;Path&gt;" class="s0" d="m278.5 71.8l3.5-1.9-6.8 3.1z"/>
			<path id="&lt;Path&gt;" class="s0" d="m357.6 46.7c2.4-1.4 5-3 7.5-4.7l4.7-2.9-4.5-3.2c-0.6-0.5-1.3-0.9-2.3-1-0.9-0.2-1.9-0.1-2.7 0.1-0.8 0.3-1.5 0.7-1.9 1q-0.2 0.2-0.4 0.3l-0.2 0.2q-1.2 0.5-2.3 1-1.6 0.6-3.1 1.3-3.1 1.3-5.9 2.6 3.4-1.6 6.5-2.9 1.5-0.6 2.9-1.2c0.9-0.3 2.2-0.8 2-0.7v-0.1c0 0.1 0.2-0.1 0.3-0.2q0.1-0.1 0.3-0.2c0.5-0.4 1.2-0.8 2-1 0.8-0.2 1.8-0.3 2.7 0 0.8 0.2 1.5 0.5 2 0.9l4.3 3.1-4.5 2.8c-5.8 3.6-8.7 5.1-7.4 4.8z"/>
		</g>
	</g>
</svg>