<svg version="1.2" xmlns="http://www.w3.org/2000/svg" viewBox="0 0 292 55" width="292" height="55">
	<title>Vector Smart Object-ai</title>
	<style>
		.s0 { fill: #e9e7e7 } 
	</style>
	<g id="Objects">
		<g id="&lt;Group&gt;">
			<path id="&lt;Path&gt;" class="s0" d="m55.4 0.7c1.6-0.1 1.1 0.3 1.3 0.4-1.3 0-1.6-0.1-1.6-0.2 0-0.1 0.3-0.2 0.3-0.2z"/>
			<path id="&lt;Path&gt;" class="s0" d="m26.7 9.9h0.6l-4.4 1.4z"/>
			<path id="&lt;Path&gt;" class="s0" d="m14.9 13.7c-0.7 0.5-1.8 0.9-3.2 1.3-1.3 0.4-2.8 0.7-4.4 0.7l0.9 2.2c0.7-0.6 1.8-1.1 2.9-1.6 1.1-0.4 2.2-0.8 3.2-1.3l0.8-0.4 2.4-0.4c-0.8 0.3-1.5 0.6-2.4 0.9q-1.2 0.5-2.5 0.9-1.3 0.4-2.4 0.9c-0.7 0.4-1.4 0.8-1.8 1.1l-1.1-2.5c2.8 0 5.6-1.1 7.6-1.8z"/>
			<path id="&lt;Path&gt;" class="s0" d="m29.5 8.2c-0.8 0.5 3.4-0.6-3.5 0.9 0.4-0.1 0.4-0.2 0.6-0.2 0.7-0.2 1.5-0.4 2.9-0.7z"/>
			<path id="&lt;Path&gt;" class="s0" d="m26.6 8.9c-3 0.7 1.9-0.7 0 0z"/>
			<path id="&lt;Path&gt;" class="s0" d="m40.5 6l-4 0.6c0.8-0.3 4.3-1.1 3-0.9 4.1-0.7 3.3-0.4 1 0.3z"/>
			<path id="&lt;Path&gt;" class="s0" d="m44.4 5.8l-2.1 0.3c0.3-0.1 0.9-0.3 2.1-0.3z"/>
			<path id="&lt;Path&gt;" class="s0" d="m37.9 6.8l4.4-0.7c-0.5 0.2-0.6 0.5-2 0.3 0.4 0.2-0.5 0.1-2.4 0.4z"/>
			<path id="&lt;Path&gt;" class="s0" d="m35.5 7.4c-2.2 0.6-5 1.3-1 0.7-3.8 0.7-5.4 1-5.2 0.8 0.3-0.2 2.4-0.8 6.2-1.5z"/>
			<path id="&lt;Path&gt;" class="s0" d="m16.5 13.9c0 0-0.7 0.3-1.4 0.6-0.7 0.3-1.4 0.6-1.4 0.6 0 0-0.6 0.1-1.3 0.3-0.6 0.1-1.2 0.2-1.2 0.2 1.2-0.1 5.4-2 5.3-1.7z"/>
			<path id="&lt;Path&gt;" class="s0" d="m65.2 1.3c0.3 0.2-1.3 0.6-1.5 0.9l-3 0.3c1.5-0.4 4.3-0.9 4.5-1.2z"/>
			<path id="&lt;Path&gt;" class="s0" d="m63.7 2.2l4.4-0.4c-3.9 0.6-4.7 0.6-4.4 0.4z"/>
			<path id="&lt;Path&gt;" class="s0" d="m45.2 6.5l-7.2 0.8c0 0 2.1-0.3 4.3-0.5 2.1-0.3 4.3-0.6 4.3-0.6z"/>
			<path id="&lt;Path&gt;" class="s0" d="m82.2-0.8l-2.6-0.1 4.5 0.1z"/>
			<path id="&lt;Path&gt;" class="s0" d="m83.3 7.4c2-0.2-2.4 1.1-0.4 0.8q-0.6 0.1-1.1 0.3-0.5 0-1 0.1-1 0.2-2 0.4-2 0.3-3.7 0.6c1.2-0.2 2.5-0.5 3.8-0.9q1-0.3 2.2-0.6 1-0.3 2.2-0.7z"/>
			<path id="&lt;Path&gt;" class="s0" d="m71.1 10.2c1.3-0.2 2.6-0.4 4-0.6q-2 0.4-4 0.6z"/>
			<path id="&lt;Path&gt;" class="s0" d="m75.6 0.7c0.4-0.1 1-0.4 3.5-0.8l-1.7 0.6q-0.8 0.1-1.8 0.2z"/>
			<path id="&lt;Path&gt;" class="s0" d="m77.3 0.6l0.1-0.1c1.9-0.2 3.2-0.3 3.7-0.4-0.4 0.1-1.6 0.2-3.8 0.5z"/>
			<path id="&lt;Path&gt;" class="s0" d="m75.2 0.8c0.2 0 0.3 0 0.4-0.1-0.1 0.1-0.2 0.1-0.4 0.1z"/>
			<path id="&lt;Path&gt;" class="s0" d="m56.6 4c2.6-0.2 8.1-0.8 2.9 0.4-1.9 0 1.1-0.7-2.9-0.4z"/>
			<path id="&lt;Path&gt;" class="s0" d="m73.1 1.6l-4.7 0.7c0.1-0.1 0.9-0.4-0.4-0.3z"/>
			<path id="&lt;Path&gt;" class="s0" d="m75.4 1.4l-2.3 0.2 1.7-0.3z"/>
			<path id="&lt;Path&gt;" class="s0" d="m78.9 7.9c-2 0.3-4.2 0.8-6.7 1.4 2.6-0.7 5.3-1.4 7.9-2.1 0.4 0.1 1.6 0-1.2 0.7z"/>
			<path id="&lt;Path&gt;" class="s0" d="m89.7 3.7c-0.3 0.5-0.7 0.8-0.9 0.9 0.4-0.3 1-1.1 0.9-0.9z"/>
			<path id="&lt;Path&gt;" class="s0" d="m48.1 15.1q0.2-0.1 0.4-0.1 0.1 0 0.1 0z"/>
			<path id="&lt;Path&gt;" class="s0" d="m80.5 7c0.9-0.2 1.8-0.4 2.4-0.5 0.8-0.2 1.4-0.3 2-0.4-1.6 0.4-3.3 0.7-4.8 1.1-0.2 0-0.2 0 0.4-0.2z"/>
			<path id="&lt;Path&gt;" class="s0" d="m64.4 11.7c1-0.4 2.1-0.7 3.3-1.1-0.9 0.4-2.9 1.1-3.3 1.1z"/>
			<path id="&lt;Path&gt;" class="s0" d="m87.9 5.3q0.2-0.1 0.4-0.2c-0.8 0.5-0.7 0.4-0.4 0.2z"/>
			<path id="&lt;Path&gt;" class="s0" d="m87.9 5.3c-1.3 0.5-2.1 0.6-3 0.8q0.9-0.2 1.8-0.5c0.7-0.3 1.3-0.5 2.1-1q-0.6 0.5-0.9 0.7z"/>
			<path id="&lt;Path&gt;" class="s0" d="m40.2 14.1c0.4 0.3 5.7-0.5 10.1-1.9 4.5-0.7 1.9 1.2-1.8 2.8-0.2-0.2-0.2-0.3-4.8 0.4 1.6-0.5 10-2.7 6.1-2.2-6.1 1.1-4.9 1.2-7.8 2.1 2.4-1-7.8 1-6.7 0l5.3-0.9c0.1-0.2-1.8 0.1-0.4-0.3z"/>
			<path id="&lt;Path&gt;" class="s0" d="m57.2 12.9l1.8-0.4c-2.1 0.6-3.6 1.1-6.3 2.1-3.2 0.5-3.8 0.5-4.1 0.4 0 0 2.3-0.5 4.6-1 2.3-0.6 4.6-1.2 4.6-1.2z"/>
			<path id="&lt;Path&gt;" class="s0" d="m67.4 10.4c-1.6 0-6.1 0.9-3.5-0.2 5.5-1.3 4-0.6 7.3-1.2-8.9 2 2.6-0.4-3.7 1.4 1.7-0.4 3.3-0.8 4.7-1.1q-2.3 0.7-4.5 1.3 0.1 0 0.2-0.1h0.1c0.3-0.1 0.4-0.2 0 0 0 0-0.1 0-0.2 0 0 0-0.2-0.1-0.4-0.1-2.5 0.8-0.4 0.2 0.4 0.1 0.1 0 0.1 0 0.2 0q-0.1 0-0.1 0l-8.9 2c1.9-0.5 4.2-1.1 8.4-2.1z"/>
			<path id="&lt;Path&gt;" class="s0" d="m64.5 4.6c0.2-0.1 0.2-0.1 0.2-0.2 0.6 0 0.8 0-0.2 0.2z"/>
			<path id="&lt;Path&gt;" class="s0" d="m68.1 3.8c-0.6 0-1.2-0.1-3.3 0.3-1.9 0.4 0 0.2-0.1 0.3-1.3 0.1-4.5 0.4-0.5-0.4l0.6-0.1c3.6-0.6 8.2-1.8 7.6-1.8-1 0.6-1.9 1-4.3 1.7z"/>
			<path id="&lt;Path&gt;" class="s0" d="m87.3 4.1c0 0-0.5 0.2-1.2 0.5-0.7 0.2-1.7 0.4-2.6 0.7-1.8 0.4-3.7 0.8-3.7 0.8l3.6-1.3-0.1 0.2c2.1-0.5 3-0.8 3.4-0.9 0.4-0.1 0.3 0 0.6 0z"/>
			<path id="&lt;Path&gt;" class="s0" d="m47.4 15.5l1 0.2-4.4 0.4z"/>
			<path id="&lt;Path&gt;" class="s0" d="m37.7 17.6l0.5 0.3-2.6 0.3z"/>
			<path id="&lt;Path&gt;" class="s0" d="m105.7 21.6l-2.2 0.4c1-0.2 1.7-0.3 2.2-0.4z"/>
			<path id="&lt;Path&gt;" class="s0" d="m121.5 18.3l0.5 0.2c-0.8 0-1.1-0.1-0.5-0.2z"/>
			<path id="&lt;Path&gt;" class="s0" d="m24.1 24.2c3.1-1 6.5-2.2 6.2-1.7l-0.9 0.6c-2.2 0.4-3.9 0.8-5.3 1.1z"/>
			<path id="&lt;Path&gt;" class="s0" d="m43.2 27q0.4-0.1 0.9-0.3 1.2 0 2.2 0.1c-0.9 0-2 0.1-3.1 0.2z"/>
			<path id="&lt;Path&gt;" class="s0" d="m40.6 25.6c0 0-1 0.3-2.1 0.5-1 0.3-2.1 0.6-2.1 0.6 0.9-0.3 2.3-0.7 4.2-1.1z"/>
			<path id="&lt;Path&gt;" class="s0" d="m93.1 33.5l2.6-0.2c-4 0.9-2.3 0.3-2.6 0.2z"/>
			<path id="&lt;Path&gt;" class="s0" d="m72.3 6.3c2.8-0.3 5-0.5 7-0.7-3.4 0.5-6.1 1-7 0.7z"/>
			<path id="&lt;Path&gt;" class="s0" d="m112.8 24.8c-1.3 0.2-1.9 0.3-1.9 0.2 1.4-0.3 2.2-0.3 1.9-0.2z"/>
			<path id="&lt;Path&gt;" class="s0" d="m87.4 5.3q-0.7 0.1-1.5 0.1c-2.1 0-4.1 0.1-6.6 0.2 2.4-0.3 5.3-0.5 8.1-0.3z"/>
			<path id="&lt;Path&gt;" class="s0" d="m179.3 38.2c0.3 0 0.6 0 0.8 0 0 0.1-0.3 0-0.8 0z"/>
			<path id="&lt;Path&gt;" class="s0" d="m272 45.1c-0.9-0.1-2.3-0.4-3.7-0.6 0.7 0.1 1.8 0.3 3.7 0.6z"/>
			<path id="&lt;Path&gt;" class="s0" d="m11.8 17.1c-2.1 0.5-0.4 0 0 0z"/>
			<path id="&lt;Path&gt;" class="s0" d="m8.7 22.6c-0.4 0-0.8 0-0.8 0q0.2 0.1 0.8 0z"/>
			<path id="&lt;Path&gt;" class="s0" d="m91.3 11.8q-0.1 0-0.2 0.1c0.6-0.3 0.5-0.2 0.2-0.1z"/>
			<path id="&lt;Path&gt;" class="s0" d="m8.7 18.2q1.2-0.5 2.6-0.9c-0.4 0.1-1.2 0.4-2.6 0.9z"/>
			<path id="&lt;Path&gt;" class="s0" d="m9.1 17.9c-0.8 0.2-1.3 0.5-1.9 0.7-0.3 0 0-0.2 1.9-0.7z"/>
			<path id="&lt;Path&gt;" class="s0" d="m14.6 16.3q-1.7 0.5-3.3 1 0.6-0.2 0.5-0.2c0.6-0.2 1.4-0.4 2.8-0.8z"/>
			<path id="&lt;Path&gt;" class="s0" d="m117.1 31.9q0.2 0 0.4 0c2.1-0.1 1.2 0-0.4 0z"/>
			<path id="&lt;Path&gt;" class="s0" d="m78.3 19.9c-0.1 0-0.1 0-0.2 0q0.1 0 0.3 0z"/>
			<path id="&lt;Path&gt;" class="s0" d="m85.8 19.3c-3.3-0.2-5.1 0.1-7.4 0.6l2.3-1.6z"/>
			<path id="&lt;Compound Path&gt;" fill-rule="evenodd" class="s0" d="m68 30.2c0 0 1.2-0.5 2.5-0.9 1.2-0.4 2.5-0.9 2.5-0.9-6.4 1-10.8 2.6-6.1 0.7 0.5 0.5 5.5-0.8 10.5-2 5.1-1.2 10.1-2.2 10.6-1.6l3.3-1.1c-0.9 0.3-1.1 0.2-2.1 0.4 6.5-2 5.1 0 13.6-2.1 2.9-0.7 4.9-1.3 2.9-1.1l6.6-1q0.7-0.2 1-0.3-0.5 0-1.1 0 0.2 0 0.6-0.1-0.3 0.1-0.6 0.1-0.7 0.1-1.4 0.1c0 0.4-3.2 0.6-7.2 1l0.3 0.6c-4.4 0.2-4.1-0.1-6.7-0.1-4.8 0.6-5.7 1.3-6.8 1.8-7.7 1.2 5.2-1.5-3.9-0.3-6.4 1.1-11 1.6-18.7 2.8-4.4 1.1 0.9 0.2-0.7 0.7l-4.1 0.3c-0.9 0.2-0.6 0.3-0.4 0.3-3.4 0.5-0.4-0.5-5.7 0.4-0.8-0.2-3.4 0.6-6.8 1.4-3.3 0.9-7.3 1.8-10.6 1.9-1.6 0.5 0.8 0.3 0.4 0.6-3.5 0.4-5.5 0.6-7.2 0.7-1.6 0.1-2.9 0.2-5.1 0.1l-0.6-2.8c-3 0.8-6.2 1.4-9.3 1.9-2.5 0.4-5 0.7-7.5 0.8l-2.9 0.6v-0.3c0.4 0 1.3-0.2 2.2-0.3q-0.9 0-1.8 0-0.1 0-0.2 0-0.1 0.1-0.2 0.1v-0.1q0-0.1-0.1-0.1l0.1 0.2q-0.1 0-0.1 0v-0.2q-0.3 0-0.5 0l-0.4-4.1q0.2-0.1 0.5-0.1v-0.2q0 0 0 0v0.2q0.1 0 0.1 0v-0.3q0.1 0-0.1-0.1v-0.3q2.5 0 5.1-0.4 1.7-0.4 3.3-0.8c2.3-0.3 3.9-0.7 5.4-1.1q-0.3 0-0.5 0c0.2 0 0.5-0.1 0.9-0.1q1.4-0.4 3.1-0.9c-1 0.3-1.8 0.6-2.6 0.8 1.7-0.4 4.3-0.8 6.9-1.2l1-0.7c0.2 0 0.4 0 0.6 0 2.5-0.7 2.1-0.2 0.8 0.4 1.3-0.2 2.5-0.3 3.5-0.3 1.9-1.2 6.7-0.9 9.4-2.2 0.7 0 3.1-0.3 5.6-0.6 1.2-0.4 2.2-0.7 2.4-0.6q-0.4 0.2-0.7 0.4c2.7-0.3 5.5-0.6 6.7-0.5 1.7-0.3 3.4-0.7 5.1-0.9-1.5 0-3.2 0-1.7-0.6 0.1 0.1 2.1-0.1 2.9-0.2 2.1-0.7-1.1-0.3 3.7-1.4 0.9 0.5 9.6-2.5 2.4 0 4.6-1 4.8-1.4 10.2-2.8-1.6 0.9 5.3 0.2 9.9-1.1-0.3-0.1 0.6-0.6 1.1-0.9q1.2-0.4 2.4-0.8 0.5-0.1 1.1-0.3c0.4-0.1 0.8-0.1 1.1-0.1 1.4-0.2 2.5-1 3-2.1-4.8-0.4-9-0.3-14.8 0-0.8 0.2-5.2 0.6-3.3 0.8-1.3 0-2.5-0.2-5.3-0.1-5.4 0.9 6.2-0.2 2.1 0.7-0.4-0.4-7.3-0.1-11.3 0 1.2-0.8 9.2-0.8 13.3-0.8-0.1-0.8-7.1-1.4-16.6-0.9-7.6 0.5-3.3 0.9-4.6 0.9-7.1 0.8-10.1 1-12.9 1.2-2.7 0.2-5.2 0.3-11 2-4.4 1.6 0.1 1-0.8 1.7 6-1.2 9.1-2.4 13.3-3.1 0 0-1.3 0.3-2.5 0.6-1.3 0.3-2.5 0.6-2.5 0.6 1.9-0.2 6-0.8 8.2-1.3-1.9 0.5-7.8 1.5-14.5 3.1-6.8 1.5-14.2 3.6-19.5 5.2-1.9 0.3-5.2 1.1-3.7 0.4l3.4-0.8c2.9-1.2-6.5 1.1-2.3-0.2-2.6 0.5-5.5 1-8.5 2.4l0.9 2.7q3.6-0.5 7.7-1.7l1-0.8c-0.5 0.3-4 1.3-5.8 1.5 2.8-0.4 9.5-3.2 12.6-3l-4.4 1.4c4.6-0.8 10.4-1.3 16-2.8-2.4 1.2-1.3 0.2-5.2 1.8 1.7-0.8-2 0-5.3 0.8-3.1 0.6-5.9 1.4-4.3 0.6-3.6 1.5-6.7 2-11.9 3.7 0.1-0.2 1-0.5-0.2-0.3l-1.7-5c0.5-0.2 1.3-0.6 2.7-1.2 0.3 0 0.8-0.2 1.2-0.2 0.1-0.1 0.2-0.1 0.3-0.2q-0.1 0.1-0.3 0.1c0.3 0 0.3 0-0.1 0.1-1.1 0.5-2 1-2.3 1.2 1.3-0.3 3.8-1.1 6.4-1.7 2.5-0.6 5-1.1 6.3-1.4 2.8-0.8-1.2 0.1 0.2-0.5l3.9-0.7c0.3-0.5 7.3-2.7 0.6-1.2l6-1.6c3.4-1.1 8.3-2.3 11.4-2.7 2.9-0.7 7.4-0.9 4.8-0.8 0 0 2.4-0.3 4.9-0.6 2.4-0.3 4.8-0.5 4.8-0.5l0.1-0.1c9.5-1.3 19.6-1.1 30.5-2.4 3.2 0.1 6.6 0 12.2 0.4l1.1-0.3q0.1 0 0.3 0.1l4 0.5-1.8 3.4c-0.3 0.8-0.9 1.6-1.7 2.3-0.8 0.7-1.9 1.2-2.9 1.5-0.4 0.1-1 0.2-1.4 0.2l-0.3 0.1q-0.1 0-0.2 0-0.9 0.4-1.9 0.7-0.7 0.2-1.4 0.5c2.6-0.2 5.7-0.3 7-0.7 1.3-0.3 3.5-0.6 6.3-0.9 2.8-0.4 6.2-0.7 9.8-1.4l1 3.2q-0.2 0-0.3 0.1c1.2-0.1 2.8-0.1 4.5-0.2 3.7-0.1 8.2 0 11.8 0.5l5.2 0.7-4.2 3.2q-0.9 0.7-1.8 1.3c0.7-0.6 1.4-1.2 1.4-1.4 0.1-0.1-0.3 0.1-1.4 0.6v0.4q-0.2-0.1-0.6-0.2-0.1 0.1-0.2 0.1c-2.1 1-4.8 1.7-7.5 2.3 4.1-0.7 8.3-1.6 12.1-2.2 3.3-0.5 6.4-0.9 8.9-1 1.9-0.2 3.4-0.2 4.6 0 1.6-0.3 2.9-0.6 4.5-1l0.1 0.9q0.1 0 0.1 0l0.5 2.8h-0.1l0.2 0.8c-1.3 0.3-2.8 0.5-4.7 0.8 0.9-0.4 0.1-0.6-2.2-0.6-0.5 0.2-1.3 0.5-2.4 0.7 0.4 0.2 1.6 0.2 1.9 0.3-1.7 0.3-3.9 0.5-6 0.8-3.1 0.7-6.1 1.4-6 1.7q-2.2 0.5-4.4 1c1.1-0.1 2.5-0.2 4.7-0.5 3.7-0.5 1.9-0.6 3.3-0.8 0 0 0.5-0.1 2.3-0.2l8.7-0.7-3.4 0.8c3.8 0 8.1-0.6 4.4 0.3 3.1-0.8 11-1.4 18.7-1.8 4-0.2 7.8-0.4 11-0.5 3-0.2 5.4-0.4 6.3-0.5 4.9 0.1 9.7-0.4 15.7 0.1l1.9 0.1-0.8 1.7c-0.4 0.7-0.9 1.2-1.4 1.5 0.5-0.5 0.8-1 0.4-0.9q-0.1 0.1-0.5 0.3l0.1 0.4q0 0-0.1 0l-0.1-0.3q0 0-0.1 0l0.2 0.3c-0.5 0.1-0.8 0.1-0.1 0.3q0.1-0.1 0.1-0.1h0.1q-0.1 0-0.1 0.1 0 0 0.1 0-0.1 0-0.2 0-0.2 0.1-0.5 0.2 0.3-0.1 0.5-0.2-0.7-0.1-1.3-0.1-1 0.3-2.6 0.6c0.6 0.2 0.2 0.5-0.7 0.8q-0.7 0.2-1.7 0.5-1 0.3-2.3 0.6c-3.2 0.7-7.3 1.4-9.6 2.2 1.1-0.4-2.6 0.1-6.2 0.4-3.8 0.3-7.3 0.3-4.1-0.3-4.8 0.4-0.3 0.5-3.9 1q-0.6 0-1.1 0 0.1 0 0.3 0.1c0 0 1.9 0 3.7 0.1 1.9 0 3.7 0 3.7 0 2.8 0.5 2.4 1.4 7.5 1.3-0.7 0.1-1.8 0.2 0 0.5 13.7 1.1 27.7 2.4 41.8 3.9 14.1 1.6 28.1 3.7 42 5.2-3.8-0.3-1.3 0.2 1.6 0.7-1.9-0.3 0 0.4-0.5 0.6l11.7 1.3c1 0.5 4.1 1.2 7.1 1.7 2.9 0.6 5.7 1 6.3 1.3 0 0-0.9-0.1-1.8-0.2-0.9-0.2-1.8-0.4-1.8-0.4 2.3 0.8 0.6 1-1.7 1-2.3 0-5.1-0.1-4.9 0.5-5.2-1.9-14.5-1.3-23.2-4-2-0.1 1.7 0.6 0.6 0.6-2.2-0.8-5-1.3-10-1.9l0.5 0.2c-7.1-1.1-12.2-1.7-17.5-2.3-5.4-0.5-10.9-0.9-19-1.6l1.2-0.3c-3.4-0.3-4.2-0.2-5.8-0.2-3.9-1.1 9.7 0.8 6.2-0.3-4.7 0.5-24.5-2.2-27.7-1.5-5.4-0.6 1.6-0.4-3.7-0.9l-1.5 0.1-1.3-0.5c-3.5-0.4-5.3-0.3-5.5 0 0.9 0 2.4 0.3 3.3 0.5-4.4-0.2-12.3-1.8-14.2-2 0.4 0 1.4 0.2 2.4 0.3 1.3 0.1 2.6 0.3 2.6 0.3-6.9-1.2-14.6-2.5-22.1-4.2l0.1-0.2q-0.2-0.1-0.3-0.1l1.1-3.7q0.1 0.1 0.3 0.1v-0.1c-2.4 0.5-5.6 1.1-10.8 1.6 0.6-0.1 0.8 0 1.6-0.1-3.7 0.6-7.3 0.3-11.8 1.3-2.6-0.4-5.9 0.7-6.7 0 0 0 2.3-0.2 4.6-0.4 2.2-0.3 4.5-0.5 4.5-0.5-5.2 0.4-10.1 0.1-18.5 1.6 0.7 0.1 3.2 0 5-0.2-2.5 0.6-4.8 0.5-7.4 1.1 0.9 0.7 11.1-1.3 16.6-1.3-2.6 0.6-10.4 0.7-7.6 1.2-4.1-0.6-9.7 1.4-16.5 1.4l0.5 0.4c-1.1 0.1-3.3 0.1-5.3 0.4l3.7 0.2c-2.7 0-5.3 0.5-7.8 0.9l-0.9-2.7c-0.4 0-1.1 0.1-2.3 0.3-6.6 1.6-12.5 3.3-20.5 4.7 0 0-1.1 0.4-2.2 0.8-1.2 0.4-2.3 0.8-2.3 0.8-3.4 0.4-1.8 0-0.7-0.4 0.5-0.2 0.9-0.4 0.4-0.4-0.4-0.1-1.7 0.1-4.5 0.2-1.7 0-2.9 0-3.6 0h-2.2l0.3-2.3c0-0.5 0.1-0.9 0.3-1.2q0.2-0.3 0.3-0.6c0.2-0.4 0.4-0.5 0.4-0.6 0.2-0.3 0.1-0.3 0.1-0.4-0.2 0-0.4-0.2 0.9-1.1 1.2-0.6 2.4-0.9 3.7-1.2q1-0.2 2.1-0.4 0.5-0.1 1-0.2c0.1 0 0.3 0 0.4 0l0.6-0.2c2.9-0.7 6.2-1.5 9.4-2.6-2.2 0.4-3.9 1-6 1.5zm44.2-9.9q0 0 0 0-0.4 0.1-0.4 0.1 0.2 0 0.4-0.1zm0.6-0.1c0.7-0.1 1-0.1 0.5 0.1 2.1-0.1 3.7-0.3 4.9-0.5 3-0.1 2 0.3-0.1 0.8-2 0.5-5 1.1-5.8 1.3 6.2-1 10.2-1.2 13.4-2 0 0-1.2 0-2.5 0-1.3 0-2.6 0.1-2.6 0.1 5.8-0.9 8.3-0.4 10 0q0.3-0.1 0.6-0.2l-0.1-0.3c-1.5-0.4-2.3-0.6-1.1-0.7q0.5 0.1 1 0.2l-0.6-2.5q-1.4 0.8-3 1.2c-0.3 0.1 0.4-0.1 0.9-0.2 0.5-0.2 0.8-0.3-0.3 0.3-1.4 0.4-4.6 0.7-6 0.7 0 0-0.6 0.1-1.6 0.2-0.9 0.2-2.3 0.4-3.5 0.7-1.6 0.3-3.2 0.6-4.1 0.8zm17.8-3.8l0.6 2.7q0.1 0 0.2 0l-0.7-2.8q0 0-0.1 0.1zm0.7 3.2l-0.1-0.5q-0.1 0-0.2-0.1l0.1 0.5q0.1 0 0.2 0.1zm-0.8-3.7q-0.1 0.1-0.3 0.2l0.2 0.4q0.1-0.1 0.2-0.1zm-0.2 0.1l-0.2-0.6c-0.9 0.5-1.6 1-3.4 2.1 1.4-0.4 2.7-1 3.6-1.5zm-103.4 13.6q0.4 0 0.7-0.1v0.1q-0.3 0-0.6 0.1v0.1q0.3-0.1 0.6-0.2l0.6 2.9c2.1-0.8 4.9-1.7 7.4-2.3 2.6-0.6 4.8-1.1 5.8-1.2-5.1 0.8-2.7 0.1-1.3-0.4 3 0 5.2-0.4 9.3-1.4 0.8 0.6 1.7 1.3 10 0-1.3 0.1-3.3 0.4-2.5 0.1 0.8-0.3 2.8-0.5 3.4-0.5 0.8-0.3-1.9 0-1-0.4 5.7-0.2 9.7-1.6 17.8-2.7-2.6 0.2-0.4-0.3 0.5-0.7 0.8 0.8 11-2.7 8.1-1 4.5-1 9.6-2.1 14.8-3.2l4-0.8q1.9-0.4 3.8-0.8c2.5-0.6 5-1.2 7.4-2.2q-0.2 0.1-0.3 0.1 0.1-0.1 0.2-0.1l-0.9-3.1q-1.4 0.6-2.6 1c0 0 0.3-0.1 0.6-0.2 0.3-0.1 0.6-0.2 0.6-0.2 0.9-0.2-0.4 0.5-2.4 1.1-2 0.5-4.7 1-6.4 1.2 0.6 0.1 1.3-0.1 2.7-0.4-6 1.9-8.1 0.4-14.1 2.3 5.5-1.1 6.7-1 6.5-0.7-1.9 0.3-4.7 0.8-7.2 1.3 1.7-0.1 4.1-0.3 6.7-0.5q1.9-0.1 4-0.3 0 0-0.1 0c-3.8 0.5-10.3 3.1-14 3.2l2.4-0.6c-6.9 0.5-15.9 3.7-17.1 2.9l0.5-0.6c-5.7 1.4-7 1.6-8.2 1.8-1.3 0.2-2.6 0.4-8.4 1.8l0.2 0.1c-5.1 0.9-7.8 2-10.4 1.8 0.1 0 0 0.1-0.4 0.2l-7.1 0.9c-1.1 0.2-2.4 0.4-4.2 0.7-0.8 0.1-3.9 0.4-4.8 0.7-0.1-0.2-1.3-0.1-3-0.1 2.8-0.6 5.5-1.2 8-1.8-1.9 0.1-2.5 0-0.1-0.9 0 0-1.6 0.5-3.1 1-1.6 0.5-3.1 1.1-3.1 1.1-0.9 0.2-1.7 0.4-2.3 0.6q-0.2 0-0.4 0v0.1q-0.4 0.1-0.6 0.1zm16.3-2.6c-1.6 0.5-3 0.9-3.9 1.2l1.2-0.2c2.5-0.4 4-0.6 7.2-1.2-0.3 0-0.8-0.1-1.4-0.1 0.6 0 1.1-0.1 1.5-0.1 2.9-0.7 1.3-0.8-0.8-0.8q-1.5 0.4-2.9 0.9c-1.3 0-2.6-0.1-3.2-0.2q-2.1 0.4-4.4 1c1.7-0.1 4.2-0.4 6.7-0.5zm-2.3-0.5c1.7-0.4 3.3-0.7 4.7-0.9l-0.3 0.5c6.1-1.1 10.8-2.2 15.6-3.4l0.4 0.5c1.4-0.4 3.3-0.9 5.3-1.3-1.8 0.1-3.6 0.2-5.4 0.3 4.9-1.2 4-0.9 8.9-2.3 1-0.1 1 0.1 0.6 0.4l-1 0.1c0.4 0 0.7 0 0.8 0.1q-0.3 0.1-0.6 0.3-0.5 0.1-1.7 0.4 0.7-0.2 1.4-0.3-0.5 0.2-1 0.3 0.7 0 1.3-0.1 1.3-0.3 2.6-0.6 2.2-0.3 4.2-0.5-1.3 0-1.9-0.1 0.3 0 0.6-0.1l-0.9 0.1c-1.9-0.5 0.8-2-0.3-2.4 0 0 4.1 0.2 8.3 0.3q0.1 0 0.1 0c2.2-0.6 3.9-1.3 5-1.9 0.7 0 2.4-0.5 4.3-1.2q-1.1 0.1-2 0.2l0.4 0.3c-7.9 0.3-6.1 0.5-15.4 1.1 3.9-0.1 2.3 0.3-1.4 1.2l-6.4 0.1-1.2 0.8q-1.5 0.1-3.1 0.4c1.3 0 2.5 0 0.9 0.7-1 0.5-3.8 1.4-6.5 2.3 1.9-0.2 3.2 0.1 3.2 0.4q-1.3 0.1-2.5 0.2l-1.9 0.4c-0.1-0.2-0.1-0.4-0.2-0.6-1.1 0.4-2.1 0.7-3 1l1.8-0.1-7.4 1.6-0.1-0.1c1.5-0.5 2.5-1.3 1.2-1.3h1c-0.6-0.7-0.1-2.1 1.7-3.1q-0.9 0.1-1.7 0.2c-1.3 0.4-3 1.1-4.1 1.3-5.9 2-9.3 1.5-14.3 2.8l3.9-0.5c-0.8 0.4-8.2 1.6-9.4 1.6-0.2 0.3 3.9 0.4 1.9 1.1 4-0.3 6.1 0.2 13-1.2l-3.7 0.9c1.9-0.2 7.6-1.3 9.4-1.6l-1.1 0.7c-1.3 0-2.2 0-2.5 0.2-0.2 0.1 0.1 0.1 0.7 0.1-1.2 0.2-2.2 0.3-2.8 0.3-0.1 0.2 0.1 0.3 0.6 0.4zm5.8-2l0.4 0.1q-0.3 0.1-0.6 0.3c0.2-0.1 0-0.1-0.5-0.1zm38.3-4.4c-3.1 0-0.8-0.8-1-1.3-1.7 0.6-4.3 0.9-7.2 1.3q0.5 0 1.3-0.1c-2 0.4-4.3 0.8-8.2 1.2q-1.7 0.4-3.3 0.8c5.1-0.4 10.7-0.8 18.4-1.9zm-16.9 1.2q0 0 0.1-0.1-0.1 0.1-0.1 0.1zm13.1-2.1c-0.3-0.4 1.5-0.6 3.9-1.2q-1.2 0-2.5-0.1c-2.1 0.7-4.5 1.3-7.1 2q0 0 0 0zm3.8-1.2q0.6 0 1.2 0-0.2-0.1 0.2-0.3-0.7 0.1-1.4 0.3zm4-0.7c-0.1 0 0.3 0.3 0.7 0.5q1.2-0.2 2.6-0.4c-1.8 0-3 0-3.3-0.1zm0.7 0.5c-1 0.1-1.8 0.2-2.5 0.3 2.2 0.1 3.7 0.2 3.7 0.2-0.3-0.1-0.8-0.3-1.2-0.5zm-29.9 4.8q-0.1 0-0.3 0.1 0.2-0.1 0.3-0.1zm-4.2-0.6c0.1 0 0.2 0.1 0.2 0.2q0.7-0.2 1.4-0.4-0.8 0.1-1.6 0.2zm1 1.1h0.2q-0.1 0-0.2 0zm-8.7 0.3q0.2 0 0.4 0zm-27.3 4.3q0.3 0 0.7 0c1.9-0.2 3.9-0.6 5.9-1q0.1 0 0.1 0c-1.7 0.1-3.8 0.4-6.7 1zm0.7 0c-2.4 0.4-4.6 0.6-6.4 0.7-3.2 0.1-5.2-0.3-5-0.6 0 0 0.9 0 2.1-0.1 1.3-0.1 3-0.3 4.8-0.5 3.5-0.5 7-0.9 7-0.9 0.2-0.3-2.3 0-4.8 0.3-2.5 0.3-4.9 0.5-4.7 0.1q-1.2 0.2-2.3 0.4-2.5 0.6-5.1 1.1l0.1 1.1q0.8 0.1 1.6 0.2c4.9-0.2 8.8 0 10.3 0.1 4-0.9 3.4-1.6 2.4-1.9zm-14.7 1.9l0.1 1.4q0.2 0 0.3 0.1v0.3q0.1 0 0.2 0l-0.1-0.3q0 0 0 0l0.1 0.3q0 0 0 0v-0.3q0.6 0.1 1.2 0.2 3.3-0.3 5.6-0.5c-1.1 0.3-1.6 0.4-2 0.6q1-0.1 2-0.2l1.6-0.6c0 0 1.7-0.2 3.4-0.4 1.7-0.2 3.3-0.4 3.3-0.4-1.5 0-4 0-6.8 0-2.2 0-4.6 0-6.9-0.3q-0.8 0-1.6 0.1v-0.3q0 0 0 0v0.3q0 0 0 0v-0.3q-0.1-0.1-0.2-0.1v0.4q-0.1 0-0.2 0zm0.3-1.8v0.1q0 0-0.1 0v-0.1q0.1 0 0.1 0zm0.4 4.8q0 0 0 0v0.2q0 0 0 0zm2.3-0.2q0.3 0 0.6 0l2.1-0.5c-0.6 0.1-1.7 0.3-2.7 0.5zm41.2-8.6c0.2-0.1 0.9-0.3 2.1-0.7l-3.5 0.2c0.2 0.3 0.7 0.5 1.4 0.5zm48.2-15.3q0.1 0 0.2 0l-0.1-0.3q-0.1 0.1-0.1 0.3zm-84.3 12.5q0.1 0 0.1 0zm-5.8 1.5q-0.1 0-0.1 0 0 0 0.1 0zm9.5-1.2q0.2-0.1 0.5-0.3-0.3 0.2-0.5 0.3zm5.5 8.9c0.5 0 1.8-0.2 3.1-0.5l-0.1-0.1q-1.5 0.3-3 0.6zm4.2-0.8q-0.3 0.1-0.5 0.1 0.2 0 0.5-0.1zm30.1-9.7c0.1-0.1 0.8-0.3-0.5-0.1q0.3 0 0.5 0.1zm-0.5-0.1q0 0 0 0 0 0-0.1 0 0.1 0 0.1 0zm-10 7.1q0.2 0.1 0.3 0.1l1.7-0.4q-1.1 0.2-2 0.3zm0.3 0.1q0 0 0 0 0 0 0 0zm52.5-10.3c5.7-0.9 5.2-0.6 5.3-0.3q-1.3 0.1-2.7 0.2c0.3-0.1-1.5 0.1-2.6 0.1zm5.3-0.3q1.8-0.1 3.6-0.3c0 0.1 0.5 0.3-0.2 0.6-3.1 0.2-3.4 0-3.4-0.3zm6.5-0.9c0.6-0.1 1.7-0.2 3.1-0.3-1.8 0.4-3.9 0.6-6 0.9 0-0.2 0.5-0.4 2.9-0.6zm10.6 7c-2.8 0.5-5.5 1-8.1 1.4 0.9-0.1 1.1 0 1.3 0-4.2 0.6-8.6 1.5-12.7 2.5 2.8-0.5 5.7-1.1 7.5-1.3 0-0.1 0.3-0.2 0.9-0.4 1.2-0.1 2.6-0.3 4.2-0.6 1.5-0.3 3.2-0.8 4.8-1.1q1-0.3 2.1-0.5zm-27.2 5c-1.6 1.2-7.7 2.3-13.3 3.3-5 1-9.6 2-10.4 2.7q0.5-0.1 0.9-0.2c1.9-0.5 3.4-0.8 4.8-1.1 2.9-0.5 5.5-0.9 10.3-1.6l0.9-0.7c1.3-0.1 5.3-1.2 10.3-2.5q2-0.5 4.2-1c-3.2 0.5-6.4 1.1-7.7 1.1zm-23.7 6c-1.6 0.4-3.5 0.9-5.8 1.5 0.2 0 1.5-0.1-0.2 0.3-1.1 0.1-2.2 0.2-3.6 0.2-1.4 0.1-3.1 0.1-5.4 0l0.9 2c0.2 0 0.2 0.1 0.4 0.1q0.2 0.1 0.3 0.2 0.1 0.1 0.2 0.2 0 0 0 0c0-0.1 0-0.1 0.1-0.1q0.1-0.1 0.2-0.2c0.4-0.2 0.9-0.5 1.5-0.7l-0.3-0.1c0 0 0.6-0.2 1.7-0.5q0.7-0.2 1.8-0.5c0.3-0.1 0.6-0.1 1.2-0.2q0.5-0.2 1-0.4c3-0.8 5.9-1.5 5.9-1.5q0-0.2 0.1-0.3zm-13.2 4.5q0 0 0 0 0 0 0 0zm89.7-18.7c-1.2 0.2-2.5 0.4-4.2 0.7l1.2 0.2-5.2 1.1 4.4-0.3c-10 2.6-2.1-0.5-13.2 2.3l0.1 0.5c-4.3 0.7-5.9 0.2-9.2 1.3-4.2 0.5 7.1-1.9-2.8-0.2-1.7 0.5-5.4 1.4-8.3 2-2.9 0.4 1.3-0.7 3.6-1.2-6.9 1.2-9.1 2.1-11 2.9-1.1 0.4-2 0.8-3.6 1.2-0.7 0.3-1.6 0.5-2.8 0.7-1.2 0.3-2.6 0.5-4.4 1.2 1.2-0.6 1.5-0.7 1.5-0.9 0-0.1-0.4-0.1-0.5-0.1-0.1-0.1 0-0.2 0.9-0.5 0.8-0.4 2.5-0.8 5-1.3-2.5 0.5-5.3 1-8.2 2.6l0.7 2.1q0.2-0.1 0.3-0.1 0.3 0 0.5-0.1l0.6 2.1c1.2-0.7 2.8-1.1 4.4-1.5l2.6-0.6 2.5-0.6q5-1.2 10.1-2.2c5.4-1.1 11-2 16.5-3.2-1.9 0.1-2.8 0.1-4.9 0.1l0.9-0.2-4 0.4c-3 0.4 10.5-0.6 0.9 0.8-0.1-0.1-5.9-0.2-8.4 0.5 4.9-0.6 4.3-0.1 2.5 0.3l-6.1 0.8q1.2-0.3 2.3-0.5c-1.3 0.1 3-1.1 3.6-1.3 0 0 2.5-0.4 4.9-0.7 2.4-0.3 4.9-0.6 4.9-0.6-4.3 0.5-4.2 0.1-5.1-0.2 3.1-0.5 4.5-0.5 6.6-0.8-1.3 0.1-2.6 0.2-1-0.3 0 0 2.6-0.2 5.2-0.4 2.6-0.2 5.1-0.4 5.1-0.4-0.6 0.1-1.7 0.3-2.7 0.5 1.3-0.2 3.3-0.4 5.5-0.6q0.1 0 0.2 0c1.5-0.4 2.9-0.7 4.1-1.1q0 0 0 0c-3.1 0.7-4.8 0.6-6.5 0.5 7.1-0.8 1.8-0.3 5.2-1q0.6 0 1.2-0.1c0.3-0.3 4.4-1.5 7.4-2.1-2.8 0.8 1.3 0.3 1.7 0.4l-0.4-2.2q-1.8 0.1-3.6 0.2-0.4-0.1-1-0.1zm5.1 2.7v-0.5c-0.2 0.2-1.4 0.5-4.4 1.2zm-8.2 1.1q0.8-0.1 1.4-0.1c0.4-0.2 0.5-0.3 0.2-0.4l-0.8 0.3q-0.5 0.1-0.8 0.2zm-52.7 8.7q10-1.3 19.6-2.6l-2.2 1 0.8-0.1c-5.1 1-11.7 1.8-17.7 3.3zm57.3-5.4q-0.1 0-0.2 0 0.1 0 0.2 0zm51.1 0.1l-0.8-2.1 0.8 2.1q0.1 0 0.1 0l-0.9-2.1q0 0-0.1 0 0.1 0 0.1 0-0.1 0-0.1 0 0 0-0.1 0 0 0 0.1 0-0.1 0-0.1-0.1 0 0 0 0c0 0 0 0-0.1-0.1-0.1 0 0 0 0 0 0 0.1-0.1 0.1-0.1 0.2-0.2 0.1-0.4 0.3-0.6 0.4-0.4 0.2-0.5 0.4 0.2 0.2-0.6 0.2-1.3 0.4-2.1 0.5q-1.2 0.2-2.3 0.4-1.5 0.3-2.8 0.5c0.6 0 1 0.1 1.4 0.2 0.5 0 1.1 0 2.2 0.1 0.9 0.1 2.2 0.1 4 0.3q0.3-0.1 0.6-0.2 0.4-0.2 0.6-0.3zm-0.8-2.1q0 0 0 0 0 0 0 0zm-17.3 7.3q-0.1 0-0.3 0.1 0.1 0 0.3-0.1zm-15.3 1.1c-2.5-0.6-0.3-0.5-0.5-0.7-6.2-1.1-12.3-2.1-18.1-3.3l-1.1 3.7c2.3 0.6 4.2 0.3 5.8 0.3 1.7-0.1 3.5-0.1 5.2-0.1q4.5 0 8.7 0.1zm-2.6 3.5q-0.1 0-0.1 0 0 0 0.1 0zm-15.9-7.6q0.1 0 0.2-0.1-0.1 0-0.2 0zm2.4 0.2c0.8 0 1.8-0.1 2.8-0.1 0-0.5 11.4-1 8.7-1 2.7-0.5-4.7-0.4-8.6-0.1-1.7 0.2-3.2 0.5-5.1 0.9 0.6 0.2 1.3 0.3 2.2 0.3zm2.8-0.1c0 0.1 0.4 0.2 1.3 0.3q0.5-0.1 1-0.2-1-0.1-2-0.1-0.1 0-0.3 0zm6.6 0.1c4 0.1 7.9 0.1 11.6 0l-1.1 0.3c2.7 0 4.5-0.2 6-0.3 1.5-0.2 2.6-0.4 3.7-0.6 2.2-0.4 4.6-0.8 10.4-1.8h-0.4q0.5-0.1 1.1-0.1c-0.7-0.1-1.8-0.2-3.7-0.3l-1.8 0.5c-2.6-0.2-2.9-0.3-8.8-0.1 4.8 0.1-3.8 0.7 1.7 0.9-11.6 1.3-17.6 0.3-23 1.5q2.2 0 4.3 0zm40.4-1.8v-0.1q0 0 0 0v0.1q0 0 0 0zm-1.3-2.8q0 0 0 0 0.1 0.1 0.1 0.1-0.1-0.1-0.1-0.1zm-61.7 6q-0.2 0-0.4 0.1 0.2-0.1 0.4-0.1zm-22.7-4.7q-0.4 0.1-0.8 0.2 0.4-0.1 0.8-0.2zm-88.1 4q0.1-0.1 0.3-0.1 0.3 0 0.6 0-0.4 0.1-0.9 0.2zm27-6.3l1.5-0.3c0.1 0.1 0.2 0.2 0.6 0.2zm5.8-0.9q0.4 0 0.8 0-0.6 0.1-1.4 0.3 0.5-0.1 0.6-0.3zm12.1-1.7q-1.4 0.2-2.9 0.4 0.2-0.1 0.3-0.1c0.5-0.2 0.6-0.3 0.6-0.3q0.1-0.1 0.2-0.2l3.8-0.4q0.1 0 0.3 0-1.1 0.3-2.3 0.6zm13.7-2.5q0.3 0.1 1.1 0-0.5 0-1.1 0zm-79 13.1q-0.1 0-0.1 0l-0.1-1.5q0 0 0 0zm-0.1-0.1q0 0-0.1 0l-0.2-1.4q0.1 0 0.2-0.1zm0.1 0.3l0.1 1.1q0.2 0 0.4 0c3.7-0.8 3.5-0.8 4.3-1.1q-1.8 0.1-3.6-0.1-0.6 0.1-1.2 0.1zm-0.4-3.2q0 0 0 0l0.1 1.1q0 0 0 0zm0.4 4.3q0 0 0.1 0l-0.1-1.1q-0.1 0-0.1 0zm146.4-11q0-0.1-0.1-0.1zm-9.1 1.6c-0.1 0.1 0.2 0.1 1 0q-0.5 0-1 0zm56.8 3.9q0 0.1 0 0.1 0 0 0 0 0 0 0.1 0-0.1 0-0.1-0.1zm0.1-0.2q0 0 0 0l0.1 0.1q-0.1 0-0.1 0zm-1-2.4q0 0 0 0 0 0-0.1 0 0 0 0.1 0zm-76.4-4.8c-1 0.3-4 0.2-5.5 0.3 2.5-0.4 3.8-0.8 5.5-0.3zm-74.2 5.6c1.9-0.5 3.6-0.9 4.8-0.9q-2.7 0.6-4.8 0.9zm-15.6-13.4q0.1 0 0.2 0c3.3-0.9 2.1-0.6-0.2 0zm-3.4 0.9c-1.8 0.5-3.3 0.9-3.8 0.9-0.3 0.1-0.3 0.2 0.4 0.1 2.1-0.4 2.9-0.7 3.4-1zm108.2 13.7l-1.4 0.2c3.1-0.1 2.3-0.2 1.4-0.2z"/>
			<path id="&lt;Path&gt;" class="s0" d="m40.9 25.8c-0.4 0.1-0.5 0.2-0.6 0.3-0.6 0.1-0.6 0 0.6-0.3z"/>
			<path id="&lt;Path&gt;" class="s0" d="m92.6 33.5l0.2-0.1q0.2 0 0.3 0.1z"/>
			<path id="&lt;Path&gt;" class="s0" d="m63.7 17.3c-1.4 0.4-2.1 0.7-2.6 0.9-0.1-0.1 0.5-0.3 2.6-0.9z"/>
			<path id="&lt;Path&gt;" class="s0" d="m20.3 21.8l-4.4 1c2.1-0.5 2.9-0.8 3.9-1.1-0.1 0.1-0.9 0.5 0.5 0.1z"/>
			<path id="&lt;Path&gt;" class="s0" d="m57.9 10.4c0.6-0.1 1.3-0.4 2-0.5l-0.2 0.3c-2.7 0.7-4.6 1-1.8 0.2z"/>
			<path id="&lt;Path&gt;" class="s0" d="m24 19.4c0.3-0.5 3.1-1 6.2-1.6q-0.3 0.1-0.6 0.1c1.1 0.4-2.3 0.9-5.6 1.5z"/>
			<path id="&lt;Path&gt;" class="s0" d="m30.9 17.7c0.9-0.2 1.9-0.4 2.8-0.6 0.5 0.1-1.1 0.3-2.8 0.6z"/>
			<path id="&lt;Path&gt;" class="s0" d="m18.5 15.7c-1.4 0.4-1-0.3-1.8 0.1-1.8-0.1 9.8-2.1 1.8-0.1z"/>
			<path id="&lt;Path&gt;" class="s0" d="m26.2 17.5l-1 0.7h-1.8z"/>
			<path id="&lt;Path&gt;" class="s0" d="m9.2 20.3q-1.9 0.7-3.6 1.6l0.1 0.5 1.1-0.2c0 0.1 0.6 0 1.4-0.1-0.8 0.2-1.6 0.3-2.4 0.5l-0.3-0.8c2-1 3.8-1.6 3.7-1.5z"/>
			<path id="&lt;Path&gt;" class="s0" d="m8.2 22.1c1.6-0.4 3.1-0.7 4-0.8-0.9 0.2-2.7 0.6-4 0.8z"/>
			<path id="&lt;Path&gt;" class="s0" d="m19.4 18.9l-1.4 0.4-3.5 0.9z"/>
			<path id="&lt;Path&gt;" class="s0" d="m62.3 9l5.6-0.3c0.5 0.1-1 0.3-3 0.4-1.3 0-3.4 0.2-2.6-0.1z"/>
			<path id="&lt;Path&gt;" class="s0" d="m46 12.6c1.5-0.4 1.5-0.5 2.3-0.8l0.3 0.6z"/>
			<path id="&lt;Path&gt;" class="s0" d="m61.9 10.6c0.6 0.1 8-0.2 1 0.3-0.5-0.1-6 0.3-1-0.3z"/>
			<path id="&lt;Path&gt;" class="s0" d="m55.8 21l1.4-0.4v1.1z"/>
			<path id="&lt;Path&gt;" class="s0" d="m29.9 28.4c-6.3 1.4-1.6-0.3-7.3 1.1-1.6 0 4.7-1.2 3.1-1.1 3.9-0.5 5.9-1 4.2 0z"/>
			<path id="&lt;Path&gt;" class="s0" d="m25.7 28.4q-1 0.1-2 0.2c1.1-0.1 1.6-0.2 2-0.2z"/>
			<path id="&lt;Path&gt;" class="s0" d="m287.3 47.4c0 0 1 0.1 2 0.2 1.1 0.1 2.1 0.2 2.1 0.2 0 0-0.7 0-1.4 0-0.6 0-1.3 0-1.3 0z"/>
			<path id="&lt;Path&gt;" class="s0" d="m294.9 49.1l1-0.6c0 0 0.6 0.1 1.2 0.3 0.6 0.1 1.1 0.2 1.1 0.2-0.8 0.1-2.6 0-3.3 0.1z"/>
			<path id="&lt;Path&gt;" class="s0" d="m106.8 22.1l-0.3-0.1c0.6-0.2 1.6-0.3 3.5-0.5z"/>
			<path id="&lt;Path&gt;" class="s0" d="m100.4 22.1l0.9-0.2-1.6 1z"/>
			<path id="&lt;Path&gt;" class="s0" d="m58.4 41.2c-0.5 0-1.2-0.1-1.8-0.1l-3.9-0.2 0.4-3.9c0.1-0.7 0.5-1.7 0.8-2.1 0.1-0.3 0.4-0.6 0.5-0.8q0.3-0.2 0.5-0.5c0.7-0.6 1.3-0.9 1.8-1.1 1-0.6 1.9-0.9 2.7-1.2-1.1 0.4-2.1 0.8-3.2 1.5-0.2 0.1-0.5 0.4-0.8 0.6-0.2 0.2-0.6 0.5-0.8 0.8-0.1 0.1-0.3 0.4-0.4 0.6q-0.2 0.3-0.4 0.6c-0.2 0.5-0.4 1.1-0.4 1.7l-0.4 3.8 3.6-0.1c1.5 0 2.2 0 1.8 0.4z"/>
		</g>
	</g>
</svg>