<svg version="1.2" xmlns="http://www.w3.org/2000/svg" viewBox="0 0 67 211" width="67" height="211">
	<title>Vector Smart Object-ai</title>
	<style>
		.s0 { mix-blend-mode: screen;fill: #232323 } 
	</style>
	<g id="OBJECTS">
		<path id="&lt;Path&gt;" class="s0" d="m23.1 200.5c1.8 2 2.4 4.9 4.4 6.7 2.1 1.9 2.7-1.8 3.1-3.2 0.4-1.3 1.1-4.3 2.7-4.8 0.5-0.2 1.1 0.1 1.6 0 0.2-0.1 0.6-0.3 0.8-0.3 0.3 0 0.6 0.3 0.9 0.4 1 0.3 1.7-0.2 2-1.1 0.8 0.3 1.1 1.4 1.8 1.8 0.5 0.4 0.6 0.3 1.2 0.4 0.5 0 0.7 0.1 1.2 0.3q0.4 0.1 0.9 0.2 0.7 0.1 1.2-0.2c0.8 0 1.3 0.6 2 0.5 1-0.1 0.9-0.6 1.4 0.7 0.4 0.9 0.8 1.9 1.4 2.7 0.3 0.3 1.1 1.2 1.7 1.1 0.7-0.2 0.4-1.7 0.5-2.3 0.2-0.9 0.4-1 0.9-1.5 0.6-0.5 0.9-0.7 1.2-1.4 0.5-0.8 0.9-1.7 1.5-2.4 0.5-0.7 1.2-1.1 1.7-1.7 0.5-0.7 0.9-1.5 1.3-2.3q0.6-0.9 1-1.8v-189.5c-0.6-0.3-1.2-0.6-1.8-0.5-1.2 0.1-1.9 1.4-2.2 2.3-0.7 1.5-0.9 3.1-1.8 4.4-1 1.5-1.7 1.5-3.2 1.1-0.7-0.2-1.6-0.7-2.3-0.8q-0.5-0.4-1 0.3-0.2 1.2-1.2 1.8-1.3-0.3-2-1.5-0.3-1.1-1.2-0.8-0.3 0.5-0.9 0.7-0.6 0.3-1.1-0.1c-1.7-0.2-1.3 2-2.8 2.2-0.9 0.1-1.5-1.1-2.4-1.2q-0.6 0.1-1.2 0.1-0.8-0.7-1.3-1.6c-0.6-0.8-0.8-1.1-1.7-1.5-0.8-0.3-1.4-0.2-2-1-0.6-0.8-0.5-1.7-1.2-2.4-0.6-0.5-1.2-1.1-1.9-1.7-0.7-0.6-1.6-0.4-2.3 0.3-0.6 0.5-0.6 1.2-1.3 1.6-0.5 0.3-1.2 0.3-1.7 0.2-0.2 0-0.9-0.4-1.1-0.4-0.6 0.1-1.3 1.9-1.6 2.3-0.7 1-1.5 2.9-2.8 1.5-1 0.5-1.9 1.2-2.8 0.1q-0.6 0.3-1 0.9-0.6 0.3-1.3-0.1-0.8-0.2-1.7-0.2-0.1 0-0.3 0v192.6c0.7-0.7 1.4-1.5 2.1-2.1 1.1-0.9 1.7-1.4 3-1.4 0.7 0 2.2 0.4 2.8 0 0.4-0.2 0.4-1 0.6-1.4 0.9 0.1 1.6 1.2 2.4 1.7 1.3 0.8 2.6 1.1 3.8 2.3z"/>
	</g>
</svg>